<svg fill="none" height="80" viewBox="0 0 180 80" width="180" xmlns="http://www.w3.org/2000/svg"><path clip-rule="evenodd" d="m30.3327 31.7358 2.9762-5.0376h-5.6773l-.2026.343z" fill="#c2beda" fill-rule="evenodd"/><path d="m27.4747 27.0371-17.1098 27.9629h7.024l10.0858-16.6405 6.8439 11.3224h-4.5026l-2.3413-3.7742-5.4031 9.0923h22.693z" fill="#ececf1"/><path clip-rule="evenodd" d="m36.157 41.1544-2.8866-4.7235 5.7499-9.7327h5.6773z" fill="#a29eb6" fill-rule="evenodd"/><path clip-rule="evenodd" d="m33.2455 36.43 5.7494-9.7318h-5.6773l-2.9587 5.0081z" fill="#b9b9c8" fill-rule="evenodd"/><g fill="#ececf1"><path d="m69.5159 54.59c-.2174-.703-.4643-1.4255-.7412-2.1675-.2572-.7421-.5143-1.4842-.7714-2.2262h-8.0093c-.2571.742-.524 1.4841-.8009 2.2262-.2571.742-.4944 1.4645-.7119 2.1675h-4.8055c.7712-2.1871 1.5029-4.2082 2.1951-6.0634.6921-1.8551 1.3645-3.6028 2.0171-5.2431.6724-1.6403 1.325-3.1928 1.9578-4.6574.6526-1.4841 1.325-2.9291 2.0172-4.3351h4.4201c.672 1.406 1.3344 2.851 1.9871 4.3351.6527 1.4646 1.3054 3.0171 1.9581 4.6574.672 1.6403 1.3542 3.388 2.0466 5.2431.6925 1.8552 1.4241 3.8763 2.1954 6.0634zm-5.5468-15.7002c-.0988.2929-.2475.6932-.445 1.2009-.1981.5077-.4251 1.0936-.6822 1.7575-.2572.6639-.544 1.3962-.8604 2.1969-.2966.8006-.6032 1.6403-.9196 2.519h5.8438c-.3162-.8787-.6227-1.7184-.9195-2.519-.2968-.8007-.5835-1.533-.8604-2.1969-.2571-.6639-.4842-1.2498-.6822-1.7575-.1976-.5077-.3559-.908-.4745-1.2009z"/><path d="m82.5892 34.291c.3559.6444.7612 1.4451 1.2158 2.4019.475.9373.9592 1.9625 1.4535 3.0756.5142 1.0935 1.0188 2.2164 1.5132 3.3686.4943 1.1521.9591 2.2359 1.3939 3.2513.4353-1.0154.9002-2.0992 1.3945-3.2513.4944-1.1522.9887-2.2751 1.4831-3.3686.5142-1.1131.9989-2.1383 1.4535-3.0756.4745-.9568.8899-1.7575 1.2458-2.4019h4.2125c.1975 1.3474.3757 2.8608.5341 4.5402.1776 1.6599.3258 3.3978.4444 5.2139.1385 1.7965.2571 3.6028.3564 5.4189.1186 1.8161.2174 3.5247.2963 5.126h-4.5088c-.059-1.9723-.1385-4.1203-.2372-6.4441-.0988-2.3238-.2475-4.6671-.445-7.03-.3558.8202-.7514 1.7282-1.1868 2.7241-.4347.996-.87 1.9918-1.3048 2.9877-.4155.996-.8207 1.9528-1.2163 2.8706-.3956.8983-.7316 1.6696-1.0086 2.3141h-3.2334c-.277-.6445-.613-1.4158-1.0086-2.3141-.3956-.9178-.811-1.8746-1.2458-2.8706-.4154-.9959-.8405-1.9917-1.2753-2.9877-.4353-.9959-.8309-1.9039-1.1868-2.7241-.1975 2.3629-.3462 4.7062-.445 7.03-.0987 2.3238-.1782 4.4718-.2372 6.4441h-4.5088c.0789-1.6013.168-3.3099.2668-5.126.1186-1.8161.2372-3.6224.3559-5.4189.1384-1.8161.2866-3.554.4449-5.2139.1783-1.6794.3661-3.1928.5636-4.5402z"/><path d="m117.487 50.665v3.925h-13.734v-20.299h4.628v16.374z"/><path d="m127.32 54.8536c-1.127 0-2.255-.0391-3.382-.1172-1.107-.0586-2.264-.2148-3.47-.4686v-19.6839c.949-.1758 1.987-.3027 3.114-.3808 1.128-.0977 2.176-.1465 3.145-.1465 1.305 0 2.502.0977 3.589.293 1.108.1757 2.057.4882 2.848.9373s1.404 1.0447 1.839 1.7868c.455.7225.682 1.6208.682 2.6948 0 1.6208-.79 2.8998-2.373 3.8371 1.306.4882 2.196 1.1522 2.67 1.9919.475.8397.712 1.7868.712 2.8413 0 2.1285-.791 3.7297-2.373 4.8037-1.563 1.074-3.896 1.6111-7.001 1.6111zm-2.343-9.1096v5.2431c.336.0391.702.0683 1.097.0879.396.0195.831.0293 1.305.0293 1.385 0 2.502-.1953 3.352-.5859.851-.3905 1.276-1.113 1.276-2.1676 0-.9373-.356-1.6012-1.068-1.9917-.712-.4101-1.73-.6151-3.055-.6151zm0-3.4858h2.254c1.424 0 2.443-.1757 3.056-.5272.612-.371.919-.9569.919-1.7575 0-.8201-.316-1.3962-.949-1.7282s-1.563-.4979-2.788-.4979c-.396 0-.821.0097-1.276.0292-.455 0-.86.0196-1.216.0586z"/><path d="m154.696 46.8571c0 1.2107-.178 2.3238-.534 3.3393-.356.9959-.87 1.8551-1.542 2.5776-.673.703-1.483 1.2498-2.433 1.6403-.929.3906-1.977.5859-3.144.5859-1.147 0-2.195-.1953-3.144-.5859-.93-.3905-1.731-.9373-2.403-1.6403-.673-.7225-1.196-1.5817-1.572-2.5776-.376-1.0155-.564-2.1286-.564-3.3393s.188-2.314.564-3.3099c.395-.9959.929-1.8454 1.602-2.5484.691-.7029 1.502-1.2497 2.432-1.6403.949-.3905 1.977-.5858 3.085-.5858 1.127 0 2.155.1953 3.085.5858.949.3906 1.76.9374 2.432 1.6403.673.703 1.197 1.5525 1.572 2.5484.376.9959.564 2.0992.564 3.3099zm-4.509 0c0-1.3474-.277-2.4019-.83-3.1634-.534-.7812-1.306-1.1717-2.314-1.1717-1.009 0-1.79.3905-2.344 1.1717-.553.7615-.83 1.816-.83 3.1634s.277 2.4214.83 3.2221c.554.7811 1.335 1.1716 2.344 1.1716 1.008 0 1.78-.3905 2.314-1.1716.553-.8007.83-1.8747.83-3.2221z"/><path d="m157.972 35.3455 4.42-.7029v4.5401h5.309v3.6322h-5.309v5.4189c0 .9178.158 1.6501.474 2.1969.337.5467.999.8201 1.988.8201.474 0 .959-.0391 1.453-.1172.514-.0976.979-.2245 1.394-.3807l.623 3.3978c-.534.2148-1.127.4003-1.78.5565-.652.1562-1.453.2343-2.402.2343-1.207 0-2.205-.1562-2.996-.4686-.791-.332-1.424-.7811-1.899-1.3474-.474-.5859-.811-1.2888-1.008-2.109-.179-.8202-.267-1.7282-.267-2.7241z"/></g></svg>