<svg fill="none" height="80" viewBox="0 0 180 80" width="180" xmlns="http://www.w3.org/2000/svg"><path d="m76.752 55h-55.2499c-1.9354 0-3.5021-1.5632-3.5021-3.4942v-23.0115c0-1.9311 1.5667-3.4943 3.5021-3.4943h55.2499z" fill="#ececf1"/><path d="m35.9482 43.1953c0 1.1379-.1613 2.046-.4723 2.7241-.3111.6782-.7258 1.1954-1.2211 1.5402-.4954.3564-1.0484.5863-1.6589.7012-.6106.1149-1.2096.1724-1.7971.1724h-5.8407v-16.5402h6.4282c.8294 0 1.4976.1379 2.0275.4138.5299.2758.9446.6322 1.2557 1.0805.311.4482.5184.9425.6336 1.4827s.1613 1.0805.1497 1.5977c-.023 1.5057-.4031 2.5288-1.1404 3.069.4838.2299.8755.6437 1.1865 1.2414.2995.6092.4493 1.4483.4493 2.5172zm-3.5942-6.7701c0-.5173-.0576-.9081-.1844-1.1609-.1267-.2529-.3686-.3793-.7372-.3793h-3.3293v3.2988h3.0297c.4724 0 .7834-.1609.9562-.4713.1728-.3218.265-.7586.265-1.2873zm.4377 6.7931c0-.4598-.0345-.8276-.1152-1.0919-.0691-.2644-.1728-.4828-.288-.6323-.1152-.1494-.2419-.2528-.3917-.2988-.1382-.046-.2764-.069-.4147-.069h-3.479v3.9656h3.2141c.5529 0 .9446-.1494 1.152-.4368.2188-.2989.3225-.7701.3225-1.4368zm15.7594 5.1149h-10.5293v-16.5402h10.345v3.2069h-7.2116v3.0459h6.6356v3.207h-6.6356v3.8505h7.3959zm12.1881-4.885c0 3.4827-1.8777 5.2299-5.6332 5.2299-1.8202 0-3.2141-.5173-4.1703-1.5403-.9561-1.0345-1.4285-2.6207-1.4285-4.7701h3.0528c.0231.4713.0807.9196.1613 1.3103.0807.4024.2304.7357.4378 1.0231.2073.2873.4723.5057.8064.6666s.7603.2414 1.2787.2414c.8525 0 1.463-.1609 1.8432-.4713.3802-.3103.576-.931.576-1.8276 0-.4712-.0806-.8161-.2304-1.023-.1498-.2068-.3917-.3678-.7142-.4942-.3687-.138-.818-.2414-1.3364-.3218-.5184-.0805-1.1174-.2069-1.7856-.3909-.5184-.1494-1.0022-.3218-1.44-.5172-.4377-.1954-.8294-.4597-1.1635-.8161-.3341-.3563-.5875-.8161-.7718-1.3793s-.2765-1.3104-.2765-2.2299c0-.6781.0806-1.2643.2534-1.7586.1613-.4943.3917-.9195.6682-1.2644.2765-.3448.599-.6206.9562-.839.3686-.2184.7372-.3793 1.1174-.4943s.7603-.1954 1.1405-.2299c.3801-.0345.7373-.0575 1.0483-.0575 1.0829 0 1.9699.1724 2.6381.5058.6797.3333 1.1981.7816 1.5782 1.3103.3802.5403.6336 1.1494.7603 1.8161.1268.6782.1959 1.3449.1959 2h-2.9952c-.0461-.2758-.0807-.5862-.1152-.9195-.0231-.3333-.1037-.6322-.2189-.8736-.1037-.2184-.2765-.4138-.5414-.5862-.265-.1724-.6797-.2644-1.2442-.2644-.4378 0-.8064.0346-1.0944.115s-.5069.1954-.6682.3448c-.1612.1495-.2764.3563-.334.5977s-.0922.5403-.0922.8736c0 .4023.0922.6896.265.862.1728.1725.5068.3219.9907.4483.5069.138 1.0137.2529 1.5321.3448.5184.092 1.0138.207 1.4976.3334.4839.1264.9332.2988 1.3479.5172s.7833.5058 1.0944.8851c.311.3793.5645.8621.7373 1.4483.1958.5862.2764 1.3218.2764 2.1954zm11.4395-8.4598h-3.7902v13.3448h-3.1449v-13.3448h-3.7901v-3.1954h10.7135v3.1954z" fill="#030217"/><path d="m92.4998 42.2531c-.0688.862-.2187 1.6781-.4491 2.4598-.2304.7816-.5648 1.4597-1.0021 2.0344-.4379.5862-1.0139 1.046-1.7168 1.3909-.7024.3448-1.5552.5172-2.5573.5172-1.152 0-2.1312-.1954-2.9376-.5862s-1.4518-.9655-1.9584-1.7012c-.4955-.7471-.864-1.6666-1.0827-2.7586-.2304-1.092-.3456-2.3333-.3456-3.7356 0-1.2874.1264-2.4598.3685-3.4943.2416-1.0345.6219-1.9195 1.1403-2.6552.5184-.7241 1.1749-1.2873 1.9584-1.6781.7952-.3908 1.7397-.5862 2.8341-.5862 1.1056 0 2.0043.1724 2.7072.5172.7024.3449 1.2555.7931 1.6816 1.3448.415.5518.7147 1.184.8987 1.8851.1845.7012.3109 1.4138.392 2.115h-2.9723c-.0693-.3679-.1498-.7242-.2421-1.0575-.0805-.3333-.2187-.6322-.3915-.8736s-.4149-.4368-.7141-.5862c-.2997-.1494-.7029-.2184-1.2096-.2184-.6107 0-1.1291.1034-1.544.2989-.4144.1954-.76.5172-1.0139.9655-.2533.4483-.4373 1.0345-.5525 1.7586-.1152.7242-.1616 1.6207-.1616 2.6896 0 1.0805.0805 1.9426.2304 2.6207.1499.6667.3685 1.1955.6453 1.5633.2763.3793.6107.6321 1.0139.7701.4032.1379.8405.2069 1.336.2069.5072 0 .8987-.0805 1.1984-.2299.2992-.1494.5296-.3678.7024-.6551.1728-.2874.3109-.6208.4032-1.0115.104-.3909.1957-.8277.2997-1.3219h3.0411zm12.6142 6.0805h-3.133v-7.138h-4.7233v7.138h-3.1334v-16.5403h3.1334v6.1724h4.7233v-6.1724h3.133zm13.214 0h-3.284l-.864-3.4139h-4.17l-.852 3.4139h-3.168l4.539-16.5403h3.11zm-4.931-6.4943-1.29-5.3219-1.325 5.3219zm14.135 6.4943-4.792-10.069v10.069h-3.134v-16.5403h3.076l4.827 10v-10h3.111v16.5403zm17.223 0h-2.546v-1.6782c-.184.4023-.415.7241-.692.977-.276.2529-.576.4483-.898.5977s-.668.2414-1.014.2988c-.345.0575-.691.0805-1.025.0805-1.152 0-2.12-.2184-2.891-.6666-.773-.4483-1.395-1.0575-1.867-1.8392-.472-.7815-.806-1.7126-1.002-2.7815-.196-1.069-.299-2.2184-.299-3.4483 0-5.6092 2.107-8.4138 6.336-8.4138 1.048 0 1.923.1724 2.649.5057.726.3334 1.313.7931 1.762 1.3449.45.5632.773 1.2068.968 1.9195.196.7242.3 1.4713.3 2.2299h-3.203c0-.3334-.023-.6782-.069-1.0345s-.15-.6667-.311-.9425c-.161-.2759-.415-.5058-.749-.6782s-.783-.2644-1.359-.2644-1.072.092-1.463.2874c-.403.1954-.726.4942-.979.9081-.254.4138-.438.9539-.553 1.6091-.116.6552-.173 1.4483-.173 2.3679 0 1.0115.046 1.885.15 2.6091.103.7242.276 1.3104.529 1.7472.254.4483.588.7701 1.003.977.414.2069.945.3103 1.589.3103.369 0 .715-.0574 1.049-.1724.334-.1149.622-.2988.864-.5402s.438-.5632.576-.9425.196-.8391.184-1.3794h-2.949v-3.0459h6.106v9.0575zm12.476 0h-10.507v-16.5403h10.322v3.2069h-7.188v3.046h6.612v3.2069h-6.612v3.8506h7.373z" fill="#ececf1"/></svg>