<?xml version="1.0" encoding="UTF-8"?> <svg xmlns="http://www.w3.org/2000/svg" width="180" height="81" viewBox="0 0 180 81" fill="none"><path d="M30.5187 55.9291L38.0352 51.2491V41.6926C38.0352 41.5061 38.0021 41.3271 37.9461 41.1559L30.3531 45.8828C30.4601 46.1365 30.5187 46.4132 30.5187 46.6987V55.9291Z" fill="#ECECF1"></path><path d="M28.8626 24.6442L21.3461 29.3241V38.8806C21.3461 39.0672 21.3792 39.2461 21.4353 39.4174L29.0282 34.6905C28.9212 34.4367 28.8626 34.1601 28.8626 33.8746V24.6442Z" fill="#ECECF1"></path><path d="M29.282 35.1296L21.6648 39.873C21.7935 40.0532 21.9591 40.2105 22.1553 40.3336L29.5317 44.926C29.7559 45.0656 29.947 45.2419 30.0999 45.445L37.7183 40.7028C37.5897 40.5227 37.424 40.3653 37.2278 40.2422L29.8515 35.6499C29.626 35.509 29.4362 35.3326 29.282 35.1296Z" fill="#ECECF1"></path><path d="M28.863 55.9292V47.4487L22.0765 51.7047L28.863 55.9292Z" fill="#ECECF1"></path><path d="M57.4687 39.906C57.6076 39.7804 57.7299 39.642 57.8382 39.4898C57.9719 39.2994 58.0636 39.0888 58.121 38.8629C58.1834 38.6205 58.214 38.368 58.214 38.1142C58.214 37.7031 58.1465 37.3249 58.0139 36.9899C57.879 36.6523 57.6802 36.3504 57.4241 36.0953C57.098 35.7704 56.7069 35.5243 56.2635 35.3619C55.8291 35.2032 55.3666 35.1219 54.8889 35.1219H49.6464C49.4604 35.1219 49.3088 35.273 49.3088 35.4583V45.563C49.3088 45.7483 49.4604 45.8993 49.6464 45.8993H55.0915C55.6163 45.8993 56.1094 45.8092 56.5591 45.6316C57.0063 45.4551 57.4088 45.2026 57.7528 44.8841C58.0777 44.5847 58.335 44.2243 58.5172 43.8131C58.6981 43.4019 58.7898 42.9489 58.7898 42.468C58.7898 41.7612 58.5987 41.1356 58.2166 40.6014C58.0051 40.3235 57.7541 40.09 57.4687 39.906ZM55.1131 43.6812H51.774V41.2574H55.1985C55.3768 41.2574 55.545 41.2942 55.7119 41.3716C55.8826 41.4503 56.024 41.5506 56.1336 41.6686C56.2967 41.8564 56.3756 42.1127 56.3756 42.4527C56.3756 42.6266 56.3476 42.7916 56.2941 42.9413C56.2419 43.0834 56.173 43.1964 56.0915 43.2788C55.9616 43.3994 55.8087 43.4984 55.6355 43.5733C55.4647 43.6456 55.2953 43.6812 55.1131 43.6812ZM55.5768 38.7944C55.5131 38.8667 55.4354 38.925 55.3411 38.9746C55.2584 39.0177 55.1666 39.038 55.0609 39.038H51.774V37.3414H54.792C55.1169 37.3414 55.3653 37.4239 55.5526 37.5952C55.7081 37.7348 55.7832 37.9314 55.7832 38.198C55.782 38.4365 55.7132 38.6332 55.5768 38.7944Z" fill="#ECECF1"></path><path d="M63.2798 35.1232H61.4898C61.3025 35.1232 61.1522 35.2741 61.1522 35.4594V45.5641C61.1522 45.7494 61.3038 45.9005 61.4898 45.9005H69.1439C69.3312 45.9005 69.4815 45.7494 69.4815 45.5641V43.9678C69.4815 43.7826 69.3299 43.6315 69.1439 43.6315H63.6174V35.4594C63.6174 35.2729 63.4658 35.1232 63.2798 35.1232Z" fill="#ECECF1"></path><path d="M79.9684 36.4112C79.4651 35.9099 78.8612 35.5166 78.1721 35.2413C77.4866 34.9684 76.7184 34.8301 75.8903 34.8301C75.0355 34.8301 74.2418 34.9836 73.5335 35.2869C72.8226 35.5902 72.2073 36.0166 71.7053 36.5521C71.2262 37.052 70.8505 37.6383 70.588 38.2931C70.3255 38.9479 70.1918 39.6585 70.1918 40.4059C70.1918 41.1203 70.3281 41.8144 70.5969 42.4705C70.8658 43.124 71.2313 43.7014 71.6861 44.1887C72.1881 44.7242 72.8047 45.1607 73.5168 45.4868C74.2342 45.8142 75.0329 45.9805 75.8903 45.9805C76.7426 45.9805 77.5262 45.8333 78.2204 45.5414C78.9122 45.2495 79.5238 44.8358 80.0384 44.313C80.5301 43.8118 80.9124 43.2217 81.1761 42.5594C81.4386 41.8995 81.5723 41.1749 81.5723 40.4059C81.5723 39.6356 81.4335 38.9022 81.1583 38.2246C80.883 37.5457 80.4843 36.9365 79.9684 36.4112ZM79.1071 40.4046C79.1071 40.878 79.0295 41.3157 78.8753 41.7028C78.7212 42.0911 78.5097 42.4312 78.2459 42.7142C77.9504 43.0289 77.5961 43.2763 77.1936 43.4476C76.3783 43.7965 75.368 43.7915 74.573 43.44C74.1717 43.2636 73.8239 43.0149 73.536 42.6976C73.271 42.4134 73.0557 42.072 72.8952 41.6825C72.7372 41.2967 72.657 40.8666 72.657 40.4034C72.657 39.9301 72.7372 39.4935 72.8952 39.1077C73.0545 38.7182 73.271 38.3756 73.5347 38.0926C73.8303 37.7779 74.1832 37.5317 74.5857 37.3592C74.9897 37.1866 75.4278 37.099 75.8891 37.099C76.3388 37.099 76.7719 37.1866 77.1758 37.3592C77.5796 37.533 77.9351 37.7753 78.2306 38.0799C78.4944 38.3528 78.7084 38.689 78.8663 39.0811C79.0269 39.4757 79.1071 39.9211 79.1071 40.4046Z" fill="#ECECF1"></path><path d="M86.3562 38.1268C86.6518 37.8312 86.997 37.6028 87.3843 37.4454C88.2456 37.094 89.3424 37.1472 90.1489 37.4924C90.4954 37.6408 91.2305 38.1992 91.5527 38.4505C91.6432 38.5202 91.7693 38.5075 91.8458 38.4225L93.0739 37.047C93.1568 36.9544 93.1466 36.8135 93.0484 36.7361C92.6281 36.4061 91.5655 35.5927 91.0317 35.3681C90.3502 35.0826 89.5501 34.938 88.6507 34.938C87.8226 34.938 87.0506 35.0801 86.3587 35.358C85.6657 35.6384 85.0593 36.0343 84.5535 36.5381C84.0516 37.0508 83.6553 37.6472 83.3764 38.3109C83.0948 38.9783 82.9521 39.7131 82.9521 40.496C82.9521 41.2904 83.0948 42.034 83.3751 42.7053C83.6553 43.3791 84.0656 43.9806 84.5917 44.492C85.1052 44.9919 85.7103 45.3866 86.3906 45.6658C87.071 45.945 87.8314 46.0871 88.6494 46.0871C89.545 46.0871 90.3451 45.9475 91.0266 45.6708C91.5668 45.4514 92.6318 44.6049 93.0472 44.2661C93.1427 44.1887 93.1517 44.0491 93.0688 43.9565L91.8445 42.6025C91.7693 42.5187 91.6446 42.5061 91.5541 42.5746C91.2318 42.8207 90.4942 43.3714 90.145 43.5238C89.3399 43.8778 88.2583 43.94 87.364 43.5567C86.9588 43.3829 86.6046 43.1393 86.304 42.8297C86.0416 42.5682 85.8263 42.2371 85.6631 41.8437C85.5001 41.4515 85.4173 41.001 85.4173 40.5036C85.4173 40.0303 85.5027 39.5824 85.6721 39.1725C85.8415 38.7614 86.0722 38.4098 86.3562 38.1268Z" fill="#ECECF1"></path><path d="M104.96 35.1232H102.609C102.449 35.1232 102.3 35.2006 102.207 35.3288L99.5753 39.0227H97.9675V35.4594C97.9675 35.2741 97.8159 35.1232 97.6299 35.1232H95.8399C95.6539 35.1232 95.5023 35.2741 95.5023 35.4594V45.5641C95.5023 45.7494 95.6539 45.9005 95.8399 45.9005H97.6299C97.8159 45.9005 97.9675 45.7494 97.9675 45.5641V41.2916H99.602L102.489 45.6784C102.579 45.8167 102.735 45.8992 102.9 45.8992H105.199C105.327 45.8992 105.405 45.757 105.335 45.6492L101.699 40.0962L105.093 35.3769C105.169 35.2716 105.093 35.1232 104.96 35.1232Z" fill="#ECECF1"></path><path d="M109.751 38.1268C110.046 37.8312 110.393 37.6015 110.778 37.4454C111.64 37.0952 112.737 37.1472 113.543 37.4924C113.89 37.6408 114.625 38.1992 114.947 38.4505C115.038 38.5202 115.164 38.5075 115.241 38.4225L116.469 37.047C116.551 36.9544 116.541 36.8135 116.443 36.7361C116.023 36.4061 114.96 35.5915 114.426 35.3681C113.744 35.0826 112.944 34.938 112.045 34.938C111.217 34.938 110.445 35.0801 109.753 35.358C109.06 35.6384 108.454 36.0343 107.948 36.5381C107.446 37.0495 107.05 37.6459 106.771 38.3109C106.489 38.9783 106.347 39.7143 106.347 40.496C106.347 41.2891 106.489 42.0327 106.769 42.7053C107.051 43.3791 107.46 43.9806 107.986 44.492C108.5 44.9919 109.103 45.3866 109.784 45.6658C110.465 45.945 111.226 46.0871 112.044 46.0871C112.94 46.0871 113.74 45.9475 114.421 45.6708C114.961 45.4514 116.026 44.6049 116.443 44.2661C116.538 44.1887 116.547 44.0491 116.464 43.9565L115.241 42.6025C115.165 42.5187 115.039 42.5061 114.95 42.5746C114.627 42.8207 113.888 43.3714 113.54 43.5238C112.734 43.8778 111.653 43.9387 110.76 43.5567C110.356 43.3829 110 43.1393 109.7 42.8297C109.438 42.5695 109.222 42.2371 109.059 41.8437C108.896 41.4503 108.813 40.9998 108.813 40.5036C108.813 40.029 108.898 39.5811 109.068 39.1725C109.237 38.7614 109.466 38.4098 109.751 38.1268Z" fill="#ECECF1"></path><path d="M125.884 38.9161H121.196V35.3529C121.196 35.1676 121.045 35.0166 120.858 35.0166H119.069C118.883 35.0166 118.731 35.1676 118.731 35.3529V45.4576C118.731 45.6429 118.883 45.7939 119.069 45.7939H120.858C121.045 45.7939 121.196 45.6429 121.196 45.4576V41.185H125.884V45.4576C125.884 45.6429 126.035 45.7939 126.221 45.7939H128.009C128.197 45.7939 128.347 45.6429 128.347 45.4576V35.3529C128.347 35.1676 128.196 35.0166 128.009 35.0166H126.221C126.035 35.0166 125.884 35.1676 125.884 35.3529V38.9161Z" fill="#ECECF1"></path><path d="M134.794 35.4138L130.229 45.6733C130.181 45.7799 130.259 45.9005 130.378 45.9005H132.436C132.63 45.9005 132.806 45.7875 132.885 45.6099L133.586 44.0427H138.587L139.305 45.6137C139.384 45.7888 139.56 45.9005 139.752 45.9005H141.845C141.962 45.9005 142.041 45.7799 141.994 45.6733L137.428 35.4138C137.349 35.2374 137.173 35.1232 136.978 35.1232H135.244C135.049 35.1219 134.874 35.2361 134.794 35.4138ZM137.636 41.7738H134.546L136.07 37.9098L137.636 41.7738Z" fill="#ECECF1"></path><path d="M144.217 45.9005H145.972C146.16 45.9005 146.31 45.7494 146.31 45.5641V35.4594C146.31 35.2741 146.158 35.1232 145.972 35.1232H144.217C144.031 35.1232 143.879 35.2741 143.879 35.4594V45.5641C143.879 45.7494 144.031 45.9005 144.217 45.9005Z" fill="#ECECF1"></path><path d="M157.024 42.5899C157.211 42.4897 157.385 42.3754 157.541 42.2511C157.786 42.0557 158.009 41.8336 158.204 41.59C158.733 40.9149 159 40.099 159 39.1625C159 38.58 158.89 38.0407 158.675 37.561C158.461 37.0876 158.168 36.6626 157.799 36.2959C157.407 35.919 156.952 35.6258 156.447 35.4253C155.942 35.2261 155.397 35.1246 154.827 35.1246H149.822C149.635 35.1246 149.484 35.2756 149.484 35.4609V45.5656C149.484 45.7509 149.636 45.9019 149.822 45.9019H151.61C151.796 45.9019 151.948 45.7509 151.948 45.5656V43.1508H154.564L156.07 45.6646C156.158 45.813 156.318 45.9031 156.491 45.9031H158.836C158.929 45.9031 158.985 45.8029 158.937 45.7243L157.024 42.5899ZM151.949 37.4265H154.78C155.05 37.4265 155.307 37.4798 155.543 37.5838C155.774 37.6879 155.955 37.8236 156.112 38.0191C156.397 38.3211 156.535 38.6968 156.535 39.1701C156.535 39.3908 156.495 39.6104 156.419 39.8211C156.343 40.0304 156.23 40.2106 156.065 40.387C155.939 40.5393 155.774 40.656 155.567 40.7449C155.352 40.835 155.117 40.8794 154.866 40.8794H151.949V37.4265Z" fill="#ECECF1"></path></svg> 