<svg clip-rule="evenodd" fill-rule="evenodd" image-rendering="optimizeQuality" shape-rendering="geometricPrecision" text-rendering="geometricPrecision" viewBox="0 0 512 512" xmlns="http://www.w3.org/2000/svg"><g fill-rule="nonzero"><path d="m256 0c70.68 0 134.69 28.66 181.01 74.99 46.33 46.32 74.99 110.33 74.99 181.01s-28.66 134.69-74.99 181.01c-46.32 46.33-110.33 74.99-181.01 74.99s-134.69-28.66-181.01-74.99c-46.33-46.32-74.99-110.33-74.99-181.01s28.66-134.69 74.99-181.01c46.32-46.33 110.33-74.99 181.01-74.99z" fill="#999"/><path d="m256 19.48c65.29 0 124.46 26.48 167.25 69.27l1.09 1.18c42.14 42.72 68.17 101.37 68.17 166.06 0 65.31-26.49 124.46-69.28 167.25l-1.19 1.09c-42.72 42.16-101.4 68.19-166.04 68.19-65.23 0-124.38-26.51-167.18-69.33-42.84-42.74-69.34-101.89-69.34-167.2s26.48-124.45 69.27-167.24 101.94-69.27 167.25-69.27z" fill="#fff"/><path d="m256 39.59c39.48 0 76.49 10.58 108.37 29.04h-216.74c31.88-18.46 68.89-29.04 108.37-29.04zm155.84 66.28c9.16 9.48 17.42 19.82 24.72 30.85h-361.13c7.29-11.09 15.59-21.46 24.72-30.85zm44.41 67.97c4.1 9.97 7.46 20.28 10.04 30.92h-420.58c2.61-10.62 6.03-20.9 10.04-30.92zm15.68 68.08c.3 4.68.47 9.37.47 14.07 0 5.67-.22 11.3-.65 16.85h-431.5c-.42-5.59-.65-11.26-.65-16.85 0-4.73.17-9.42.47-14.07zm-6.32 68.06a212.979 212.979 0 0 1 -10.52 30.94h-398.18c-4.25-10.02-7.83-20.39-10.52-30.94zm-30.9 68.06c-7.63 11.14-16.25 21.56-25.78 31.07h-305.86c-9.5-9.51-18.15-19.93-25.78-31.07zm-75.27 68.08c-30.86 16.77-66.16 26.29-103.44 26.29-37.47 0-72.72-9.53-103.44-26.29z" fill="#b22234"/><path d="m268.16 39.94v234.41h-227.77c-.53-6.07-.79-12.16-.79-18.36 0-119.51 96.88-216.4 216.4-216.4 4.08 0 8.14.13 12.16.35z" fill="#3c3b6e"/><path d="m50.81 187.06.98 3.06-1.6-1.18zm189.29 49.91 8.01 24.66-20.96-15.25h25.89l-20.97 15.25zm0-47.66 8.01 24.62-20.96-15.22h25.89l-20.97 15.22zm0-47.69 8.01 24.65-20.96-15.26h25.89l-20.97 15.26zm0-47.66 8.01 24.62-20.96-15.23h25.89l-20.97 15.23zm0-47.67 8.01 24.63-20.96-15.24h25.89l-20.97 15.24zm-28.08 166.85 8.03 24.64-20.98-15.25h25.89l-20.86 15.25zm0-47.67 8.03 24.65-20.98-15.26h25.89l-20.86 15.26zm0-47.66 8.03 24.62-20.98-15.23h25.89l-20.86 15.23zm0-47.7 8.03 24.65-20.98-15.25h25.89l-20.86 15.25zm-27.97 166.86 8.03 24.66-20.98-15.25h25.91l-20.97 15.25zm0-47.66 8.03 24.62-20.98-15.22h25.91l-20.97 15.22zm0-47.69 8.03 24.65-20.98-15.26h25.91l-20.97 15.26zm0-47.66 8.03 24.62-20.98-15.23h25.91l-20.97 15.23zm1.64-42.68 6.39 19.64-19.93-14.48 1.86-.76h23l-20.97 15.24 5.97-18.34zm-29.71 161.86 8.01 24.64-20.97-15.25h25.91l-20.98 15.25zm0-47.67 8.01 24.65-20.97-15.26h25.91l-20.98 15.26zm0-47.66 8.01 24.62-20.97-15.23h25.91l-20.98 15.23zm0-47.7 8.01 24.65-20.97-15.25h25.91l-20.98 15.25zm-27.97 166.86 7.92 24.66-20.86-15.25h25.89l-20.98 15.25zm0-47.66 7.92 24.62-20.86-15.22h25.89l-20.98 15.22zm0-47.69 7.92 24.65-20.86-15.26h25.89l-20.98 15.26zm0-47.66 7.92 24.62-20.86-15.23h25.89l-20.98 15.23zm-28.08 119.18 8.03 24.64-20.97-15.25h25.9l-20.97 15.25zm0-47.67 8.03 24.65-20.97-15.26h25.9l-20.97 15.26zm0-47.66 8.03 24.62-20.97-15.23h25.9l-20.97 15.23zm-28.06 119.16 8.01 24.66-20.98-15.25h26.02l-21.08 15.25zm0-47.66 8.01 24.62-20.98-15.22h26.02l-21.08 15.22zm.14-47.26 7.87 24.22-15.36-11.17 2.2-4.09h18.2l-21.08 15.26 7.6-23.32zm-28.11 71.09 7.89 24.64-10.63-7.77-.47 4.27 16.15-11.75h-14.68c.48-3.02 1.02-6.02 1.62-8.99zm11.44-38.28h1.5l-2.14 1.57z" fill="#fff"/></g></svg>