<svg fill="none" height="79" viewBox="0 0 79 79" width="79" xmlns="http://www.w3.org/2000/svg" xmlns:xlink="http://www.w3.org/1999/xlink"><filter id="a" color-interpolation-filters="sRGB" height="85" width="85" x="-3" y="-3"><feFlood flood-opacity="0" result="BackgroundImageFix"/><feBlend in="SourceGraphic" in2="BackgroundImageFix" mode="normal" result="shape"/><feGaussianBlur result="effect1_foregroundBlur_203_80" stdDeviation="15"/></filter><clipPath id="b"><path d="m0 0h79v79h-79z"/></clipPath><mask id="c" height="79" maskUnits="userSpaceOnUse" width="79" x="0" y="0"><path d="m79 0h-79v79h79z" fill="#fff"/></mask><g clip-path="url(#b)"><g mask="url(#c)"><path d="m39.5 79c21.8152 0 39.5-17.6848 39.5-39.5s-17.6848-39.5-39.5-39.5-39.5 17.6848-39.5 39.5 17.6848 39.5 39.5 39.5z" fill="#fff" fill-opacity=".01"/><g filter="url(#a)"><circle cx="39.5" cy="39.5" fill="#fb7e50" r="12.5"/></g><path d="m79 39.5c0-21.8152-17.6848-39.5-39.5-39.5s-39.5 17.6848-39.5 39.5 17.6848 39.5 39.5 39.5 39.5-17.6848 39.5-39.5z" fill="#fff" fill-opacity=".06"/><path clip-rule="evenodd" d="m42.8223 25.4375c-.8285 0-1.5.6716-1.5 1.5v5.625h-6.8125c-.8285 0-1.5.6716-1.5 1.5v5.625h-6.8125c-.8285 0-1.5.6716-1.5 1.5v9.1875h-.875c-.8285 0-1.5.6716-1.5 1.5s.6715 1.5 1.5 1.5h2.375 8.3125 8.3125 8.3125 2.375c.8284 0 1.5-.6716 1.5-1.5s-.6716-1.5-1.5-1.5h-.875v-23.4375c0-.8284-.6716-1.5-1.5-1.5zm6.8125 24.9375v-21.9375h-5.3125v5.625 16.3125zm-8.3125 0v-14.8125h-5.3125v5.625 9.1875zm-13.625-7.6875h5.3125v7.6875h-5.3125z" fill="#fb7e50" fill-rule="evenodd"/></g></g></svg>