<svg xmlns="http://www.w3.org/2000/svg" version="1.1" xmlns:xlink="http://www.w3.org/1999/xlink" xmlns:svgjs="http://svgjs.com/svgjs" width="1000" height="1000"><svg width="1000" height="1000" xmlns="http://www.w3.org/2000/svg" stroke="null" style="vector-effect: non-scaling-stroke;" fill="none">

 <g stroke="null">
  <title stroke="null">Layer 1</title>
  <path stroke="null" id="SvgjsPath1000" fill="#1e1e87" d="m2737.96577,496.69437c-0.15518,-2.18645 -0.23277,-4.19497 -0.23277,-6.02557l0,-462.11697c0.19903,-9.76785 8.29871,-17.5833 18.22006,-17.58125l105.50161,0c10.06303,0 18.22006,8.03204 18.22006,17.93984l0,246.88099c37.12831,-19.34341 79.45849,-30.29722 124.38624,-30.29722c147.01879,0.16492 266.1593,117.46745 266.32797,262.22138c0,144.82237 -119.23834,262.22344 -266.32797,262.22344c-147.08963,0 -266.32797,-117.40107 -266.32797,-262.22344c0,-3.69199 0.07759,-7.36686 0.23277,-11.02121zm139.94802,11.0828c0,68.59431 56.47848,124.20336 126.14719,124.20336c69.62823,-0.09923 126.04936,-55.65011 126.15056,-124.20336c0,-68.59773 -56.47848,-124.20678 -126.15056,-124.20678c-69.66871,0 -126.14719,55.60905 -126.14719,124.20678zm-1180.12762,92.18333c-6.34885,-11.75687 -20.46004,-17.19049 -33.22521,-12.79706c-9.48617,3.85281 -16.50297,7.45241 -23.44555,11.01437l-0.00337,0c-10.30255,5.28649 -20.44317,10.49085 -38.25842,16.31454c-52.02214,16.84832 -109.14157,-1.27628 -141.38511,-44.85815c-32.24016,-43.58529 -32.24016,-102.67076 0,-146.25605c32.24354,-43.58187 89.36297,-61.70648 141.38511,-44.85815c17.55212,5.73815 27.65563,10.93567 37.803,16.15715c7.09439,3.6475 14.20902,7.3087 23.90434,11.17177c12.72132,4.4208 26.81564,-0.9307 33.22521,-12.61571c13.47698,-23.00049 27.81418,-47.53185 35.35724,-60.43703l4.24044,-7.25737c5.89006,-10.89803 3.37346,-24.35377 -6.07223,-32.47135c-45.10654,-36.07608 -100.93057,-56.69201 -159.00807,-58.72346l-8.9869,0c-147.1065,0 -266.35833,117.41407 -266.35833,262.25115c0,144.83948 119.25183,262.25081 266.35833,262.25081l9.35123,0c57.84136,-2.15565 113.40563,-22.74045 158.34012,-58.66118c9.44569,-8.11963 11.96229,-21.57366 6.07223,-32.47169c-3.52189,-6.30957 -16.02731,-27.78742 -29.48742,-50.90425l-0.01349,-0.02395l-0.02699,-0.0479l-9.76617,-16.77647zm331.34468,-359.6385l44.33739,0c6.35223,0.0982 11.42591,5.22934 11.35844,11.48143l0,117.0264c0,6.26166 -5.11754,11.35654 -11.47989,11.42497l-44.21595,0c-45.7981,0.26005 -82.85219,36.76931 -83.08496,81.86356l0,263.71871c0,9.90575 -8.15703,17.93984 -18.22006,17.93984l-105.86257,0c-9.92472,0 -18.0244,-7.8151 -18.22343,-17.58398l0,-263.83504c0.1012,-122.5394 100.93394,-221.87129 225.39103,-222.03587zm463.78,503.29408c-0.94457,0.2532 -1.92287,0.39007 -2.91804,0.40034l-105.07318,0c-124.59877,-0.09923 -225.54621,-99.5981 -225.51247,-222.27539l0,-263.83812c0.19903,-9.76751 8.29871,-17.58296 18.22006,-17.5809l105.6804,0c10.06303,0 18.22343,8.0317 18.22343,17.93984l0,263.71529c0.09783,45.33034 37.41168,82.04149 83.4493,82.1065l104.95173,0c1.03228,0.01027 2.03082,0.15398 2.97877,0.4106l0,-346.23238c0,-9.90814 8.15703,-17.93984 18.22006,-17.93984l105.6804,0c9.92472,-0.00205 18.0244,7.81339 18.22343,17.5809l0,557.2946c0.03036,122.68071 -100.9137,222.17616 -225.51585,222.27539l-44.33739,0c-3.06985,-0.0308 -6.00139,-1.26602 -8.14353,-3.43194c-2.14552,-2.16934 -3.32286,-5.08461 -3.27226,-8.10937l0,-116.96994c-0.00337,-6.25824 5.11754,-11.35312 11.47651,-11.42155l44.21595,0c46.03762,-0.06501 83.35147,-36.77616 83.45267,-82.10308l0,-71.82094zm1890.22422,-85.51106l-163.10682,-160.57576l163.10682,-160.57507l0.06747,-0.07117c7.08427,-7.06473 7.05053,-18.48696 -0.06747,-25.51235l-72.93422,-71.81307c-7.118,-6.99801 -18.58777,-6.99801 -25.70577,0l-163.24176,160.71741l-163.24176,-160.71741c-7.08427,-6.99801 -18.58777,-6.99801 -25.67204,0l-72.93422,71.81307c-7.15174,7.02538 -7.18547,18.44762 -0.1012,25.51235l0.1012,0.07117l163.07309,160.57507l-163.07309,160.57576l-0.1012,0.07186c-7.08427,7.06576 -7.05053,18.48731 0.1012,25.512l72.93422,71.8141c7.08427,6.99732 18.58777,6.99732 25.67204,0l163.24176,-160.71947l163.24176,160.71947c7.118,6.99732 18.58777,6.99732 25.70577,0l72.93422,-71.8141c7.118,-7.0247 7.15174,-18.44625 0.06747,-25.512l-0.06747,-0.07186zm-823.76536,-423.76102c147.11662,0 247.81442,113.08155 247.88189,257.37869c-0.16867,10.70984 -0.84337,21.40942 -2.09155,32.05082c-1.653,12.80048 -12.58301,22.47698 -25.67204,22.78493l-318.7583,0c14.10107,41.02245 49.55614,73.91159 99.11227,73.91159c13.42637,0.10265 26.78528,-1.91956 39.57069,-5.97767c17.81187,-5.82369 27.93225,-11.02806 38.25504,-16.31454c6.91559,-3.56196 13.93239,-7.16156 23.44555,-11.01437c12.65048,-4.05126 26.44793,1.44737 32.6551,13.03658c10.22159,17.38553 20.91546,35.72228 28.80935,49.20026l0.13494,0.23952c5.02646,8.60893 8.8722,15.2025 10.66014,18.25121c5.90356,10.89803 3.37346,24.35548 -6.07223,32.47169c-44.96823,35.85573 -100.52913,56.37893 -158.31651,58.48326l-9.61436,0c-146.67807,0 -252.05149,-117.68507 -252.05149,-262.2816c0,-144.59414 105.37342,-262.22036 252.05149,-262.22036zm-101.74357,212.34945l199.10165,0c-12.14446,-46.16523 -43.85499,-74.33245 -97.1894,-74.33245c-53.30068,0 -89.76779,28.22539 -101.91225,74.33245zm-2708.52795,-435.72285l-497.39889,0c-137.35281,0 -248.69928,110.85917 -248.69928,247.61083l0,489.71551c0,136.75064 111.34647,247.60946 248.69928,247.60946l497.39889,0c137.35382,0 248.69827,-110.85883 248.69827,-247.60946l0,-489.71551c0,-136.75166 -111.34444,-247.61083 -248.69827,-247.61083zm-153.24282,594.0232l0,-0.00342c6.94258,-3.56196 13.95938,-7.16156 23.44893,-11.01437c12.76518,-4.39343 26.87299,1.04361 33.22184,12.79706l9.73918,16.72514c13.4871,23.16474 26.02962,44.7076 29.55826,51.02743c5.88669,10.89803 3.37009,24.35548 -6.07223,32.47169c-44.9345,35.92074 -100.50214,56.50895 -158.34012,58.66461l-9.35461,0c-147.1065,0 -266.35732,-117.41476 -266.35732,-262.25423c0,-144.83605 119.25082,-262.25012 266.35732,-262.25012l8.99027,0c58.0775,2.03145 113.89815,22.64704 159.00807,58.72312c9.44232,8.11792 11.95892,21.57366 6.07223,32.47135l-4.21008,7.20297l-0.03711,0.06501l-0.05735,0.09889c-7.55993,12.93393 -21.85328,37.39479 -35.29652,60.32686c-6.4062,11.68502 -20.50389,17.03994 -33.22184,12.61913c-9.69533,-3.86649 -16.81333,-7.52426 -23.90772,-11.17519c-10.14737,-5.22148 -20.25088,-10.419 -37.79963,-16.15372c-52.02214,-16.84832 -109.14157,1.27286 -141.38511,44.85815c-32.24354,43.58187 -32.24354,102.66734 0,146.25263c32.24354,43.58187 89.36297,61.70648 141.38511,44.85815c17.81187,-5.82369 27.95587,-11.02806 38.25842,-16.31112zm152.42645,-101.66137c0,30.68558 -25.12553,55.56115 -56.12089,55.56115c-30.99536,0 -56.12089,-24.87557 -56.12089,-55.56115c0,-30.689 25.12553,-55.56457 56.12089,-55.56457c30.99536,0 56.12089,24.87557 56.12089,55.56457z" clip-rule="evenodd" fill-rule="evenodd"></path>
 </g>
</svg><style>@media (prefers-color-scheme: light) { :root { filter: none; } }
</style></svg>