<?xml version="1.0" encoding="UTF-8"?>
<!DOCTYPE svg PUBLIC "-//W3C//DTD SVG 1.1//EN" "http://www.w3.org/Graphics/SVG/1.1/DTD/svg11.dtd">
<svg xmlns="http://www.w3.org/2000/svg" version="1.1" width="1859px" height="448px" style="shape-rendering:geometricPrecision; text-rendering:geometricPrecision; image-rendering:optimizeQuality; fill-rule:evenodd; clip-rule:evenodd" xmlns:xlink="http://www.w3.org/1999/xlink">
<g><path style="opacity:0.993" fill="#ebebf0" d="M 116.5,7.5 C 193.851,7.03642 271.184,7.53642 348.5,9C 387.693,15.8667 415.526,37.3667 432,73.5C 435.429,82.2168 437.763,91.2168 439,100.5C 439.667,179.167 439.667,257.833 439,336.5C 431.596,381.81 406.096,411.644 362.5,426C 353.657,428.359 344.657,429.692 335.5,430C 262.833,430.667 190.167,430.667 117.5,430C 72.1586,426.76 39.9919,404.594 21,363.5C 17.7257,354.403 15.3924,345.07 14,335.5C 13.3333,258.167 13.3333,180.833 14,103.5C 19.4509,63.4057 40.2842,34.5724 76.5,17C 89.4456,11.5952 102.779,8.42853 116.5,7.5 Z M 220.5,107.5 C 253.582,104.364 282.749,113.364 308,134.5C 310.087,139.32 309.754,143.987 307,148.5C 301.209,158.586 295.042,168.419 288.5,178C 284.339,180.793 280.006,181.126 275.5,179C 265.111,173.093 254.111,168.76 242.5,166C 212.473,163.585 192.306,176.418 182,204.5C 176.108,234.883 187.275,256.383 215.5,269C 227.062,273.158 238.728,273.491 250.5,270C 259.185,267.158 267.519,263.491 275.5,259C 281.561,256.37 286.727,257.536 291,262.5C 296.414,272.331 302.081,281.998 308,291.5C 310,295.5 310,299.5 308,303.5C 272.139,332.003 232.639,338.17 189.5,322C 137.211,295.931 115.044,253.764 123,195.5C 133.926,153.802 159.76,125.969 200.5,112C 207.259,110.285 213.925,108.785 220.5,107.5 Z M 304.5,195.5 C 320.787,195.133 330.121,202.967 332.5,219C 328.741,238.214 317.408,245.214 298.5,240C 285.157,231.475 281.991,219.975 289,205.5C 293.205,200.492 298.372,197.159 304.5,195.5 Z"/></g>
<g><path style="opacity:0.986" fill="#ebebf0" d="M 1353.5,47.5 C 1370.83,47.5 1388.17,47.5 1405.5,47.5C 1405.67,111.501 1405.5,175.501 1405,239.5C 1398.41,283.42 1374.25,312.92 1332.5,328C 1280.03,340.632 1239.2,324.465 1210,279.5C 1193.48,247.65 1192.48,215.317 1207,182.5C 1234.62,134.165 1275.79,115.998 1330.5,128C 1338.09,130.214 1345.26,133.38 1352,137.5C 1352.17,107.428 1352.67,77.4283 1353.5,47.5 Z M 1294.5,176.5 C 1324.89,175.418 1344.06,189.418 1352,218.5C 1355.09,250.394 1341.25,270.561 1310.5,279C 1286.83,282.01 1268.66,273.51 1256,253.5C 1243.28,223.535 1250.44,199.702 1277.5,182C 1283.14,179.682 1288.8,177.849 1294.5,176.5 Z"/></g>
<g><path style="opacity:0.985" fill="#ebebf0" d="M 645.5,123.5 C 676.377,122.673 702.71,133.007 724.5,154.5C 712.5,167.167 700.167,179.5 687.5,191.5C 664.455,172.586 640.789,171.752 616.5,189C 597.144,209.199 593.977,231.699 607,256.5C 627.041,281.308 651.208,286.142 679.5,271C 682.28,269.188 684.78,267.021 687,264.5C 699.5,277 712,289.5 724.5,302C 694.539,330.24 659.539,338.907 619.5,328C 584.573,316.073 561.406,292.573 550,257.5C 538.381,204.992 555.214,164.492 600.5,136C 614.809,128.843 629.809,124.676 645.5,123.5 Z"/></g>
<g><path style="opacity:0.982" fill="#ebebf0" d="M 857.5,123.5 C 887.282,123.405 912.615,133.738 933.5,154.5C 921.5,167.167 909.167,179.5 896.5,191.5C 875.528,173.746 853.195,171.912 829.5,186C 818.216,194.395 811.382,205.562 809,219.5C 808.5,255.832 808.333,292.165 808.5,328.5C 790.833,328.5 773.167,328.5 755.5,328.5C 755.5,261.5 755.5,194.5 755.5,127.5C 772.837,127.333 790.17,127.5 807.5,128C 808.288,131.076 808.788,134.242 809,137.5C 824.085,128.633 840.252,123.966 857.5,123.5 Z"/></g>
<g><path style="opacity:0.985" fill="#ebebf0" d="M 1542.5,123.5 C 1585.81,124.562 1617.98,143.895 1639,181.5C 1650.19,205.381 1652.36,230.048 1645.5,255.5C 1597.84,256.333 1550.17,256.833 1502.5,257C 1517.36,277.311 1537.03,283.978 1561.5,277C 1569.37,274.453 1576.2,270.286 1582,264.5C 1594,276.5 1606,288.5 1618,300.5C 1618.67,301.5 1618.67,302.5 1618,303.5C 1584.86,332.665 1547.36,339.831 1505.5,325C 1456.11,300.729 1435.28,261.229 1443,206.5C 1453.82,163.679 1480.65,136.846 1523.5,126C 1529.98,125.138 1536.31,124.305 1542.5,123.5 Z M 1538.5,176.5 C 1561.26,175.043 1578.59,183.876 1590.5,203C 1560.49,203.833 1530.49,203.667 1500.5,202.5C 1509.16,187.847 1521.83,179.18 1538.5,176.5 Z"/></g>
<g><path style="opacity:0.99" fill="#ebebf0" d="M 953.5,127.5 C 970.833,127.5 988.167,127.5 1005.5,127.5C 1005.33,162.835 1005.5,198.168 1006,233.5C 1009.43,255.932 1021.93,270.765 1043.5,278C 1071.05,283.474 1091.55,273.974 1105,249.5C 1107.28,243.71 1108.61,237.71 1109,231.5C 1109.5,196.835 1109.67,162.168 1109.5,127.5C 1126.83,127.5 1144.17,127.5 1161.5,127.5C 1161.67,192.168 1161.5,256.834 1161,321.5C 1154.68,360.638 1133.52,388.472 1097.5,405C 1054.78,419.989 1016.78,412.322 983.5,382C 996,369.5 1008.5,357 1021,344.5C 1038.18,360.333 1057.68,363.833 1079.5,355C 1094.8,347.728 1103.96,335.894 1107,319.5C 1070.89,337.763 1035.39,336.596 1000.5,316C 974.517,298.214 959.017,273.714 954,242.5C 953.5,204.168 953.333,165.835 953.5,127.5 Z"/></g>
<g><path style="opacity:0.986" fill="#ebebf0" d="M 1858.5,127.5 C 1858.5,152.5 1858.5,177.5 1858.5,202.5C 1853.81,210.72 1849.47,219.22 1845.5,228C 1849.47,236.78 1853.81,245.28 1858.5,253.5C 1858.5,278.5 1858.5,303.5 1858.5,328.5C 1849.91,328.817 1841.41,328.483 1833,327.5C 1819.59,301.01 1805.92,274.676 1792,248.5C 1778.37,274.922 1764.87,301.422 1751.5,328C 1730.5,328.667 1709.5,328.667 1688.5,328C 1705.65,294.875 1722.65,261.708 1739.5,228.5C 1723.03,194.891 1706.03,161.558 1688.5,128.5C 1709.5,127.167 1730.5,127.167 1751.5,128.5C 1764.91,154.99 1778.58,181.324 1792.5,207.5C 1806.42,181.324 1820.09,154.99 1833.5,128.5C 1841.81,127.502 1850.14,127.169 1858.5,127.5 Z"/></g>
</svg>
