<svg clip-rule="evenodd" fill-rule="evenodd" height="448" image-rendering="optimizeQuality" shape-rendering="geometricPrecision" text-rendering="geometricPrecision" width="1859" xmlns="http://www.w3.org/2000/svg"><g fill="#ebebf0"><path d="m116.5 7.5c77.351-.46358 154.684.03642 232 1.5 39.193 6.8667 67.026 28.3667 83.5 64.5 3.429 8.7168 5.763 17.7168 7 27 .667 78.667.667 157.333 0 236-7.404 45.31-32.904 75.144-76.5 89.5-8.843 2.359-17.843 3.692-27 4-72.667.667-145.333.667-218 0-45.3414-3.24-77.5081-25.406-96.5-66.5-3.2743-9.097-5.6076-18.43-7-28-.6667-77.333-.6667-154.667 0-232 5.4509-40.0943 26.2842-68.9276 62.5-86.5 12.9456-5.4048 26.279-8.57147 40-9.5zm104 100c33.082-3.136 62.249 5.864 87.5 27 2.087 4.82 1.754 9.487-1 14-5.791 10.086-11.958 19.919-18.5 29.5-4.161 2.793-8.494 3.126-13 1-10.389-5.907-21.389-10.24-33-13-30.027-2.415-50.194 10.418-60.5 38.5-5.892 30.383 5.275 51.883 33.5 64.5 11.562 4.158 23.228 4.491 35 1 8.685-2.842 17.019-6.509 25-11 6.061-2.63 11.227-1.464 15.5 3.5 5.414 9.831 11.081 19.498 17 29 2 4 2 8 0 12-35.861 28.503-75.361 34.67-118.5 18.5-52.289-26.069-74.456-68.236-66.5-126.5 10.926-41.698 36.76-69.531 77.5-83.5 6.759-1.715 13.425-3.215 20-4.5zm84 88c16.287-.367 25.621 7.467 28 23.5-3.759 19.214-15.092 26.214-34 21-13.343-8.525-16.509-20.025-9.5-34.5 4.205-5.008 9.372-8.341 15.5-10z" opacity=".993"/><path d="m1311.5 47.5h52c.17 64.001 0 128.001-.5 192-6.59 43.92-30.75 73.42-72.5 88.5-52.47 12.632-93.3-3.535-122.5-48.5-16.52-31.85-17.52-64.183-3-97 27.62-48.335 68.79-66.502 123.5-54.5 7.59 2.214 14.76 5.38 21.5 9.5.17-30.072.67-60.0717 1.5-90zm-59 129c30.39-1.082 49.56 12.918 57.5 42 3.09 31.894-10.75 52.061-41.5 60.5-23.67 3.01-41.84-5.49-54.5-25.5-12.72-29.965-5.56-53.798 21.5-71.5 5.64-2.318 11.3-4.151 17-5.5z" opacity=".986"/><path d="m603.5 123.5c30.877-.827 57.21 9.507 79 31-12 12.667-24.333 25-37 37-23.045-18.914-46.711-19.748-71-2.5-19.356 20.199-22.523 42.699-9.5 67.5 20.041 24.808 44.208 29.642 72.5 14.5 2.78-1.812 5.28-3.979 7.5-6.5l37.5 37.5c-29.961 28.24-64.961 36.907-105 26-34.927-11.927-58.094-35.427-69.5-70.5-11.619-52.508 5.214-93.008 50.5-121.5 14.309-7.157 29.309-11.324 45-12.5z" opacity=".985"/><path d="m815.5 123.5c29.782-.095 55.115 10.238 76 31-12 12.667-24.333 25-37 37-20.972-17.754-43.305-19.588-67-5.5-11.284 8.395-18.118 19.562-20.5 33.5-.5 36.332-.667 72.665-.5 109-17.667 0-35.333 0-53 0 0-67 0-134 0-201 17.337-.167 34.67 0 52 .5.788 3.076 1.288 6.242 1.5 9.5 15.085-8.867 31.252-13.534 48.5-14z" opacity=".982"/><path d="m1500.5 123.5c43.31 1.062 75.48 20.395 96.5 58 11.19 23.881 13.36 48.548 6.5 74-47.66.833-95.33 1.333-143 1.5 14.86 20.311 34.53 26.978 59 20 7.87-2.547 14.7-6.714 20.5-12.5l36 36c.67 1 .67 2 0 3-33.14 29.165-70.64 36.331-112.5 21.5-49.39-24.271-70.22-63.771-62.5-118.5 10.82-42.821 37.65-69.654 80.5-80.5 6.48-.862 12.81-1.695 19-2.5zm-4 53c22.76-1.457 40.09 7.376 52 26.5-30.01.833-60.01.667-90-.5 8.66-14.653 21.33-23.32 38-26z" opacity=".985"/><path d="m911.5 127.5h52c-.167 35.335 0 70.668.5 106 3.429 22.432 15.929 37.265 37.5 44.5 27.55 5.474 48.05-4.026 61.5-28.5 2.28-5.79 3.61-11.79 4-18 .5-34.665.67-69.332.5-104h52c.17 64.668 0 129.334-.5 194-6.32 39.138-27.48 66.972-63.5 83.5-42.72 14.989-80.725 7.322-114-23l37.5-37.5c17.175 15.833 36.68 19.333 58.5 10.5 15.3-7.272 24.46-19.106 27.5-35.5-36.11 18.263-71.614 17.096-106.5-3.5-25.983-17.786-41.483-42.286-46.5-73.5-.5-38.332-.667-76.665-.5-115z" opacity=".99"/><path d="m1646.5 127.5c21.01-.333 42.01 0 63 1 13.41 26.49 27.08 52.824 41 79 13.92-26.176 27.59-52.51 41-79 20.66-1.166 41.33-1.333 62-.5.33.333.67.667 1 1-17.52 32.702-34.52 65.702-51 99 16.61 33.386 33.61 66.552 51 99.5-20.99 1.166-41.99 1.333-63 .5-13.71-26.579-27.54-53.079-41.5-79.5-13.63 26.422-27.13 52.922-40.5 79.5-21 .667-42 .667-63 0 17.15-33.125 34.15-66.292 51-99.5-16.75-33.839-33.75-67.506-51-101z" opacity=".984"/></g></svg>