<?xml version="1.0" encoding="UTF-8"?>
<!DOCTYPE svg PUBLIC "-//W3C//DTD SVG 1.1//EN" "http://www.w3.org/Graphics/SVG/1.1/DTD/svg11.dtd">
<svg xmlns="http://www.w3.org/2000/svg" version="1.1" width="1859px" height="448px" style="shape-rendering:geometricPrecision; text-rendering:geometricPrecision; image-rendering:optimizeQuality; fill-rule:evenodd; clip-rule:evenodd" xmlns:xlink="http://www.w3.org/1999/xlink">
<g><path style="opacity:0.993" fill="#ebebf0" d="M 116.5,7.5 C 193.851,7.03642 271.184,7.53642 348.5,9C 387.693,15.8667 415.526,37.3667 432,73.5C 435.429,82.2168 437.763,91.2168 439,100.5C 439.667,179.167 439.667,257.833 439,336.5C 431.596,381.81 406.096,411.644 362.5,426C 353.657,428.359 344.657,429.692 335.5,430C 262.833,430.667 190.167,430.667 117.5,430C 72.1586,426.76 39.9919,404.594 21,363.5C 17.7257,354.403 15.3924,345.07 14,335.5C 13.3333,258.167 13.3333,180.833 14,103.5C 19.4509,63.4057 40.2842,34.5724 76.5,17C 89.4456,11.5952 102.779,8.42853 116.5,7.5 Z M 220.5,107.5 C 253.582,104.364 282.749,113.364 308,134.5C 310.087,139.32 309.754,143.987 307,148.5C 301.209,158.586 295.042,168.419 288.5,178C 284.339,180.793 280.006,181.126 275.5,179C 265.111,173.093 254.111,168.76 242.5,166C 212.473,163.585 192.306,176.418 182,204.5C 176.108,234.883 187.275,256.383 215.5,269C 227.062,273.158 238.728,273.491 250.5,270C 259.185,267.158 267.519,263.491 275.5,259C 281.561,256.37 286.727,257.536 291,262.5C 296.414,272.331 302.081,281.998 308,291.5C 310,295.5 310,299.5 308,303.5C 272.139,332.003 232.639,338.17 189.5,322C 137.211,295.931 115.044,253.764 123,195.5C 133.926,153.802 159.76,125.969 200.5,112C 207.259,110.285 213.925,108.785 220.5,107.5 Z M 304.5,195.5 C 320.787,195.133 330.121,202.967 332.5,219C 328.741,238.214 317.408,245.214 298.5,240C 285.157,231.475 281.991,219.975 289,205.5C 293.205,200.492 298.372,197.159 304.5,195.5 Z"/></g>
<g><path style="opacity:0.986" fill="#ebebf0" d="M 1311.5,47.5 C 1328.83,47.5 1346.17,47.5 1363.5,47.5C 1363.67,111.501 1363.5,175.501 1363,239.5C 1356.41,283.42 1332.25,312.92 1290.5,328C 1238.03,340.632 1197.2,324.465 1168,279.5C 1151.48,247.65 1150.48,215.317 1165,182.5C 1192.62,134.165 1233.79,115.998 1288.5,128C 1296.09,130.214 1303.26,133.38 1310,137.5C 1310.17,107.428 1310.67,77.4283 1311.5,47.5 Z M 1252.5,176.5 C 1282.89,175.418 1302.06,189.418 1310,218.5C 1313.09,250.394 1299.25,270.561 1268.5,279C 1244.83,282.01 1226.66,273.51 1214,253.5C 1201.28,223.535 1208.44,199.702 1235.5,182C 1241.14,179.682 1246.8,177.849 1252.5,176.5 Z"/></g>
<g><path style="opacity:0.985" fill="#ebebf0" d="M 603.5,123.5 C 634.377,122.673 660.71,133.007 682.5,154.5C 670.5,167.167 658.167,179.5 645.5,191.5C 622.455,172.586 598.789,171.752 574.5,189C 555.144,209.199 551.977,231.699 565,256.5C 585.041,281.308 609.208,286.142 637.5,271C 640.28,269.188 642.78,267.021 645,264.5C 657.5,277 670,289.5 682.5,302C 652.539,330.24 617.539,338.907 577.5,328C 542.573,316.073 519.406,292.573 508,257.5C 496.381,204.992 513.214,164.492 558.5,136C 572.809,128.843 587.809,124.676 603.5,123.5 Z"/></g>
<g><path style="opacity:0.982" fill="#ebebf0" d="M 815.5,123.5 C 845.282,123.405 870.615,133.738 891.5,154.5C 879.5,167.167 867.167,179.5 854.5,191.5C 833.528,173.746 811.195,171.912 787.5,186C 776.216,194.395 769.382,205.562 767,219.5C 766.5,255.832 766.333,292.165 766.5,328.5C 748.833,328.5 731.167,328.5 713.5,328.5C 713.5,261.5 713.5,194.5 713.5,127.5C 730.837,127.333 748.17,127.5 765.5,128C 766.288,131.076 766.788,134.242 767,137.5C 782.085,128.633 798.252,123.966 815.5,123.5 Z"/></g>
<g><path style="opacity:0.985" fill="#ebebf0" d="M 1500.5,123.5 C 1543.81,124.562 1575.98,143.895 1597,181.5C 1608.19,205.381 1610.36,230.048 1603.5,255.5C 1555.84,256.333 1508.17,256.833 1460.5,257C 1475.36,277.311 1495.03,283.978 1519.5,277C 1527.37,274.453 1534.2,270.286 1540,264.5C 1552,276.5 1564,288.5 1576,300.5C 1576.67,301.5 1576.67,302.5 1576,303.5C 1542.86,332.665 1505.36,339.831 1463.5,325C 1414.11,300.729 1393.28,261.229 1401,206.5C 1411.82,163.679 1438.65,136.846 1481.5,126C 1487.98,125.138 1494.31,124.305 1500.5,123.5 Z M 1496.5,176.5 C 1519.26,175.043 1536.59,183.876 1548.5,203C 1518.49,203.833 1488.49,203.667 1458.5,202.5C 1467.16,187.847 1479.83,179.18 1496.5,176.5 Z"/></g>
<g><path style="opacity:0.99" fill="#ebebf0" d="M 911.5,127.5 C 928.833,127.5 946.167,127.5 963.5,127.5C 963.333,162.835 963.5,198.168 964,233.5C 967.429,255.932 979.929,270.765 1001.5,278C 1029.05,283.474 1049.55,273.974 1063,249.5C 1065.28,243.71 1066.61,237.71 1067,231.5C 1067.5,196.835 1067.67,162.168 1067.5,127.5C 1084.83,127.5 1102.17,127.5 1119.5,127.5C 1119.67,192.168 1119.5,256.834 1119,321.5C 1112.68,360.638 1091.52,388.472 1055.5,405C 1012.78,419.989 974.775,412.322 941.5,382C 954,369.5 966.5,357 979,344.5C 996.175,360.333 1015.68,363.833 1037.5,355C 1052.8,347.728 1061.96,335.894 1065,319.5C 1028.89,337.763 993.386,336.596 958.5,316C 932.517,298.214 917.017,273.714 912,242.5C 911.5,204.168 911.333,165.835 911.5,127.5 Z"/></g>
<g><path style="opacity:0.984" fill="#ebebf0" d="M 1646.5,127.5 C 1667.51,127.167 1688.51,127.5 1709.5,128.5C 1722.91,154.99 1736.58,181.324 1750.5,207.5C 1764.42,181.324 1778.09,154.99 1791.5,128.5C 1812.16,127.334 1832.83,127.167 1853.5,128C 1853.83,128.333 1854.17,128.667 1854.5,129C 1836.98,161.702 1819.98,194.702 1803.5,228C 1820.11,261.386 1837.11,294.552 1854.5,327.5C 1833.51,328.666 1812.51,328.833 1791.5,328C 1777.79,301.421 1763.96,274.921 1750,248.5C 1736.37,274.922 1722.87,301.422 1709.5,328C 1688.5,328.667 1667.5,328.667 1646.5,328C 1663.65,294.875 1680.65,261.708 1697.5,228.5C 1680.75,194.661 1663.75,160.994 1646.5,127.5 Z"/></g>
</svg>
