<svg id="svg" version="1.1" xmlns="http://www.w3.org/2000/svg" xmlns:xlink="http://www.w3.org/1999/xlink" width="400" height="96.39591178052717" viewBox="0, 0, 400,96.39591178052717"><g id="svgg"><path id="path0" d="M23.917 1.852 C 23.183 1.924,22.321 1.998,22.000 2.016 C 21.679 2.035,21.374 2.116,21.321 2.196 C 21.268 2.276,20.818 2.412,20.321 2.498 C 18.685 2.781,18.417 2.851,18.361 3.010 C 18.331 3.096,18.124 3.167,17.903 3.167 C 17.681 3.167,17.500 3.226,17.500 3.298 C 17.500 3.370,17.332 3.442,17.127 3.457 C 16.923 3.473,16.729 3.564,16.697 3.659 C 16.665 3.755,16.500 3.833,16.331 3.833 C 16.162 3.833,15.906 3.951,15.762 4.095 C 15.618 4.239,15.500 4.309,15.500 4.251 C 15.500 4.193,15.200 4.314,14.833 4.520 C 14.467 4.726,14.167 4.954,14.167 5.025 C 14.167 5.097,14.064 5.117,13.938 5.069 C 13.813 5.020,13.665 5.098,13.610 5.240 C 13.555 5.383,13.414 5.503,13.297 5.507 C 13.179 5.510,12.824 5.735,12.506 6.007 C 12.189 6.278,11.838 6.500,11.726 6.500 C 11.614 6.500,11.475 6.650,11.417 6.833 C 11.358 7.017,11.199 7.167,11.062 7.167 C 10.926 7.167,10.859 7.239,10.914 7.328 C 10.969 7.417,10.823 7.538,10.590 7.597 C 10.357 7.655,10.167 7.761,10.167 7.831 C 10.167 7.902,9.885 8.250,9.542 8.605 C 8.438 9.745,6.307 12.489,6.404 12.646 C 6.456 12.730,6.386 12.841,6.249 12.894 C 6.112 12.947,6.000 13.095,6.000 13.224 C 6.000 13.354,5.888 13.553,5.750 13.667 C 5.612 13.781,5.500 14.017,5.500 14.192 C 5.500 14.367,5.386 14.554,5.247 14.608 C 5.108 14.661,5.008 14.790,5.026 14.894 C 5.057 15.081,4.827 15.690,4.419 16.500 C 4.304 16.729,4.111 17.329,3.990 17.833 C 3.869 18.337,3.711 18.831,3.638 18.930 C 3.566 19.029,3.415 19.835,3.303 20.722 C 3.191 21.608,3.058 22.333,3.008 22.333 C 2.902 22.333,2.949 71.980,3.056 72.341 C 3.158 72.686,3.502 74.678,3.537 75.125 C 3.553 75.331,3.613 75.500,3.669 75.500 C 3.726 75.500,3.869 75.988,3.988 76.583 C 4.106 77.179,4.270 77.667,4.351 77.667 C 4.433 77.667,4.500 77.783,4.500 77.926 C 4.500 78.173,4.915 79.104,5.425 80.000 C 5.555 80.229,5.663 80.548,5.664 80.708 C 5.666 80.869,5.733 81.000,5.813 81.000 C 5.894 81.000,6.053 81.225,6.167 81.500 C 6.281 81.775,6.440 82.000,6.520 82.000 C 6.601 82.000,6.667 82.115,6.667 82.255 C 6.667 82.396,6.779 82.553,6.916 82.606 C 7.053 82.659,7.123 82.769,7.072 82.852 C 7.021 82.935,7.093 83.046,7.233 83.100 C 7.373 83.154,7.537 83.359,7.597 83.557 C 7.657 83.755,7.997 84.192,8.353 84.529 C 8.709 84.865,9.001 85.203,9.002 85.279 C 9.004 85.447,10.071 86.500,10.240 86.500 C 10.307 86.500,10.634 86.781,10.967 87.125 C 11.300 87.469,11.741 87.837,11.945 87.944 C 12.150 88.051,12.415 88.223,12.534 88.325 C 13.446 89.113,17.003 91.000,17.576 91.000 C 17.717 91.000,17.833 91.083,17.833 91.184 C 17.833 91.286,17.946 91.326,18.083 91.273 C 18.221 91.220,18.333 91.246,18.333 91.331 C 18.333 91.416,18.615 91.531,18.958 91.588 C 19.302 91.645,19.794 91.772,20.051 91.870 C 20.307 91.968,20.682 92.075,20.884 92.108 C 21.085 92.140,21.625 92.238,22.083 92.324 C 22.542 92.410,23.460 92.485,24.125 92.490 C 24.813 92.496,25.333 92.572,25.333 92.667 C 25.333 92.777,33.278 92.833,48.833 92.833 C 62.267 92.833,72.333 92.770,72.333 92.687 C 72.333 92.562,74.691 92.333,75.975 92.333 C 76.190 92.332,76.453 92.278,76.558 92.213 C 76.835 92.040,77.186 91.962,77.708 91.957 C 77.960 91.954,78.167 91.891,78.167 91.817 C 78.167 91.743,78.448 91.631,78.792 91.569 C 79.135 91.507,79.510 91.382,79.625 91.291 C 79.740 91.200,79.834 91.191,79.836 91.271 C 79.837 91.351,79.904 91.313,79.984 91.186 C 80.064 91.060,80.270 90.945,80.440 90.932 C 80.702 90.912,81.384 90.593,83.679 89.419 C 83.855 89.328,84.000 89.193,84.000 89.117 C 84.000 89.042,84.067 89.021,84.148 89.072 C 84.229 89.122,84.388 89.051,84.502 88.915 C 84.615 88.778,84.783 88.667,84.876 88.667 C 84.969 88.667,85.215 88.498,85.424 88.292 C 85.632 88.085,86.048 87.729,86.348 87.500 C 87.122 86.908,89.332 84.738,89.339 84.563 C 89.342 84.483,89.607 84.154,89.929 83.834 C 90.251 83.514,90.747 82.839,91.032 82.334 C 91.317 81.830,91.639 81.342,91.749 81.250 C 91.859 81.158,92.047 80.821,92.168 80.500 C 92.289 80.179,92.481 79.804,92.595 79.667 C 92.709 79.529,92.886 79.101,92.989 78.715 C 93.092 78.330,93.238 77.976,93.314 77.929 C 93.390 77.882,93.548 77.391,93.666 76.838 C 93.783 76.286,93.933 75.833,93.998 75.833 C 94.135 75.833,94.500 73.777,94.500 73.010 C 94.500 72.729,94.574 72.500,94.665 72.500 C 94.870 72.500,94.890 21.888,94.684 21.761 C 94.607 21.713,94.490 21.241,94.424 20.712 C 94.358 20.183,94.280 19.637,94.251 19.500 C 94.222 19.362,94.160 19.063,94.113 18.833 C 94.066 18.604,93.909 18.138,93.764 17.797 C 93.619 17.456,93.500 17.043,93.500 16.879 C 93.500 16.715,93.313 16.228,93.083 15.798 C 92.854 15.367,92.667 14.895,92.667 14.748 C 92.667 14.601,92.598 14.523,92.514 14.575 C 92.429 14.627,92.311 14.444,92.250 14.168 C 92.190 13.892,92.083 13.667,92.012 13.667 C 91.942 13.667,91.741 13.349,91.567 12.960 C 91.393 12.571,91.138 12.126,91.000 11.972 C 90.686 11.619,90.566 11.462,89.750 10.341 C 89.000 9.311,87.236 7.500,86.982 7.500 C 86.889 7.500,86.860 7.425,86.917 7.333 C 86.973 7.242,86.936 7.167,86.833 7.167 C 86.618 7.167,85.315 6.185,85.115 5.871 C 85.040 5.755,84.917 5.698,84.841 5.746 C 84.764 5.793,84.659 5.719,84.606 5.582 C 84.553 5.445,84.396 5.333,84.255 5.333 C 84.115 5.333,84.000 5.258,84.000 5.167 C 84.000 5.075,83.918 5.000,83.817 5.000 C 83.717 5.000,83.398 4.832,83.109 4.626 C 82.820 4.420,82.565 4.269,82.543 4.290 C 82.481 4.349,81.263 3.767,81.159 3.629 C 81.110 3.563,80.905 3.483,80.705 3.453 C 80.505 3.422,80.290 3.346,80.227 3.282 C 80.163 3.219,79.936 3.167,79.722 3.167 C 79.508 3.167,79.333 3.099,79.333 3.017 C 79.333 2.934,78.752 2.743,78.042 2.591 C 77.331 2.440,76.586 2.235,76.385 2.135 C 76.184 2.036,75.787 2.001,75.502 2.058 C 75.217 2.115,75.022 2.099,75.069 2.023 C 75.289 1.667,27.441 1.508,23.917 1.852 M293.139 5.143 C 293.108 5.222,292.183 5.337,291.083 5.400 C 289.983 5.463,289.058 5.586,289.028 5.674 C 288.997 5.761,288.790 5.787,288.567 5.731 C 288.342 5.675,288.053 5.720,287.917 5.833 C 287.781 5.946,287.557 5.994,287.419 5.941 C 287.280 5.887,287.167 5.916,287.167 6.005 C 287.167 6.094,287.017 6.167,286.833 6.167 C 286.650 6.167,286.500 6.246,286.500 6.343 C 286.500 6.440,286.422 6.471,286.326 6.412 C 286.230 6.353,286.062 6.372,285.951 6.454 C 285.840 6.536,285.637 6.597,285.500 6.590 C 285.362 6.582,285.151 6.671,285.030 6.788 C 284.909 6.904,284.660 7.000,284.478 7.000 C 284.296 7.000,284.193 7.074,284.249 7.165 C 284.305 7.255,284.246 7.289,284.119 7.241 C 283.991 7.192,283.791 7.267,283.673 7.409 C 283.555 7.551,283.325 7.667,283.160 7.667 C 282.996 7.667,282.836 7.736,282.806 7.821 C 282.775 7.906,282.639 7.999,282.504 8.029 C 282.369 8.059,282.165 8.158,282.051 8.250 C 281.559 8.647,281.389 8.770,280.917 9.069 C 280.642 9.243,280.357 9.486,280.283 9.610 C 280.210 9.733,280.043 9.833,279.912 9.833 C 279.781 9.833,279.267 10.240,278.769 10.738 C 278.272 11.235,277.830 11.608,277.788 11.566 C 277.746 11.524,277.623 11.698,277.515 11.953 C 277.407 12.208,277.078 12.598,276.784 12.820 C 276.220 13.247,275.167 14.559,275.167 14.836 C 275.167 14.926,275.090 15.000,274.996 15.000 C 274.902 15.000,274.754 15.188,274.667 15.417 C 274.580 15.646,274.423 15.833,274.320 15.833 C 274.216 15.833,274.174 15.946,274.227 16.083 C 274.280 16.221,274.246 16.333,274.152 16.333 C 274.057 16.333,274.022 16.400,274.073 16.483 C 274.123 16.565,274.053 16.675,273.916 16.727 C 273.779 16.780,273.667 17.013,273.667 17.245 C 273.667 17.477,273.587 17.667,273.490 17.667 C 273.393 17.667,273.360 17.742,273.417 17.833 C 273.473 17.925,273.446 18.000,273.356 18.000 C 273.266 18.000,273.106 18.262,273.000 18.583 C 272.894 18.904,272.734 19.167,272.644 19.167 C 272.554 19.167,272.525 19.239,272.579 19.327 C 272.633 19.414,272.609 19.621,272.525 19.785 C 272.143 20.527,271.652 22.349,271.556 23.375 C 271.499 23.994,271.403 24.500,271.344 24.500 C 271.159 24.500,271.147 25.531,271.068 48.458 L 270.991 70.833 276.787 70.833 L 282.583 70.833 282.539 54.917 L 282.495 39.000 286.706 38.980 C 289.022 38.969,290.974 38.970,291.044 38.981 C 291.114 38.992,291.151 36.432,291.127 33.292 L 291.083 27.583 286.774 27.539 L 282.465 27.494 282.557 27.122 C 282.608 26.917,282.732 26.228,282.834 25.590 C 282.935 24.952,283.075 24.352,283.145 24.256 C 283.216 24.161,283.376 23.746,283.502 23.333 C 283.629 22.921,283.886 22.388,284.074 22.148 C 284.647 21.420,284.884 21.041,284.844 20.913 C 284.823 20.846,285.018 20.651,285.278 20.480 C 285.538 20.309,285.694 20.168,285.625 20.168 C 285.556 20.167,285.650 20.017,285.833 19.833 C 286.017 19.650,286.246 19.500,286.343 19.500 C 286.440 19.500,286.477 19.430,286.424 19.345 C 286.372 19.260,286.482 19.142,286.670 19.082 C 286.858 19.023,287.140 18.839,287.297 18.674 C 287.714 18.236,289.484 17.333,289.926 17.333 C 290.135 17.333,290.331 17.262,290.361 17.176 C 290.553 16.632,295.602 16.498,296.263 17.018 C 296.362 17.096,296.587 17.187,296.763 17.221 C 297.771 17.412,299.025 17.965,299.750 18.539 C 300.904 19.453,301.452 19.830,301.626 19.832 C 301.891 19.834,303.598 18.189,303.542 17.985 C 303.519 17.902,303.577 17.833,303.672 17.833 C 303.766 17.833,304.085 17.559,304.380 17.225 C 304.675 16.890,305.948 15.577,307.208 14.308 C 308.469 13.038,309.500 11.913,309.500 11.808 C 309.500 11.539,307.839 9.977,307.666 10.083 C 307.588 10.132,307.482 10.038,307.430 9.874 C 307.378 9.711,307.054 9.429,306.709 9.248 C 306.365 9.068,306.023 8.825,305.950 8.710 C 305.877 8.594,305.712 8.500,305.583 8.500 C 305.455 8.500,305.290 8.404,305.217 8.287 C 305.143 8.170,304.746 7.928,304.333 7.750 C 303.921 7.572,303.546 7.382,303.500 7.328 C 303.454 7.275,303.154 7.135,302.833 7.017 C 302.512 6.900,302.063 6.707,301.833 6.590 C 301.604 6.472,301.004 6.280,300.500 6.163 C 299.996 6.045,299.259 5.847,298.863 5.723 C 298.467 5.598,297.248 5.448,296.155 5.389 C 295.061 5.330,294.167 5.219,294.167 5.141 C 294.167 4.956,293.211 4.958,293.139 5.143 M55.231 23.651 C 55.371 23.767,55.564 23.814,55.659 23.755 C 55.755 23.695,55.833 23.710,55.833 23.787 C 55.833 23.864,56.040 23.944,56.292 23.965 C 57.020 24.025,60.000 25.023,60.000 25.206 C 60.000 25.297,60.150 25.333,60.333 25.285 C 60.517 25.237,60.667 25.251,60.667 25.315 C 60.667 25.380,60.929 25.528,61.250 25.644 C 61.571 25.760,61.833 25.925,61.833 26.011 C 61.833 26.097,61.890 26.154,61.958 26.138 C 62.166 26.089,63.000 26.542,63.000 26.703 C 63.000 26.786,63.075 26.807,63.167 26.750 C 63.258 26.693,63.335 26.708,63.336 26.782 C 63.338 26.856,63.724 27.142,64.193 27.417 C 65.228 28.023,66.476 29.178,66.383 29.443 C 66.346 29.549,66.395 29.685,66.491 29.745 C 66.710 29.880,66.723 30.779,66.507 30.912 C 66.420 30.966,66.385 31.107,66.430 31.225 C 66.475 31.342,66.321 31.645,66.087 31.897 C 65.853 32.150,65.704 32.426,65.757 32.512 C 65.810 32.597,65.779 32.667,65.688 32.667 C 65.597 32.667,65.475 32.816,65.417 32.999 C 65.359 33.182,65.223 33.427,65.114 33.543 C 65.006 33.660,64.770 34.054,64.592 34.419 C 64.413 34.784,64.062 35.397,63.813 35.781 C 63.563 36.164,63.232 36.746,63.077 37.072 C 62.922 37.399,62.729 37.667,62.648 37.667 C 62.566 37.667,62.500 37.779,62.500 37.917 C 62.500 38.054,62.390 38.167,62.256 38.167 C 62.123 38.167,61.878 38.312,61.712 38.490 C 61.184 39.057,60.026 38.836,57.941 37.772 C 56.947 37.264,55.859 36.760,55.525 36.652 C 55.190 36.545,54.835 36.392,54.736 36.314 C 54.092 35.807,50.174 35.509,48.333 35.827 C 46.887 36.078,46.717 36.126,46.280 36.413 C 46.053 36.561,45.664 36.719,45.415 36.765 C 45.167 36.810,44.853 36.956,44.720 37.090 C 44.586 37.224,44.384 37.333,44.271 37.333 C 44.158 37.333,43.788 37.587,43.449 37.897 C 43.110 38.208,42.831 38.414,42.828 38.356 C 42.825 38.298,42.747 38.381,42.653 38.542 C 42.560 38.702,42.377 38.833,42.247 38.833 C 42.117 38.833,42.046 38.927,42.089 39.042 C 42.133 39.156,41.943 39.400,41.667 39.583 C 41.391 39.767,41.126 40.039,41.078 40.188 C 41.030 40.337,40.808 40.672,40.584 40.932 C 40.360 41.193,40.131 41.614,40.075 41.869 C 40.019 42.125,39.923 42.333,39.861 42.333 C 39.731 42.333,39.333 43.532,39.333 43.924 C 39.333 44.073,39.254 44.137,39.149 44.072 C 39.026 43.996,39.000 44.072,39.072 44.298 C 39.132 44.486,39.113 44.680,39.032 44.730 C 38.950 44.781,38.870 45.286,38.853 45.853 C 38.836 46.420,38.789 46.937,38.749 47.002 C 38.638 47.181,38.991 50.037,39.149 50.239 C 39.225 50.337,39.337 50.625,39.398 50.879 C 39.552 51.525,40.318 53.167,40.464 53.167 C 40.531 53.167,40.693 53.410,40.824 53.708 C 41.117 54.375,43.434 56.644,43.954 56.774 C 44.163 56.827,44.333 56.936,44.333 57.018 C 44.333 57.100,44.446 57.167,44.583 57.167 C 44.721 57.167,44.833 57.246,44.833 57.343 C 44.833 57.440,44.903 57.477,44.988 57.424 C 45.074 57.371,45.191 57.404,45.248 57.497 C 45.306 57.590,45.466 57.667,45.605 57.667 C 45.744 57.667,45.965 57.775,46.097 57.907 C 46.229 58.039,46.675 58.197,47.087 58.259 C 47.500 58.321,47.871 58.426,47.912 58.493 C 48.115 58.822,52.901 58.795,53.106 58.464 C 53.150 58.392,53.390 58.333,53.639 58.333 C 53.889 58.333,54.259 58.216,54.463 58.074 C 54.667 57.931,54.904 57.857,54.989 57.910 C 55.074 57.962,55.189 57.931,55.246 57.841 C 55.302 57.750,55.663 57.592,56.049 57.489 C 56.434 57.386,56.862 57.206,57.000 57.089 C 57.137 56.972,57.525 56.787,57.862 56.679 C 58.198 56.571,58.564 56.374,58.674 56.241 C 58.784 56.109,58.973 56.000,59.093 56.000 C 59.213 56.000,59.523 55.913,59.781 55.807 C 60.485 55.518,61.006 55.464,61.239 55.657 C 61.354 55.753,61.493 55.784,61.550 55.728 C 61.675 55.602,62.667 56.572,62.667 56.821 C 62.667 56.919,62.742 57.000,62.833 57.000 C 62.925 57.000,63.000 57.103,63.000 57.230 C 63.000 57.356,63.112 57.552,63.248 57.665 C 63.385 57.778,63.455 57.938,63.405 58.019 C 63.355 58.100,63.382 58.167,63.465 58.167 C 63.548 58.167,63.757 58.485,63.930 58.875 C 64.103 59.265,64.339 59.682,64.455 59.804 C 64.572 59.925,64.667 60.098,64.667 60.188 C 64.667 60.279,64.736 60.310,64.821 60.257 C 64.906 60.205,65.026 60.332,65.087 60.539 C 65.283 61.204,65.727 62.167,65.839 62.167 C 65.942 62.167,66.380 62.962,66.405 63.194 C 66.411 63.256,66.473 63.362,66.542 63.431 C 66.738 63.627,66.688 64.667,66.482 64.667 C 66.381 64.667,66.338 64.773,66.388 64.902 C 66.443 65.046,66.181 65.388,65.718 65.777 C 65.300 66.129,64.874 66.492,64.771 66.583 C 64.668 66.675,64.371 66.860,64.111 66.994 C 63.851 67.128,63.462 67.402,63.246 67.602 C 63.030 67.802,62.812 67.923,62.761 67.872 C 62.710 67.821,62.537 67.895,62.376 68.036 C 62.215 68.176,61.802 68.381,61.458 68.492 C 61.115 68.602,60.833 68.743,60.832 68.805 C 60.830 68.963,59.992 69.333,59.633 69.333 C 59.468 69.333,59.333 69.402,59.333 69.487 C 59.333 69.571,59.090 69.692,58.792 69.756 C 58.494 69.820,58.175 69.918,58.083 69.974 C 57.905 70.082,57.799 70.102,57.198 70.141 C 56.942 70.158,56.854 70.236,56.934 70.375 C 56.999 70.490,57.003 70.539,56.942 70.484 C 56.880 70.430,56.137 70.516,55.290 70.676 C 54.443 70.835,53.694 70.932,53.625 70.890 C 53.556 70.848,53.500 70.874,53.500 70.948 C 53.500 71.023,52.188 71.083,50.584 71.083 C 48.979 71.083,47.667 71.026,47.667 70.956 C 47.667 70.885,47.460 70.835,47.208 70.844 C 46.465 70.869,44.663 70.538,44.413 70.330 C 44.285 70.224,44.100 70.188,44.000 70.250 C 43.900 70.312,43.728 70.287,43.618 70.196 C 43.507 70.105,43.135 69.977,42.792 69.913 C 42.448 69.849,42.167 69.722,42.167 69.630 C 42.167 69.539,42.054 69.508,41.917 69.560 C 41.779 69.613,41.667 69.584,41.667 69.495 C 41.667 69.406,41.528 69.333,41.358 69.333 C 41.188 69.333,40.719 69.158,40.316 68.943 C 39.912 68.728,39.307 68.462,38.972 68.352 C 38.637 68.241,38.321 68.042,38.270 67.909 C 38.219 67.776,38.062 67.667,37.922 67.667 C 37.782 67.667,37.667 67.597,37.667 67.512 C 37.667 67.427,37.370 67.227,37.008 67.067 C 36.645 66.907,36.393 66.704,36.448 66.616 C 36.502 66.529,36.449 66.489,36.331 66.529 C 36.212 66.568,35.943 66.447,35.732 66.259 C 34.513 65.171,34.333 65.018,34.333 65.068 C 34.333 65.099,33.977 64.789,33.542 64.381 C 33.106 63.973,32.771 63.564,32.796 63.474 C 32.821 63.383,32.783 63.344,32.712 63.387 C 32.641 63.430,32.471 63.343,32.333 63.195 C 32.196 63.046,32.121 62.911,32.167 62.893 C 32.212 62.876,32.077 62.686,31.865 62.472 C 31.269 61.870,30.308 60.624,30.118 60.208 C 30.024 60.002,29.879 59.833,29.797 59.833 C 29.714 59.833,29.693 59.758,29.750 59.667 C 29.807 59.575,29.774 59.500,29.677 59.500 C 29.579 59.500,29.500 59.420,29.500 59.321 C 29.500 59.223,29.387 59.030,29.248 58.891 C 29.110 58.753,29.034 58.579,29.080 58.505 C 29.126 58.432,29.051 58.278,28.915 58.165 C 28.778 58.052,28.667 57.866,28.667 57.752 C 28.667 57.638,28.528 57.366,28.358 57.147 C 28.073 56.781,27.613 55.641,27.592 55.250 C 27.584 55.102,27.476 54.794,27.003 53.583 C 26.931 53.400,26.864 53.033,26.853 52.767 C 26.842 52.501,26.764 52.201,26.680 52.100 C 26.086 51.384,26.143 43.127,26.750 41.869 C 26.870 41.620,27.022 41.079,27.088 40.667 C 27.154 40.254,27.277 39.872,27.363 39.818 C 27.448 39.764,27.633 39.276,27.773 38.735 C 27.914 38.193,28.126 37.637,28.245 37.500 C 28.363 37.362,28.517 37.063,28.586 36.833 C 28.655 36.604,28.760 36.379,28.819 36.333 C 28.878 36.287,29.066 35.933,29.236 35.546 C 29.407 35.159,29.611 34.882,29.690 34.931 C 29.769 34.980,29.833 34.865,29.833 34.677 C 29.833 34.488,29.983 34.183,30.167 34.000 C 30.350 33.817,30.519 33.573,30.542 33.458 C 30.565 33.344,30.899 32.931,31.284 32.542 C 31.669 32.152,31.956 31.833,31.921 31.833 C 31.834 31.833,33.004 30.505,33.417 30.135 C 33.600 29.971,33.986 29.624,34.275 29.364 C 35.577 28.194,36.461 27.517,36.560 27.615 C 36.619 27.674,36.667 27.635,36.667 27.528 C 36.667 27.421,36.768 27.333,36.891 27.333 C 37.014 27.333,37.249 27.185,37.413 27.004 C 37.577 26.823,37.768 26.709,37.837 26.752 C 37.906 26.795,38.055 26.718,38.168 26.581 C 38.281 26.445,38.466 26.333,38.578 26.333 C 38.690 26.333,38.956 26.183,39.167 25.999 C 39.379 25.816,39.841 25.588,40.193 25.493 C 40.545 25.398,40.833 25.248,40.833 25.160 C 40.833 25.072,41.021 25.000,41.250 25.000 C 41.479 25.000,41.667 24.929,41.667 24.843 C 41.667 24.756,41.817 24.715,42.000 24.750 C 42.183 24.785,42.333 24.750,42.333 24.672 C 42.333 24.594,42.463 24.549,42.622 24.572 C 42.780 24.595,43.001 24.522,43.113 24.411 C 43.225 24.299,43.677 24.153,44.117 24.087 C 44.557 24.021,44.992 23.921,45.083 23.863 C 45.911 23.347,54.644 23.164,55.231 23.651 M149.931 26.643 C 149.883 26.721,149.222 26.831,148.463 26.887 C 147.704 26.942,146.783 27.031,146.417 27.085 C 146.050 27.138,145.656 27.191,145.542 27.202 C 145.427 27.213,145.333 27.276,145.333 27.343 C 145.333 27.446,145.026 27.534,143.862 27.764 C 143.740 27.788,143.515 27.862,143.362 27.929 C 143.209 27.996,142.978 28.072,142.850 28.097 C 142.722 28.123,142.572 28.206,142.517 28.281 C 142.462 28.355,142.267 28.442,142.083 28.473 C 141.900 28.505,141.637 28.626,141.500 28.743 C 141.362 28.860,141.033 29.007,140.769 29.070 C 140.504 29.133,140.047 29.368,139.753 29.592 C 139.459 29.817,139.132 30.000,139.026 30.000 C 138.920 30.000,138.833 30.088,138.833 30.194 C 138.833 30.301,138.786 30.341,138.728 30.283 C 138.670 30.225,138.474 30.367,138.292 30.598 C 138.111 30.829,137.927 30.982,137.884 30.939 C 137.796 30.852,137.343 31.187,136.622 31.875 C 136.357 32.127,136.059 32.333,135.959 32.333 C 135.860 32.333,135.815 32.370,135.860 32.415 C 135.905 32.461,135.373 33.079,134.678 33.790 C 133.139 35.366,132.735 35.855,132.585 36.328 C 132.522 36.528,132.426 36.648,132.372 36.595 C 132.253 36.475,131.718 37.353,130.907 39.000 C 130.569 39.688,130.225 40.293,130.142 40.346 C 130.059 40.399,129.974 40.673,129.954 40.955 C 129.933 41.237,129.867 41.437,129.806 41.400 C 129.746 41.362,129.644 41.651,129.579 42.041 C 129.515 42.431,129.407 42.825,129.339 42.917 C 129.170 43.146,128.833 44.934,128.833 45.601 C 128.833 45.901,128.771 46.186,128.695 46.233 C 128.525 46.338,128.540 52.096,128.711 52.266 C 128.778 52.334,128.833 52.709,128.833 53.101 C 128.833 53.493,128.910 53.861,129.003 53.918 C 129.096 53.976,129.126 54.098,129.070 54.189 C 129.013 54.280,129.171 55.006,129.419 55.802 C 129.880 57.279,130.014 57.628,130.680 59.072 C 131.156 60.103,132.637 62.345,133.034 62.634 C 133.199 62.754,133.333 62.935,133.333 63.037 C 133.333 63.139,133.516 63.416,133.739 63.653 C 133.962 63.890,134.525 64.487,134.989 64.980 C 135.453 65.473,135.833 65.827,135.833 65.767 C 135.833 65.707,136.181 65.988,136.605 66.390 C 137.657 67.388,137.856 67.550,138.336 67.795 C 138.708 67.986,139.648 68.613,140.083 68.961 C 140.175 69.034,140.606 69.229,141.042 69.394 C 141.477 69.559,141.833 69.761,141.833 69.842 C 141.833 69.923,141.946 69.946,142.083 69.894 C 142.221 69.841,142.333 69.881,142.333 69.982 C 142.333 70.084,142.479 70.167,142.657 70.167 C 142.835 70.167,143.030 70.247,143.090 70.345 C 143.151 70.443,143.305 70.482,143.434 70.433 C 143.562 70.384,143.667 70.408,143.667 70.486 C 143.667 70.565,144.173 70.722,144.792 70.836 C 145.410 70.951,145.995 71.106,146.091 71.181 C 146.187 71.256,146.412 71.315,146.591 71.311 C 146.770 71.308,147.441 71.395,148.083 71.505 C 149.225 71.701,153.143 71.647,154.833 71.411 C 155.246 71.354,155.696 71.301,155.833 71.295 C 155.971 71.288,156.127 71.217,156.180 71.136 C 156.233 71.055,156.626 70.946,157.053 70.894 C 157.481 70.842,158.109 70.657,158.450 70.483 C 158.791 70.309,159.192 70.167,159.341 70.167 C 159.489 70.167,159.667 70.110,159.736 70.042 C 159.805 69.973,159.914 69.917,159.979 69.917 C 160.134 69.917,161.726 69.113,161.833 68.981 C 161.879 68.924,162.068 68.831,162.253 68.773 C 162.438 68.716,163.113 68.297,163.753 67.842 C 165.172 66.834,165.178 66.829,165.549 66.324 C 165.714 66.100,165.795 66.024,165.729 66.155 C 165.663 66.286,165.878 66.189,166.207 65.938 C 167.067 65.282,167.110 65.025,166.466 64.399 C 166.164 64.105,165.827 63.764,165.717 63.641 C 165.608 63.518,165.102 63.011,164.592 62.515 C 164.083 62.019,163.667 61.550,163.667 61.473 C 163.667 61.396,163.553 61.333,163.413 61.333 C 163.274 61.333,163.078 61.154,162.978 60.935 C 162.878 60.716,162.635 60.450,162.439 60.345 C 162.242 60.240,161.902 59.892,161.683 59.573 C 161.464 59.254,161.251 59.027,161.208 59.069 C 161.166 59.112,160.828 58.795,160.456 58.365 C 159.848 57.661,158.894 56.833,158.690 56.833 C 158.647 56.833,158.657 56.879,158.712 56.934 C 158.767 56.990,158.461 57.302,158.031 57.627 C 157.602 57.953,157.225 58.283,157.194 58.361 C 157.163 58.439,157.070 58.460,156.986 58.408 C 156.902 58.356,156.833 58.381,156.833 58.463 C 156.833 58.546,156.536 58.712,156.172 58.832 C 155.809 58.952,155.545 59.105,155.587 59.173 C 155.629 59.241,155.386 59.349,155.046 59.413 C 154.706 59.476,154.238 59.624,154.006 59.742 C 153.773 59.859,153.377 59.943,153.125 59.930 C 152.873 59.917,152.667 59.964,152.667 60.036 C 152.667 60.108,151.837 60.167,150.823 60.167 C 149.810 60.167,149.017 60.108,149.061 60.036 C 149.106 59.964,148.644 59.810,148.034 59.695 C 147.425 59.579,146.887 59.427,146.838 59.358 C 146.790 59.288,146.487 59.130,146.167 59.006 C 145.846 58.883,145.508 58.700,145.416 58.599 C 145.324 58.499,145.001 58.278,144.697 58.109 C 143.956 57.696,141.981 55.666,142.113 55.452 C 142.171 55.358,142.137 55.332,142.037 55.394 C 141.931 55.459,141.770 55.265,141.645 54.919 C 141.528 54.597,141.369 54.333,141.290 54.333 C 141.211 54.333,141.187 54.268,141.236 54.189 C 141.285 54.110,141.182 53.915,141.007 53.757 C 140.832 53.598,140.730 53.363,140.780 53.233 C 140.829 53.103,140.745 52.806,140.591 52.572 C 140.433 52.330,140.277 51.665,140.231 51.032 C 140.186 50.418,140.121 49.779,140.086 49.610 C 139.990 49.142,140.315 46.306,140.489 46.097 C 140.573 45.995,140.731 45.557,140.841 45.123 C 140.950 44.689,141.110 44.333,141.196 44.333 C 141.282 44.333,141.307 44.258,141.250 44.167 C 141.193 44.075,141.226 44.000,141.323 44.000 C 141.421 44.000,141.484 43.944,141.465 43.875 C 141.407 43.670,141.863 42.933,142.193 42.699 C 142.362 42.579,142.500 42.410,142.500 42.322 C 142.500 42.235,142.725 41.928,143.000 41.640 C 143.275 41.353,143.500 41.061,143.500 40.992 C 143.500 40.922,143.725 40.788,144.000 40.692 C 144.275 40.596,144.500 40.438,144.500 40.342 C 144.500 40.246,144.571 40.167,144.658 40.167 C 144.745 40.167,145.150 39.942,145.557 39.667 C 145.965 39.392,146.381 39.167,146.483 39.167 C 146.584 39.167,146.667 39.087,146.667 38.990 C 146.667 38.893,146.742 38.860,146.833 38.917 C 146.925 38.973,147.000 38.947,147.000 38.858 C 147.000 38.769,147.131 38.717,147.292 38.743 C 147.452 38.768,147.883 38.668,148.250 38.520 C 149.040 38.200,153.434 38.132,153.634 38.436 C 153.698 38.533,154.125 38.704,154.583 38.816 C 155.042 38.928,155.696 39.203,156.038 39.426 C 156.380 39.650,156.727 39.833,156.809 39.833 C 156.892 39.833,157.052 39.945,157.165 40.081 C 157.278 40.218,157.426 40.296,157.494 40.254 C 157.561 40.212,157.717 40.366,157.839 40.595 C 157.962 40.824,158.155 40.976,158.267 40.933 C 158.380 40.890,158.514 40.962,158.564 41.094 C 158.615 41.226,158.774 41.333,158.919 41.333 C 159.242 41.333,160.024 40.579,159.865 40.420 C 159.802 40.357,159.831 40.331,159.930 40.361 C 160.134 40.424,163.000 37.553,163.000 37.285 C 163.000 37.190,163.043 37.154,163.096 37.207 C 163.218 37.329,164.431 36.156,164.375 35.971 C 164.352 35.895,164.411 35.833,164.506 35.833 C 164.798 35.833,166.918 33.600,166.861 33.353 C 166.793 33.055,165.078 31.333,164.850 31.333 C 164.756 31.333,164.601 31.189,164.506 31.012 C 164.412 30.835,164.165 30.664,163.959 30.633 C 163.752 30.601,163.604 30.478,163.629 30.359 C 163.654 30.239,163.607 30.184,163.523 30.236 C 163.439 30.287,163.279 30.219,163.167 30.083 C 163.054 29.948,162.900 29.875,162.825 29.922 C 162.749 29.969,162.626 29.903,162.552 29.776 C 162.389 29.498,161.452 29.000,161.092 29.000 C 160.950 29.000,160.833 28.937,160.833 28.860 C 160.833 28.783,160.533 28.621,160.167 28.500 C 159.800 28.379,159.500 28.217,159.500 28.140 C 159.500 28.063,159.375 28.000,159.223 28.000 C 158.920 28.000,157.281 27.545,156.750 27.313 C 156.276 27.106,154.255 26.841,153.125 26.837 C 152.598 26.835,152.167 26.758,152.167 26.667 C 152.167 26.463,150.056 26.441,149.931 26.643 M195.583 26.667 C 195.527 26.758,194.904 26.835,194.198 26.837 C 193.493 26.839,192.617 26.921,192.250 27.019 C 191.883 27.116,191.302 27.194,190.958 27.193 C 190.615 27.191,190.333 27.256,190.333 27.338 C 190.333 27.420,189.888 27.579,189.343 27.692 C 188.780 27.808,188.396 27.967,188.454 28.060 C 188.511 28.153,188.443 28.181,188.295 28.124 C 188.071 28.038,186.740 28.557,186.500 28.824 C 186.323 29.021,185.659 29.333,185.419 29.333 C 185.228 29.333,185.167 29.135,185.167 28.518 C 185.167 27.441,185.519 27.500,179.068 27.500 L 173.498 27.500 173.501 49.167 L 173.505 70.833 179.336 70.833 L 185.167 70.833 185.167 59.305 C 185.167 48.444,185.265 45.667,185.647 45.667 C 185.710 45.667,185.865 45.313,185.992 44.882 C 186.250 44.009,186.739 43.192,187.496 42.370 C 187.773 42.069,188.000 41.762,188.000 41.687 C 188.000 41.613,188.150 41.416,188.333 41.250 C 188.517 41.084,188.667 40.989,188.667 41.038 C 188.667 41.088,188.943 40.875,189.280 40.566 C 189.617 40.257,189.925 40.036,189.964 40.075 C 190.003 40.114,190.222 39.944,190.450 39.698 C 190.679 39.452,190.896 39.270,190.934 39.294 C 190.971 39.318,191.273 39.224,191.604 39.085 C 191.936 38.947,192.315 38.833,192.447 38.833 C 192.579 38.833,192.643 38.763,192.590 38.678 C 192.537 38.592,192.700 38.545,192.955 38.573 C 193.209 38.601,193.455 38.564,193.502 38.491 C 193.810 38.013,197.942 38.109,199.167 38.624 C 199.396 38.720,199.920 38.899,200.331 39.022 C 200.743 39.146,201.212 39.378,201.373 39.540 C 201.535 39.701,201.768 39.833,201.891 39.833 C 202.014 39.833,202.251 39.984,202.418 40.168 C 202.584 40.352,202.754 40.468,202.795 40.427 C 202.837 40.386,203.056 40.573,203.283 40.843 C 203.510 41.112,203.805 41.333,203.937 41.333 C 204.222 41.333,212.000 33.616,212.000 33.334 C 212.000 33.093,211.088 32.167,210.850 32.167 C 210.753 32.167,210.551 31.979,210.401 31.750 C 210.251 31.521,209.983 31.333,209.804 31.333 C 209.626 31.333,209.518 31.272,209.564 31.197 C 209.611 31.122,209.428 30.931,209.158 30.771 C 208.888 30.612,208.667 30.406,208.667 30.314 C 208.667 30.222,208.598 30.190,208.513 30.242 C 208.429 30.294,208.260 30.237,208.138 30.116 C 208.016 29.995,207.673 29.789,207.375 29.657 C 207.077 29.526,206.833 29.370,206.833 29.311 C 206.833 29.251,206.646 29.156,206.417 29.098 C 206.188 29.041,206.000 28.916,206.000 28.820 C 206.000 28.725,205.934 28.688,205.853 28.738 C 205.773 28.787,205.355 28.641,204.924 28.412 C 204.494 28.183,204.072 28.039,203.987 28.091 C 203.903 28.144,203.833 28.122,203.833 28.044 C 203.833 27.966,203.365 27.800,202.792 27.674 C 202.219 27.549,201.711 27.388,201.663 27.316 C 201.547 27.143,199.020 26.833,197.723 26.833 C 197.153 26.833,196.640 26.758,196.583 26.667 C 196.527 26.575,196.302 26.500,196.083 26.500 C 195.865 26.500,195.640 26.575,195.583 26.667 M320.972 26.644 C 320.942 26.723,320.129 26.833,319.167 26.889 C 318.204 26.944,317.192 27.039,316.917 27.100 C 316.642 27.161,316.285 27.205,316.125 27.199 C 315.965 27.192,315.833 27.250,315.833 27.325 C 315.833 27.401,315.590 27.506,315.292 27.557 C 314.024 27.776,313.667 27.880,313.667 28.029 C 313.667 28.115,313.592 28.140,313.500 28.083 C 313.408 28.027,313.333 28.060,313.333 28.157 C 313.333 28.254,313.151 28.333,312.929 28.333 C 312.706 28.333,312.407 28.451,312.263 28.594 C 312.120 28.737,311.908 28.800,311.793 28.734 C 311.678 28.668,311.637 28.672,311.702 28.745 C 311.827 28.883,310.749 29.500,310.381 29.500 C 310.263 29.500,310.167 29.574,310.167 29.663 C 310.167 29.753,309.979 29.874,309.750 29.932 C 309.521 29.989,309.333 30.096,309.333 30.169 C 309.333 30.242,309.015 30.493,308.625 30.727 C 307.849 31.194,307.392 31.576,305.458 33.376 C 304.748 34.037,304.167 34.671,304.167 34.783 C 304.167 34.896,304.017 35.069,303.833 35.167 C 303.650 35.265,303.500 35.447,303.500 35.572 C 303.500 35.696,303.275 36.039,303.000 36.333 C 302.725 36.628,302.500 36.973,302.500 37.101 C 302.500 37.229,302.430 37.333,302.345 37.333 C 302.206 37.333,301.000 39.649,301.000 39.916 C 301.000 39.975,300.894 40.129,300.765 40.259 C 300.636 40.388,300.479 40.795,300.417 41.163 C 300.355 41.532,300.236 41.833,300.152 41.833 C 300.068 41.833,300.012 41.890,300.026 41.958 C 300.041 42.027,300.009 42.196,299.955 42.333 C 298.946 44.899,298.769 50.793,299.593 54.417 C 299.739 55.058,299.895 55.769,299.939 55.995 C 299.983 56.221,300.084 56.484,300.162 56.578 C 300.240 56.673,300.356 57.031,300.420 57.375 C 300.485 57.719,300.608 58.000,300.695 58.000 C 300.782 58.000,300.807 58.075,300.750 58.167 C 300.693 58.258,300.726 58.333,300.823 58.333 C 300.921 58.333,301.000 58.437,301.000 58.563 C 301.000 58.689,301.112 58.885,301.248 58.998 C 301.385 59.112,301.450 59.279,301.393 59.371 C 301.337 59.462,301.394 59.601,301.520 59.679 C 301.647 59.757,301.755 59.880,301.762 59.952 C 301.788 60.238,302.255 61.091,302.455 61.217 C 302.571 61.290,302.667 61.428,302.667 61.524 C 302.667 61.739,303.331 62.601,303.340 62.397 C 303.343 62.316,303.446 62.475,303.567 62.750 C 303.832 63.350,307.274 66.833,307.603 66.833 C 307.729 66.833,307.833 66.911,307.833 67.005 C 307.833 67.100,307.959 67.225,308.112 67.284 C 308.266 67.343,308.523 67.509,308.684 67.654 C 309.347 68.249,309.513 68.345,309.695 68.233 C 309.810 68.161,309.839 68.189,309.769 68.303 C 309.699 68.416,309.817 68.531,310.064 68.593 C 310.290 68.650,310.604 68.838,310.761 69.012 C 310.917 69.185,311.298 69.374,311.606 69.432 C 311.914 69.490,312.167 69.616,312.167 69.713 C 312.167 69.810,312.217 69.839,312.278 69.777 C 312.340 69.716,312.546 69.766,312.737 69.890 C 312.927 70.013,313.308 70.169,313.582 70.237 C 313.856 70.304,314.124 70.431,314.178 70.518 C 314.232 70.605,314.757 70.764,315.346 70.871 C 315.935 70.977,316.465 71.136,316.525 71.223 C 316.584 71.311,316.763 71.332,316.921 71.271 C 317.079 71.211,317.303 71.239,317.418 71.334 C 317.990 71.809,326.667 71.646,326.667 71.160 C 326.667 71.089,327.060 70.978,327.542 70.914 C 328.023 70.849,328.717 70.666,329.083 70.506 C 330.220 70.011,330.410 69.946,330.625 69.981 C 330.740 69.999,330.833 69.943,330.833 69.854 C 330.833 69.766,331.190 69.561,331.625 69.398 C 332.060 69.234,332.472 69.012,332.540 68.902 C 332.607 68.793,332.840 68.659,333.057 68.605 C 333.274 68.550,333.740 68.242,334.092 67.920 C 334.444 67.597,334.825 67.333,334.940 67.333 C 335.054 67.333,335.265 67.167,335.407 66.963 C 335.550 66.759,335.667 66.650,335.667 66.720 C 335.667 66.790,335.973 66.562,336.348 66.215 C 336.723 65.868,337.135 65.523,337.265 65.450 C 337.394 65.377,337.500 65.201,337.500 65.060 C 337.500 64.743,336.654 63.822,336.468 63.936 C 336.394 63.982,336.333 63.931,336.333 63.823 C 336.333 63.552,331.468 58.667,331.301 58.770 C 331.227 58.816,331.167 58.765,331.167 58.657 C 331.167 58.430,329.907 57.167,329.680 57.167 C 329.596 57.167,329.501 57.086,329.468 56.988 C 329.435 56.889,329.212 56.991,328.972 57.213 C 328.733 57.435,328.416 57.663,328.268 57.720 C 328.121 57.777,328.000 57.883,328.000 57.957 C 328.000 58.030,327.644 58.276,327.208 58.503 C 326.773 58.731,326.392 58.973,326.361 59.042 C 326.331 59.110,326.206 59.167,326.083 59.167 C 325.961 59.167,325.836 59.241,325.806 59.332 C 325.775 59.423,325.525 59.531,325.250 59.573 C 324.698 59.656,324.083 59.794,324.083 59.833 C 324.083 60.514,318.527 60.003,316.923 59.175 C 316.560 58.987,316.170 58.833,316.056 58.833 C 315.943 58.833,315.773 58.702,315.680 58.542 C 315.587 58.381,315.508 58.306,315.505 58.375 C 315.502 58.444,315.356 58.369,315.180 58.208 C 315.004 58.048,314.482 57.579,314.019 57.167 C 313.556 56.754,313.175 56.332,313.172 56.229 C 313.169 56.125,312.998 55.927,312.792 55.789 C 312.585 55.650,312.460 55.491,312.512 55.437 C 312.565 55.382,319.511 55.334,327.948 55.332 L 343.289 55.327 343.478 54.385 C 343.582 53.868,343.667 53.232,343.667 52.972 C 343.667 52.712,343.723 52.500,343.792 52.500 C 343.917 52.500,344.035 51.065,344.053 49.333 C 344.072 47.546,343.962 45.667,343.838 45.667 C 343.730 45.667,343.508 44.509,343.448 43.637 C 343.437 43.484,343.365 43.397,343.286 43.446 C 343.208 43.494,343.164 43.432,343.187 43.308 C 343.244 43.007,343.005 41.997,342.778 41.583 C 342.677 41.400,342.583 41.194,342.568 41.125 C 342.554 41.056,342.524 40.944,342.502 40.875 C 342.480 40.806,342.446 40.675,342.427 40.583 C 342.325 40.089,341.945 39.333,341.799 39.333 C 341.707 39.333,341.674 39.221,341.727 39.083 C 341.780 38.946,341.750 38.833,341.661 38.833 C 341.573 38.833,341.500 38.721,341.500 38.583 C 341.500 38.446,341.350 38.183,341.167 38.000 C 340.983 37.817,340.839 37.648,340.845 37.625 C 340.898 37.437,340.452 36.638,340.253 36.561 C 340.114 36.508,340.000 36.364,340.000 36.242 C 340.000 36.119,339.831 35.901,339.625 35.756 C 339.419 35.612,339.287 35.457,339.333 35.413 C 339.379 35.369,339.135 35.043,338.792 34.688 C 338.448 34.334,338.167 33.992,338.167 33.927 C 338.167 33.731,336.764 32.505,334.050 30.330 C 333.940 30.241,333.565 30.038,333.217 29.876 C 332.868 29.715,332.523 29.490,332.450 29.375 C 332.377 29.260,332.229 29.167,332.123 29.167 C 332.016 29.167,331.326 28.873,330.589 28.514 C 329.853 28.155,328.781 27.765,328.208 27.647 C 327.635 27.530,327.167 27.368,327.167 27.288 C 327.167 27.208,326.998 27.165,326.792 27.191 C 326.585 27.218,326.326 27.183,326.215 27.114 C 326.104 27.045,325.145 26.942,324.084 26.885 C 323.023 26.828,322.115 26.718,322.067 26.641 C 321.953 26.456,321.044 26.458,320.972 26.644 M216.239 27.719 C 216.119 28.030,216.257 52.811,216.382 53.417 C 216.502 54.001,216.584 54.321,216.702 54.667 C 216.749 54.804,216.991 55.554,217.240 56.333 C 217.489 57.112,217.736 57.862,217.790 58.000 C 217.844 58.137,217.902 58.288,217.920 58.333 C 218.266 59.223,218.580 59.833,218.692 59.833 C 218.770 59.833,218.833 59.912,218.833 60.008 C 218.833 60.221,219.822 61.766,220.311 62.317 C 220.507 62.537,220.667 62.790,220.667 62.878 C 220.667 62.966,220.944 63.292,221.283 63.603 C 221.621 63.913,221.849 64.167,221.789 64.167 C 221.729 64.167,222.049 64.542,222.500 65.000 C 222.951 65.458,223.363 65.833,223.416 65.833 C 223.468 65.833,223.749 66.077,224.040 66.375 C 224.331 66.673,224.872 67.113,225.243 67.352 C 225.613 67.592,226.097 67.948,226.317 68.144 C 226.537 68.340,226.856 68.500,227.026 68.500 C 227.195 68.500,227.333 68.575,227.333 68.667 C 227.333 68.758,227.446 68.833,227.583 68.833 C 227.721 68.833,227.833 68.908,227.833 69.000 C 227.833 69.092,227.890 69.155,227.958 69.141 C 228.195 69.091,229.172 69.606,229.058 69.719 C 228.953 69.825,229.346 69.899,229.760 69.853 C 229.857 69.842,230.085 69.971,230.266 70.140 C 230.447 70.309,230.724 70.428,230.881 70.405 C 231.038 70.382,231.167 70.421,231.167 70.492 C 231.167 70.564,231.725 70.721,232.407 70.843 C 233.089 70.964,233.608 71.127,233.559 71.206 C 233.511 71.284,233.684 71.318,233.944 71.280 C 234.204 71.243,234.511 71.286,234.626 71.377 C 234.994 71.668,242.238 71.623,242.419 71.329 C 242.460 71.263,242.720 71.236,242.997 71.268 C 243.273 71.300,243.500 71.260,243.500 71.179 C 243.500 71.098,243.875 70.980,244.333 70.917 C 244.791 70.854,245.209 70.733,245.261 70.648 C 245.314 70.564,245.426 70.538,245.512 70.590 C 245.597 70.643,245.667 70.605,245.667 70.507 C 245.667 70.406,245.850 70.360,246.083 70.402 C 246.313 70.444,246.500 70.408,246.500 70.322 C 246.500 70.237,246.606 70.167,246.736 70.167 C 246.866 70.167,247.467 69.904,248.072 69.583 C 249.289 68.938,249.472 68.882,249.168 69.248 C 249.055 69.384,249.006 69.609,249.059 69.748 C 249.113 69.887,249.100 70.000,249.031 70.000 C 248.962 70.000,248.806 70.337,248.685 70.750 C 248.563 71.162,248.396 71.500,248.315 71.500 C 248.233 71.500,248.183 71.556,248.202 71.625 C 248.253 71.804,247.863 72.471,247.487 72.846 C 247.311 73.022,247.167 73.279,247.167 73.417 C 247.167 73.554,247.093 73.667,247.003 73.667 C 246.778 73.667,245.667 74.764,245.667 74.986 C 245.667 75.085,245.514 75.167,245.328 75.167 C 245.142 75.167,244.949 75.273,244.899 75.404 C 244.849 75.534,244.520 75.756,244.168 75.897 C 243.816 76.037,243.480 76.231,243.421 76.326 C 243.362 76.422,243.168 76.500,242.990 76.500 C 242.812 76.500,242.667 76.564,242.667 76.641 C 242.667 76.719,242.430 76.789,242.141 76.798 C 241.852 76.806,241.571 76.882,241.516 76.966 C 241.208 77.444,236.169 77.481,235.594 77.011 C 235.496 76.931,235.098 76.781,234.708 76.677 C 234.319 76.572,234.000 76.424,234.000 76.346 C 234.000 76.269,233.831 76.151,233.625 76.084 C 233.419 76.016,233.213 75.945,233.167 75.925 C 233.121 75.905,232.877 75.803,232.625 75.698 C 232.373 75.594,232.167 75.464,232.167 75.411 C 232.167 75.357,232.242 75.360,232.333 75.417 C 232.425 75.473,232.500 75.480,232.500 75.431 C 232.500 75.382,232.294 75.235,232.042 75.104 C 231.790 74.974,231.368 74.667,231.106 74.424 C 230.655 74.005,230.617 73.997,230.417 74.282 C 230.301 74.448,228.503 76.293,226.421 78.381 C 222.662 82.153,222.394 82.509,223.107 82.782 C 223.262 82.842,223.668 83.178,224.008 83.529 C 224.349 83.880,224.744 84.167,224.886 84.167 C 225.028 84.167,225.192 84.317,225.250 84.500 C 225.308 84.683,225.452 84.833,225.569 84.833 C 225.686 84.833,225.916 84.982,226.080 85.163 C 226.244 85.344,226.433 85.458,226.501 85.416 C 226.569 85.374,226.822 85.522,227.062 85.745 C 227.303 85.968,227.500 86.108,227.500 86.055 C 227.500 86.002,227.612 86.053,227.750 86.167 C 227.887 86.281,228.001 86.309,228.003 86.229 C 228.004 86.149,228.060 86.163,228.128 86.261 C 228.301 86.512,230.007 87.333,230.356 87.333 C 230.516 87.333,230.697 87.413,230.757 87.511 C 230.818 87.609,230.976 87.648,231.109 87.597 C 231.242 87.546,231.309 87.571,231.258 87.654 C 231.207 87.736,231.484 87.856,231.874 87.921 C 232.264 87.985,232.658 88.097,232.750 88.170 C 233.369 88.663,239.391 88.999,241.678 88.668 C 242.280 88.581,243.012 88.492,243.303 88.469 C 243.595 88.447,243.833 88.369,243.833 88.295 C 243.833 88.221,244.032 88.210,244.275 88.271 C 244.586 88.349,244.681 88.325,244.598 88.191 C 244.524 88.071,244.608 88.000,244.822 88.000 C 245.010 88.000,245.633 87.820,246.207 87.600 C 247.456 87.120,247.716 87.036,247.858 87.063 C 247.917 87.074,248.104 86.961,248.274 86.811 C 248.444 86.662,248.752 86.488,248.957 86.425 C 249.163 86.363,249.426 86.223,249.541 86.114 C 249.656 86.006,250.012 85.782,250.333 85.617 C 251.592 84.969,251.858 84.796,251.945 84.569 C 251.995 84.439,252.119 84.333,252.221 84.333 C 252.323 84.333,252.559 84.165,252.745 83.958 C 252.931 83.752,253.420 83.322,253.831 83.002 C 254.243 82.682,254.745 82.232,254.947 82.002 C 255.150 81.772,255.577 81.287,255.897 80.926 C 256.217 80.564,256.444 80.211,256.401 80.141 C 256.358 80.072,256.513 79.890,256.745 79.738 C 256.977 79.586,257.167 79.358,257.167 79.231 C 257.167 79.104,257.238 79.000,257.326 79.000 C 257.413 79.000,257.615 78.719,257.775 78.375 C 257.935 78.031,258.107 77.712,258.158 77.667 C 258.209 77.621,258.510 77.058,258.828 76.417 C 259.145 75.775,259.474 75.202,259.557 75.144 C 259.641 75.085,259.663 74.962,259.606 74.869 C 259.548 74.777,259.615 74.487,259.752 74.226 C 259.890 73.964,260.049 73.469,260.106 73.125 C 260.163 72.781,260.267 72.500,260.337 72.500 C 260.408 72.500,260.552 71.844,260.658 71.042 C 260.764 70.240,260.921 69.355,261.007 69.075 C 261.102 68.769,261.164 60.389,261.164 48.042 L 261.164 27.516 255.420 27.504 L 249.676 27.492 249.669 38.339 C 249.663 48.549,249.533 52.274,249.177 52.494 C 249.093 52.545,249.001 52.812,248.971 53.085 C 248.941 53.359,248.788 53.726,248.631 53.900 C 248.474 54.075,248.384 54.281,248.432 54.359 C 248.480 54.436,248.457 54.500,248.381 54.500 C 248.305 54.500,248.097 54.770,247.920 55.099 C 247.483 55.911,245.533 57.884,244.884 58.171 C 244.594 58.299,244.387 58.452,244.423 58.511 C 244.496 58.628,243.661 59.076,243.458 59.029 C 243.390 59.013,243.333 59.064,243.333 59.142 C 243.333 59.301,241.244 59.919,240.792 59.893 C 240.631 59.884,240.500 59.942,240.500 60.022 C 240.500 60.195,236.942 60.219,236.770 60.048 C 236.704 59.982,236.486 59.911,236.284 59.889 C 235.621 59.817,234.333 59.446,234.333 59.328 C 234.333 59.264,233.979 59.077,233.546 58.911 C 232.743 58.605,232.670 58.558,231.836 57.833 C 231.572 57.604,231.129 57.229,230.850 57.000 C 230.571 56.771,230.341 56.523,230.338 56.450 C 230.336 56.377,230.076 56.052,229.761 55.727 C 229.399 55.354,229.225 55.041,229.289 54.875 C 229.349 54.718,229.321 54.655,229.219 54.717 C 229.083 54.801,228.739 54.326,228.580 53.833 C 228.565 53.788,228.415 53.450,228.247 53.083 C 228.078 52.717,227.959 52.281,227.982 52.115 C 228.005 51.949,227.947 51.721,227.853 51.607 C 227.616 51.321,227.632 51.985,227.558 39.125 L 227.491 27.500 221.907 27.500 C 217.444 27.500,216.306 27.544,216.239 27.719 M352.333 27.738 C 352.333 27.869,352.442 28.085,352.575 28.218 C 352.708 28.351,352.866 28.656,352.927 28.897 C 352.987 29.137,353.103 29.333,353.185 29.333 C 353.266 29.333,353.321 29.390,353.306 29.458 C 353.291 29.527,353.441 29.946,353.639 30.389 C 353.838 30.832,354.000 31.255,354.000 31.329 C 354.000 31.404,354.103 31.504,354.229 31.552 C 354.355 31.601,354.508 31.909,354.570 32.237 C 354.631 32.565,354.746 32.833,354.825 32.833 C 354.903 32.833,355.046 33.058,355.142 33.333 C 355.238 33.608,355.383 33.833,355.465 33.833 C 355.546 33.833,355.712 34.133,355.833 34.500 C 355.954 34.867,356.113 35.167,356.187 35.167 C 356.260 35.167,356.410 35.467,356.520 35.833 C 356.630 36.200,356.787 36.500,356.870 36.500 C 356.952 36.500,356.973 36.575,356.917 36.667 C 356.860 36.758,356.877 36.833,356.953 36.833 C 357.030 36.833,357.239 37.208,357.417 37.667 C 357.595 38.125,357.787 38.500,357.844 38.500 C 357.901 38.500,358.038 38.802,358.148 39.171 C 358.259 39.541,358.412 39.805,358.487 39.758 C 358.563 39.711,358.719 40.009,358.834 40.420 C 358.949 40.831,359.109 41.167,359.188 41.167 C 359.268 41.167,359.333 41.270,359.333 41.396 C 359.333 41.523,359.446 41.719,359.583 41.833 C 359.721 41.947,359.833 42.182,359.833 42.354 C 359.833 42.526,359.900 42.667,359.982 42.667 C 360.064 42.667,360.178 42.854,360.235 43.083 C 360.293 43.313,360.418 43.500,360.513 43.500 C 360.608 43.500,360.640 43.575,360.583 43.667 C 360.527 43.758,360.560 43.833,360.657 43.833 C 360.754 43.833,360.822 43.890,360.808 43.958 C 360.766 44.158,361.342 45.389,361.626 45.708 C 361.768 45.869,361.833 46.000,361.770 46.000 C 361.707 46.000,361.749 46.169,361.863 46.375 C 361.978 46.581,362.076 46.788,362.082 46.833 C 362.087 46.879,362.213 47.104,362.362 47.333 C 362.510 47.563,362.687 47.938,362.755 48.167 C 362.823 48.396,362.953 48.631,363.043 48.689 C 363.302 48.856,363.236 49.621,362.938 49.920 C 362.789 50.069,362.667 50.292,362.667 50.417 C 362.667 50.541,362.568 50.742,362.446 50.863 C 362.325 50.984,362.214 51.140,362.198 51.209 C 362.183 51.278,362.057 51.606,361.919 51.938 C 361.780 52.269,361.667 52.607,361.667 52.687 C 361.667 52.767,361.592 52.833,361.500 52.833 C 361.408 52.833,361.333 52.932,361.333 53.052 C 361.333 53.172,361.196 53.418,361.028 53.598 C 360.860 53.779,360.582 54.299,360.411 54.755 C 360.240 55.210,360.054 55.621,359.998 55.667 C 359.941 55.712,359.610 56.350,359.262 57.083 C 358.365 58.969,357.853 59.982,357.408 60.750 C 356.979 61.489,355.425 64.518,355.402 64.660 C 355.345 65.008,354.873 65.817,354.781 65.725 C 354.718 65.662,354.667 65.704,354.667 65.819 C 354.667 66.054,353.504 68.539,353.334 68.667 C 353.273 68.712,353.117 68.994,352.988 69.292 C 352.858 69.590,352.691 69.833,352.616 69.833 C 352.541 69.833,352.527 69.908,352.583 70.000 C 352.640 70.092,352.623 70.167,352.545 70.167 C 352.468 70.167,352.393 70.317,352.379 70.500 C 352.354 70.828,352.457 70.833,359.260 70.833 C 364.441 70.833,366.167 70.784,366.167 70.637 C 366.167 70.416,367.343 67.962,367.511 67.833 C 367.571 67.787,367.720 67.469,367.843 67.125 C 367.966 66.781,368.121 66.500,368.187 66.500 C 368.253 66.500,368.431 66.125,368.583 65.667 C 368.736 65.208,368.937 64.833,369.031 64.833 C 369.125 64.833,369.159 64.721,369.106 64.583 C 369.054 64.446,369.067 64.333,369.135 64.333 C 369.204 64.333,369.514 63.790,369.825 63.125 C 370.136 62.460,370.459 61.871,370.543 61.815 C 370.627 61.759,370.699 61.646,370.703 61.565 C 370.718 61.313,371.070 60.592,371.264 60.417 C 371.365 60.325,371.547 59.987,371.668 59.667 C 371.789 59.346,371.980 58.971,372.091 58.833 C 372.203 58.696,372.350 58.399,372.419 58.174 C 372.488 57.950,372.647 57.663,372.772 57.538 C 372.897 57.412,373.000 57.201,373.000 57.068 C 373.000 56.935,373.185 56.534,373.410 56.177 C 373.636 55.820,373.869 55.334,373.928 55.097 C 373.988 54.860,374.097 54.667,374.172 54.667 C 374.246 54.667,374.401 54.385,374.515 54.042 L 374.723 53.417 374.962 54.000 C 375.093 54.321,375.287 54.638,375.392 54.706 C 375.497 54.773,375.508 54.831,375.417 54.833 C 375.306 54.837,375.306 54.879,375.417 54.961 C 375.684 55.157,376.167 56.164,376.167 56.523 C 376.167 56.705,376.242 56.807,376.333 56.750 C 376.425 56.693,376.500 56.771,376.500 56.923 C 376.500 57.074,376.645 57.402,376.822 57.651 C 376.999 57.900,377.195 58.305,377.257 58.552 C 377.319 58.798,377.436 59.000,377.518 59.000 C 377.600 59.000,377.648 59.060,377.625 59.133 C 377.563 59.330,378.378 60.895,378.623 61.050 C 378.739 61.123,378.833 61.324,378.833 61.496 C 378.833 61.669,378.933 61.909,379.055 62.031 C 379.177 62.153,379.246 62.346,379.208 62.460 C 379.170 62.574,379.208 62.667,379.293 62.667 C 379.377 62.667,379.546 62.967,379.667 63.333 C 379.788 63.700,379.939 64.000,380.004 64.000 C 380.069 64.000,380.250 64.337,380.408 64.750 C 380.565 65.162,380.745 65.500,380.807 65.500 C 380.868 65.500,381.015 65.808,381.133 66.185 C 381.250 66.562,381.460 66.984,381.598 67.122 C 381.736 67.260,381.893 67.589,381.946 67.853 C 381.998 68.117,382.101 68.333,382.175 68.333 C 382.248 68.333,382.394 68.597,382.501 68.918 C 382.622 69.285,382.766 69.461,382.888 69.391 C 382.996 69.330,383.032 69.337,382.970 69.406 C 382.907 69.476,383.008 69.826,383.195 70.183 L 383.534 70.833 390.433 70.833 C 394.922 70.833,397.333 70.775,397.333 70.667 C 397.333 70.575,397.250 70.500,397.149 70.500 C 397.047 70.500,397.008 70.387,397.060 70.250 C 397.113 70.112,397.089 70.000,397.008 70.000 C 396.926 70.000,396.775 69.743,396.671 69.430 C 396.568 69.116,396.374 68.770,396.241 68.660 C 396.109 68.549,396.000 68.318,396.000 68.146 C 396.000 67.974,395.921 67.833,395.823 67.833 C 395.726 67.833,395.693 67.758,395.750 67.667 C 395.807 67.575,395.778 67.500,395.687 67.500 C 395.596 67.500,395.428 67.241,395.314 66.926 C 395.200 66.610,395.032 66.397,394.941 66.453 C 394.845 66.513,394.821 66.440,394.883 66.277 C 394.942 66.125,394.924 66.000,394.844 66.000 C 394.698 66.000,394.265 65.023,394.309 64.792 C 394.323 64.723,394.277 64.667,394.207 64.667 C 394.138 64.667,393.983 64.423,393.863 64.125 C 393.743 63.827,393.575 63.471,393.489 63.333 C 393.403 63.196,393.258 62.896,393.166 62.667 C 393.075 62.438,392.925 62.137,392.832 62.000 C 392.740 61.862,392.534 61.487,392.374 61.167 C 392.214 60.846,392.008 60.528,391.917 60.461 C 391.806 60.379,391.806 60.337,391.917 60.333 C 392.028 60.330,392.028 60.287,391.917 60.206 C 391.825 60.138,391.538 59.671,391.279 59.167 C 391.020 58.663,390.704 58.063,390.578 57.833 C 390.225 57.192,389.833 56.299,389.833 56.134 C 389.833 56.053,389.755 55.895,389.660 55.785 C 389.471 55.565,388.552 53.861,387.979 52.667 C 387.781 52.254,387.561 51.878,387.490 51.832 C 387.418 51.785,387.308 51.541,387.245 51.290 C 387.182 51.039,387.051 50.833,386.954 50.833 C 386.857 50.833,386.824 50.788,386.879 50.732 C 386.935 50.676,386.835 50.358,386.657 50.026 C 386.270 49.304,386.240 48.618,386.583 48.333 C 386.721 48.219,386.833 48.037,386.833 47.928 C 386.833 47.651,387.446 46.408,388.071 45.417 C 388.609 44.565,391.167 39.458,391.167 39.237 C 391.167 39.170,391.358 38.864,391.592 38.557 C 391.826 38.251,391.964 38.000,391.899 38.000 C 391.835 38.000,391.897 37.869,392.038 37.708 C 392.179 37.548,392.345 37.248,392.408 37.042 C 392.471 36.835,392.592 36.667,392.678 36.667 C 392.763 36.667,392.833 36.586,392.833 36.487 C 392.833 36.264,394.012 33.781,394.172 33.667 C 394.236 33.621,394.344 33.396,394.412 33.167 C 394.480 32.938,394.749 32.412,395.009 31.998 C 395.270 31.585,395.648 30.873,395.849 30.415 C 396.050 29.958,396.268 29.546,396.333 29.500 C 396.548 29.350,397.113 27.922,397.042 27.708 C 396.988 27.546,395.482 27.500,390.264 27.500 L 383.556 27.500 383.320 27.958 C 383.190 28.210,383.009 28.472,382.917 28.539 C 382.825 28.606,382.801 28.663,382.864 28.664 C 382.926 28.666,382.682 29.230,382.322 29.918 C 381.962 30.606,381.667 31.281,381.667 31.418 C 381.667 31.555,381.597 31.667,381.513 31.667 C 381.428 31.667,381.273 31.929,381.167 32.250 C 381.061 32.571,380.901 32.833,380.811 32.833 C 380.721 32.833,380.688 32.900,380.738 32.980 C 380.788 33.061,380.680 33.317,380.498 33.548 C 380.316 33.780,380.167 34.051,380.167 34.151 C 380.167 34.251,380.104 34.333,380.027 34.333 C 379.950 34.333,379.787 34.634,379.666 35.002 C 379.544 35.370,379.345 35.755,379.223 35.856 C 379.100 35.958,379.000 36.125,379.000 36.229 C 379.000 36.459,377.984 38.511,377.742 38.770 C 377.646 38.872,377.466 39.266,377.341 39.645 C 377.216 40.023,377.062 40.333,377.000 40.333 C 376.938 40.333,376.788 40.633,376.667 41.000 C 376.546 41.367,376.371 41.667,376.279 41.667 C 376.187 41.667,376.159 41.714,376.217 41.773 C 376.276 41.831,376.194 42.075,376.037 42.315 C 375.369 43.332,375.198 43.658,374.917 44.458 C 374.877 44.573,374.754 44.667,374.644 44.667 C 374.534 44.667,374.489 44.622,374.543 44.568 C 374.640 44.471,372.785 40.734,372.486 40.425 C 372.402 40.338,372.333 40.132,372.333 39.967 C 372.333 39.802,372.261 39.667,372.172 39.667 C 372.083 39.667,372.055 39.551,372.109 39.410 C 372.169 39.254,372.126 39.172,372.001 39.202 C 371.887 39.228,371.707 39.002,371.601 38.699 C 371.495 38.395,371.342 38.208,371.261 38.282 C 371.178 38.357,371.165 38.327,371.230 38.213 C 371.340 38.022,370.933 37.208,370.615 36.981 C 370.536 36.925,370.479 36.831,370.488 36.772 C 370.497 36.713,370.390 36.394,370.252 36.062 C 370.113 35.731,370.000 35.389,370.000 35.303 C 370.000 35.217,369.913 35.201,369.808 35.266 C 369.688 35.340,369.660 35.312,369.735 35.191 C 369.801 35.085,369.704 34.787,369.521 34.529 C 369.337 34.271,369.163 33.953,369.135 33.822 C 369.107 33.691,369.046 33.546,369.000 33.500 C 368.810 33.310,368.500 32.655,368.500 32.444 C 368.500 32.320,368.350 32.045,368.167 31.833 C 367.983 31.622,367.833 31.310,367.833 31.141 C 367.833 30.972,367.770 30.833,367.692 30.833 C 367.533 30.833,366.894 29.494,366.958 29.295 C 366.981 29.224,366.931 29.167,366.846 29.167 C 366.762 29.167,366.606 28.903,366.499 28.582 C 366.124 27.444,366.509 27.500,359.071 27.500 C 353.343 27.500,352.333 27.536,352.333 27.738 M324.283 38.486 C 324.448 38.577,325.134 38.818,325.808 39.021 C 326.481 39.224,327.070 39.490,327.117 39.612 C 327.164 39.734,327.309 39.833,327.440 39.833 C 327.570 39.833,327.720 39.946,327.773 40.083 C 327.826 40.221,327.950 40.333,328.050 40.333 C 328.149 40.333,328.516 40.640,328.865 41.014 C 329.214 41.388,329.500 41.641,329.500 41.575 C 329.500 41.509,329.650 41.646,329.833 41.879 C 330.017 42.112,330.167 42.384,330.167 42.485 C 330.167 42.585,330.236 42.667,330.321 42.667 C 330.447 42.667,331.000 43.570,331.000 43.776 C 331.000 44.002,312.194 43.811,312.106 43.583 C 312.054 43.446,312.085 43.333,312.176 43.333 C 312.267 43.333,312.413 43.146,312.500 42.917 C 312.587 42.688,312.740 42.500,312.839 42.500 C 312.938 42.500,312.978 42.433,312.927 42.351 C 312.877 42.269,312.947 42.159,313.084 42.106 C 313.221 42.053,313.333 41.934,313.333 41.840 C 313.333 41.631,313.860 41.000,314.035 41.000 C 314.166 41.000,314.554 40.705,315.296 40.042 C 315.527 39.835,315.817 39.667,315.941 39.667 C 316.065 39.667,316.167 39.587,316.167 39.490 C 316.167 39.393,316.233 39.355,316.314 39.405 C 316.396 39.455,316.555 39.385,316.668 39.248 C 316.781 39.112,317.052 39.000,317.270 39.000 C 317.488 39.000,317.667 38.944,317.667 38.875 C 317.667 38.806,317.905 38.733,318.196 38.713 C 318.487 38.692,318.769 38.604,318.823 38.517 C 319.041 38.164,323.652 38.137,324.283 38.486 M67.931 42.438 C 68.173 42.564,68.470 42.667,68.590 42.667 C 68.710 42.667,69.031 42.854,69.303 43.083 C 69.575 43.313,69.879 43.500,69.977 43.500 C 70.076 43.500,70.108 43.625,70.050 43.777 C 69.983 43.951,70.010 44.014,70.120 43.945 C 70.219 43.884,70.418 44.092,70.573 44.418 C 70.725 44.738,70.920 45.000,71.008 45.000 C 71.095 45.000,71.167 45.150,71.167 45.333 C 71.167 45.517,71.223 45.667,71.292 45.667 C 71.361 45.667,71.433 45.873,71.451 46.125 C 71.470 46.377,71.520 46.903,71.564 47.294 C 71.607 47.685,71.580 47.966,71.503 47.919 C 71.427 47.872,71.313 48.208,71.250 48.667 C 71.187 49.125,71.067 49.500,70.984 49.500 C 70.901 49.500,70.852 49.563,70.875 49.641 C 70.941 49.866,69.314 51.333,68.583 51.708 C 67.720 52.151,65.509 52.189,64.750 51.775 C 64.475 51.625,64.191 51.502,64.118 51.501 C 63.846 51.499,62.113 49.831,62.245 49.699 C 62.285 49.659,62.216 49.525,62.092 49.401 C 61.467 48.776,61.577 44.386,62.208 44.775 C 62.301 44.833,62.345 44.785,62.306 44.668 C 62.232 44.446,63.397 43.167,63.673 43.167 C 63.761 43.167,63.833 43.092,63.833 43.000 C 63.833 42.908,63.983 42.833,64.167 42.833 C 64.350 42.833,64.500 42.758,64.500 42.667 C 64.500 42.575,64.767 42.500,65.093 42.500 C 65.449 42.500,65.645 42.433,65.583 42.332 C 65.426 42.079,67.411 42.168,67.931 42.438 " stroke="none" fill="#ececf4" fill-rule="evenodd"></path><path id="path1" d="M299.167 5.831 C 299.304 5.921,299.598 5.996,299.819 5.997 C 300.354 6.001,300.219 5.906,299.500 5.774 C 299.090 5.699,298.991 5.716,299.167 5.831 M277.043 12.327 C 276.874 12.597,276.879 12.639,277.073 12.564 C 277.325 12.468,277.570 12.000,277.368 12.000 C 277.301 12.000,277.155 12.147,277.043 12.327 M2.914 47.167 C 2.914 59.771,2.934 64.927,2.958 58.625 C 2.983 52.323,2.983 42.010,2.958 35.708 C 2.934 29.406,2.914 34.563,2.914 47.167 M282.580 54.750 C 282.580 63.458,282.600 67.045,282.625 62.721 C 282.650 58.397,282.650 51.272,282.625 46.888 C 282.600 42.504,282.580 46.042,282.580 54.750 M343.028 42.083 C 343.026 42.267,343.088 42.567,343.167 42.750 C 343.349 43.175,343.349 42.737,343.167 42.167 C 343.059 41.832,343.032 41.815,343.028 42.083 M65.792 42.284 C 65.998 42.324,66.335 42.324,66.542 42.284 C 66.748 42.245,66.579 42.212,66.167 42.212 C 65.754 42.212,65.585 42.245,65.792 42.284 M67.250 42.333 C 67.433 42.412,67.696 42.477,67.833 42.477 C 67.991 42.477,67.960 42.424,67.750 42.333 C 67.567 42.255,67.304 42.190,67.167 42.190 C 67.009 42.190,67.040 42.243,67.250 42.333 M128.542 47.750 C 128.544 48.117,128.578 48.247,128.618 48.040 C 128.658 47.832,128.656 47.532,128.615 47.373 C 128.573 47.214,128.540 47.383,128.542 47.750 M128.542 50.750 C 128.544 51.117,128.578 51.247,128.618 51.040 C 128.658 50.832,128.656 50.532,128.615 50.373 C 128.573 50.214,128.540 50.383,128.542 50.750 M390.333 57.385 C 390.333 57.505,390.445 57.749,390.581 57.926 C 390.808 58.222,390.813 58.204,390.648 57.708 C 390.459 57.143,390.333 57.013,390.333 57.385 M158.583 70.423 C 158.165 70.624,158.151 70.647,158.500 70.563 C 158.729 70.508,158.988 70.396,159.075 70.315 C 159.291 70.113,159.172 70.139,158.583 70.423 M93.793 76.250 C 93.749 76.479,93.777 76.667,93.856 76.667 C 93.935 76.667,94.000 76.479,94.000 76.250 C 94.000 76.021,93.971 75.833,93.936 75.833 C 93.901 75.833,93.836 76.021,93.793 76.250 " stroke="none" fill="#f0ecf4" fill-rule="evenodd"></path><path id="path2" d="M299.167 5.831 C 299.304 5.921,299.598 5.996,299.819 5.997 C 300.354 6.001,300.219 5.906,299.500 5.774 C 299.090 5.699,298.991 5.716,299.167 5.831 M277.043 12.327 C 276.874 12.597,276.879 12.639,277.073 12.564 C 277.325 12.468,277.570 12.000,277.368 12.000 C 277.301 12.000,277.155 12.147,277.043 12.327 M2.914 47.167 C 2.914 59.771,2.934 64.927,2.958 58.625 C 2.983 52.323,2.983 42.010,2.958 35.708 C 2.934 29.406,2.914 34.563,2.914 47.167 M282.580 54.750 C 282.580 63.458,282.600 67.045,282.625 62.721 C 282.650 58.397,282.650 51.272,282.625 46.888 C 282.600 42.504,282.580 46.042,282.580 54.750 M343.028 42.083 C 343.026 42.267,343.088 42.567,343.167 42.750 C 343.349 43.175,343.349 42.737,343.167 42.167 C 343.059 41.832,343.032 41.815,343.028 42.083 M65.792 42.284 C 65.998 42.324,66.335 42.324,66.542 42.284 C 66.748 42.245,66.579 42.212,66.167 42.212 C 65.754 42.212,65.585 42.245,65.792 42.284 M67.250 42.333 C 67.433 42.412,67.696 42.477,67.833 42.477 C 67.991 42.477,67.960 42.424,67.750 42.333 C 67.567 42.255,67.304 42.190,67.167 42.190 C 67.009 42.190,67.040 42.243,67.250 42.333 M128.542 47.750 C 128.544 48.117,128.578 48.247,128.618 48.040 C 128.658 47.832,128.656 47.532,128.615 47.373 C 128.573 47.214,128.540 47.383,128.542 47.750 M128.542 50.750 C 128.544 51.117,128.578 51.247,128.618 51.040 C 128.658 50.832,128.656 50.532,128.615 50.373 C 128.573 50.214,128.540 50.383,128.542 50.750 M390.333 57.385 C 390.333 57.505,390.445 57.749,390.581 57.926 C 390.808 58.222,390.813 58.204,390.648 57.708 C 390.459 57.143,390.333 57.013,390.333 57.385 M158.583 70.423 C 158.165 70.624,158.151 70.647,158.500 70.563 C 158.729 70.508,158.988 70.396,159.075 70.315 C 159.291 70.113,159.172 70.139,158.583 70.423 M93.793 76.250 C 93.749 76.479,93.777 76.667,93.856 76.667 C 93.935 76.667,94.000 76.479,94.000 76.250 C 94.000 76.021,93.971 75.833,93.936 75.833 C 93.901 75.833,93.836 76.021,93.793 76.250 " stroke="none" fill="#f0ecf4" fill-rule="evenodd"></path><path id="path3" d="M299.167 5.831 C 299.304 5.921,299.598 5.996,299.819 5.997 C 300.354 6.001,300.219 5.906,299.500 5.774 C 299.090 5.699,298.991 5.716,299.167 5.831 M277.043 12.327 C 276.874 12.597,276.879 12.639,277.073 12.564 C 277.325 12.468,277.570 12.000,277.368 12.000 C 277.301 12.000,277.155 12.147,277.043 12.327 M2.914 47.167 C 2.914 59.771,2.934 64.927,2.958 58.625 C 2.983 52.323,2.983 42.010,2.958 35.708 C 2.934 29.406,2.914 34.563,2.914 47.167 M282.580 54.750 C 282.580 63.458,282.600 67.045,282.625 62.721 C 282.650 58.397,282.650 51.272,282.625 46.888 C 282.600 42.504,282.580 46.042,282.580 54.750 M343.028 42.083 C 343.026 42.267,343.088 42.567,343.167 42.750 C 343.349 43.175,343.349 42.737,343.167 42.167 C 343.059 41.832,343.032 41.815,343.028 42.083 M65.792 42.284 C 65.998 42.324,66.335 42.324,66.542 42.284 C 66.748 42.245,66.579 42.212,66.167 42.212 C 65.754 42.212,65.585 42.245,65.792 42.284 M67.250 42.333 C 67.433 42.412,67.696 42.477,67.833 42.477 C 67.991 42.477,67.960 42.424,67.750 42.333 C 67.567 42.255,67.304 42.190,67.167 42.190 C 67.009 42.190,67.040 42.243,67.250 42.333 M128.542 47.750 C 128.544 48.117,128.578 48.247,128.618 48.040 C 128.658 47.832,128.656 47.532,128.615 47.373 C 128.573 47.214,128.540 47.383,128.542 47.750 M128.542 50.750 C 128.544 51.117,128.578 51.247,128.618 51.040 C 128.658 50.832,128.656 50.532,128.615 50.373 C 128.573 50.214,128.540 50.383,128.542 50.750 M390.333 57.385 C 390.333 57.505,390.445 57.749,390.581 57.926 C 390.808 58.222,390.813 58.204,390.648 57.708 C 390.459 57.143,390.333 57.013,390.333 57.385 M158.583 70.423 C 158.165 70.624,158.151 70.647,158.500 70.563 C 158.729 70.508,158.988 70.396,159.075 70.315 C 159.291 70.113,159.172 70.139,158.583 70.423 M93.793 76.250 C 93.749 76.479,93.777 76.667,93.856 76.667 C 93.935 76.667,94.000 76.479,94.000 76.250 C 94.000 76.021,93.971 75.833,93.936 75.833 C 93.901 75.833,93.836 76.021,93.793 76.250 " stroke="none" fill="#f0ecf4" fill-rule="evenodd"></path><path id="path4" d="M299.167 5.831 C 299.304 5.921,299.598 5.996,299.819 5.997 C 300.354 6.001,300.219 5.906,299.500 5.774 C 299.090 5.699,298.991 5.716,299.167 5.831 M277.043 12.327 C 276.874 12.597,276.879 12.639,277.073 12.564 C 277.325 12.468,277.570 12.000,277.368 12.000 C 277.301 12.000,277.155 12.147,277.043 12.327 M2.914 47.167 C 2.914 59.771,2.934 64.927,2.958 58.625 C 2.983 52.323,2.983 42.010,2.958 35.708 C 2.934 29.406,2.914 34.563,2.914 47.167 M282.580 54.750 C 282.580 63.458,282.600 67.045,282.625 62.721 C 282.650 58.397,282.650 51.272,282.625 46.888 C 282.600 42.504,282.580 46.042,282.580 54.750 M343.028 42.083 C 343.026 42.267,343.088 42.567,343.167 42.750 C 343.349 43.175,343.349 42.737,343.167 42.167 C 343.059 41.832,343.032 41.815,343.028 42.083 M65.792 42.284 C 65.998 42.324,66.335 42.324,66.542 42.284 C 66.748 42.245,66.579 42.212,66.167 42.212 C 65.754 42.212,65.585 42.245,65.792 42.284 M67.250 42.333 C 67.433 42.412,67.696 42.477,67.833 42.477 C 67.991 42.477,67.960 42.424,67.750 42.333 C 67.567 42.255,67.304 42.190,67.167 42.190 C 67.009 42.190,67.040 42.243,67.250 42.333 M128.542 47.750 C 128.544 48.117,128.578 48.247,128.618 48.040 C 128.658 47.832,128.656 47.532,128.615 47.373 C 128.573 47.214,128.540 47.383,128.542 47.750 M128.542 50.750 C 128.544 51.117,128.578 51.247,128.618 51.040 C 128.658 50.832,128.656 50.532,128.615 50.373 C 128.573 50.214,128.540 50.383,128.542 50.750 M390.333 57.385 C 390.333 57.505,390.445 57.749,390.581 57.926 C 390.808 58.222,390.813 58.204,390.648 57.708 C 390.459 57.143,390.333 57.013,390.333 57.385 M158.583 70.423 C 158.165 70.624,158.151 70.647,158.500 70.563 C 158.729 70.508,158.988 70.396,159.075 70.315 C 159.291 70.113,159.172 70.139,158.583 70.423 M93.793 76.250 C 93.749 76.479,93.777 76.667,93.856 76.667 C 93.935 76.667,94.000 76.479,94.000 76.250 C 94.000 76.021,93.971 75.833,93.936 75.833 C 93.901 75.833,93.836 76.021,93.793 76.250 " stroke="none" fill="#f0ecf4" fill-rule="evenodd"></path></g></svg>