<svg fill="none" height="30" viewBox="0 0 130 30" width="130" xmlns="http://www.w3.org/2000/svg"><path clip-rule="evenodd" d="m81.073 14.1955c-.0046-.0639-.0069-.1226-.0069-.1761v-13.505584c.0059-.285461.246-.51387307.5401-.51381599h3.1274c.2983 0 .5401.23473799.5401.52430199v7.215208c1.1006-.56532 2.3554-.88545 3.6872-.88545 4.3581.00482 7.8898 3.43304 7.8948 7.66354 0 4.2325-3.5346 7.6636-7.8948 7.6636s-7.8948-3.4311-7.8948-7.6636c0-.1079.0023-.2153.0069-.3221zm4.1485.3239c0 2.0047 1.6742 3.6299 3.7394 3.6299 2.064-.0029 3.7365-1.6264 3.7395-3.6299 0-2.0048-1.6742-3.63-3.7395-3.63-2.0652 0-3.7394 1.6252-3.7394 3.63zm-34.9827 2.6941c-.1882-.3436-.6065-.5024-.9849-.374-.2812.1126-.4892.2178-.695.3219h-.0001c-.3054.1545-.606.3066-1.1341.4768-1.5421.4924-3.2353-.0373-4.1911-1.311-.9557-1.2738-.9557-3.0006 0-4.2744.9558-1.2737 2.649-1.8034 4.1911-1.311.5203.1677.8198.3196 1.1206.4722.2103.1066.4212.2136.7086.3265.3771.1292.7949-.0272.9849-.3687.3995-.6722.8245-1.38914 1.0481-1.7663l.1257-.2121c.1746-.3185.1-.71175-.18-.94899-1.3371-1.05434-2.9919-1.65685-4.7135-1.71622h-.2664c-4.3607 0-7.8957 3.43148-7.8957 7.66441 0 4.233 3.535 7.6644 7.8957 7.6644h.2772c1.7146-.063 3.3617-.6646 4.6937-1.7144.28-.2373.3546-.6305.18-.949-.1044-.1844-.4751-.8121-.8741-1.4877l-.0004-.0007-.0008-.0014zm9.8221-10.5106h1.3143c.1883.00287.3387.15283.3367.33555v3.42015c0 .183-.1517.3319-.3403.3339h-1.3107c-1.3576.0076-2.456 1.0746-2.4629 2.3925v7.7073c0 .2895-.2418.5243-.5401.5243h-3.1381c-.2942 0-.5343-.2284-.5402-.5139v-7.7107c.003-3.58127 2.992-6.48429 6.6813-6.4891zm13.7479 14.709c-.028.0074-.057.0114-.0865.0117h-3.1147c-3.6935-.0029-6.6859-2.9108-6.6849-6.4961v-7.71079c.0059-.28546.246-.51387.5401-.51381h3.1327c.2983 0 .5402.23473.5402.5243v7.7072c.0029 1.3248 1.109 2.3977 2.4737 2.3996h3.1111c.0306.0003.0602.0045.0883.012v-10.1188c0-.28957.2418-.5243.5401-.5243h3.1327c.2942-.00006.5343.22835.5402.51381v16.28719c.0009 3.5854-2.9914 6.4932-6.685 6.4961h-1.3143c-.091-.0009-.1779-.037-.2414-.1003-.0636-.0634-.0985-.1486-.097-.237v-3.4185c-.0001-.1829.1517-.3318.3402-.3338h1.3107c1.3647-.0019 2.4708-1.0748 2.4738-2.3995zm56.0322-2.4991-4.835-4.6929 4.835-4.69288.002-.00208c.21-.20647.209-.54029-.002-.74561l-2.162-2.09877c-.211-.20452-.551-.20452-.762 0l-4.839 4.69704-4.839-4.69704c-.21-.20452-.551-.20452-.761 0l-2.162 2.09877c-.212.20532-.213.53914-.003.74561l.003.00208 4.834 4.69288-4.834 4.6929-.003.0021c-.21.2065-.209.5403.003.7456l2.162 2.0988c.21.2045.551.2045.761 0l4.839-4.6971 4.839 4.6971c.211.2045.551.2045.762 0l2.162-2.0988c.211-.2053.212-.5391.002-.7456zm-24.419-12.38461c4.361 0 7.346 3.30486 7.348 7.52201-.005.313-.025.6257-.062.9367-.049.3741-.373.6569-.761.6659h-9.449c.418 1.1989 1.469 2.1601 2.938 2.1601.398.003.794-.0561 1.173-.1747.528-.1702.828-.3223 1.134-.4768.205-.1041.413-.2093.695-.3219.375-.1184.784.0423.968.381.303.5081.62 1.044.854 1.4379l.004.007c.149.2516.263.4443.316.5334.175.3185.1.7118-.18.949-1.333 1.0479-2.98 1.6477-4.693 1.7092h-.285c-4.348 0-7.4716-3.4394-7.4716-7.6653 0-4.22583 3.1236-7.66351 7.4716-7.66351zm-3.016 6.20601h5.902c-.36-1.3492-1.3-2.1724-2.881-2.1724-1.58 0-2.661.8249-3.021 2.1724zm-80.2893-12.73419999h-14.74447c-4.07157 0-7.37223 3.23990999-7.37223 7.23653999v14.31216c0 3.9966 3.30066 7.2365 7.37223 7.2365h14.74447c4.0716 0 7.3722-3.2399 7.3722-7.2365v-14.31216c0-3.99663-3.3006-7.23653999-7.3722-7.23653999zm-4.5426 17.36059999v-.0001c.2058-.1041.4138-.2093.6951-.3219.3784-.1284.7966.0305.9848.374l.2887.4888c.3998.677.7716 1.3066.8762 1.4913.1745.3185.0999.7118-.18.949-1.332 1.0498-2.9792 1.6515-4.6937 1.7145h-.2773c-4.3607 0-7.89567-3.4315-7.89567-7.6645 0-4.2329 3.53497-7.66438 7.89567-7.66438h.2665c1.7216.05937 3.3763.66187 4.7135 1.71621.2799.23725.3545.6305.18.94899l-.1248.21051-.0011.0019-.0017.00289c-.2241.378-.6478 1.09288-1.0463 1.76308-.1899.3415-.6078.498-.9848.3688-.2874-.113-.4984-.2199-.7087-.3266-.3008-.1526-.6003-.3045-1.1205-.4721-1.5421-.4924-3.2353.0372-4.1911 1.311-.9558 1.2737-.9558 3.0005 0 4.2743.9558 1.2737 2.649 1.8034 4.1911 1.311.528-.1702.8287-.3223 1.1341-.4767zm4.5184-2.9711c0 .8968-.7448 1.6238-1.6636 1.6238s-1.6636-.727-1.6636-1.6238c0-.8969.7448-1.6239 1.6636-1.6239s1.6636.727 1.6636 1.6239z" fill="#ececf1" fill-rule="evenodd"/></svg>