<svg fill="none" height="80" viewBox="0 0 180 80" width="180" xmlns="http://www.w3.org/2000/svg"><path clip-rule="evenodd" d="m60 40.5393s17.7731 3.8661 20.2708-4.4556c2.4486-8.1595-5.672-9.8468-5.672-9.8468h-3.5676v13.6816h-3.8226v-13.2369h-3.3849v-1.3989s12.8242-.0514 14.2404.1155c7.1202.8387 10.5855 13.6902-.818 16.2511-8.8697 1.9917-17.2461-1.11-17.2461-1.11zm7.187 2.9477v8.2127s-.0223 1.7477-1.587 1.7477c-1.5648 0-1.9482 0-1.9482 0v1.3707h11.0315v-1.5081h-2.4403s-1.2588-.144-1.2588-1.4333c0-1.2894 0-8.4654 0-8.4654h-3.7754zm14.099 11.3993h11.1107v-1.7165h-3.1939s-1.0376-.5903-1.0376-1.7859c0-1.1955 0-20.6706 0-20.6706l12.3838 24.1468 12.114-23.6845-.266 20.4322s.304 1.6887-1.41 1.6887-2.078.0523-2.078.0523l-.02 1.3149h11.111v-1.5629h-2.594s-1.081.1068-1.081-1.0894c0-1.196 0-24.7994 0-24.7994s.016-.5416.973-.5416h2.252v-1.6704h-6.894l-11.35 23.699-11.2795-23.5316h-6.1688v1.4163h1.9587s.6791-.0756.6791.9644c0 1.0398-.2661 23.9458-.2661 23.9458s.0894 1.7781-1.8478 1.7781-3.0914 0-3.0914 0v1.728z" fill="#ececf1" fill-rule="evenodd"/></svg>