<svg fill="none" height="20" viewBox="0 0 20 20" width="20" xmlns="http://www.w3.org/2000/svg"><path d="m10 20c5.5228 0 10-4.4772 10-10 0-5.52285-4.4772-10-10-10-5.52285 0-10 4.47715-10 10 0 5.5228 4.47715 10 10 10z" fill="#cc003d"/><g clip-rule="evenodd" fill="#fff" fill-rule="evenodd"><path d="m4.45703 6.00317v9.00003h1.54278v-7.5033h1.91195v7.5033h1.54527v-9.00003z"/><path d="m13.5541 13.6099c-.1488 0-.523-.0372-.523-.0372v-1.7571-.1842-1.2273s.1203-.0305.2519-.0305c.7767 0 1.6947-.0491 1.6947 1.6165 0 1.5271-1.0087 1.6198-1.4236 1.6198zm.1855-4.66434c-.2638 0-.4982.00679-.7085.01723v-1.46611h2.7478v-1.49668h-4.2789v1.49668 7.50332h.1037 2.2203c2.317 0 2.676-2.2265 2.676-3.0506 0-.9754-.3569-3.00384-2.7604-3.00384z"/></g></svg>