<svg fill="none" height="79" viewBox="0 0 79 79" width="79" xmlns="http://www.w3.org/2000/svg" xmlns:xlink="http://www.w3.org/1999/xlink"><filter id="a" color-interpolation-filters="sRGB" height="85" width="85" x="-3" y="-3"><feFlood flood-opacity="0" result="BackgroundImageFix"/><feBlend in="SourceGraphic" in2="BackgroundImageFix" mode="normal" result="shape"/><feGaussianBlur result="effect1_foregroundBlur_202_18" stdDeviation="15"/></filter><clipPath id="b"><path d="m0 0h79v79h-79z"/></clipPath><mask id="c" height="79" maskUnits="userSpaceOnUse" width="79" x="0" y="0"><path d="m79 0h-79v79h79z" fill="#fff"/></mask><g clip-path="url(#b)"><g mask="url(#c)"><path d="m39.5 79c21.8152 0 39.5-17.6848 39.5-39.5s-17.6848-39.5-39.5-39.5-39.5 17.6848-39.5 39.5 17.6848 39.5 39.5 39.5z" fill="#fff" fill-opacity=".01"/><g filter="url(#a)"><circle cx="39.5" cy="39.5" fill="#0e99fb" r="12.5"/></g><path d="m79 39.5c0-21.8152-17.6848-39.5-39.5-39.5s-39.5 17.6848-39.5 39.5 17.6848 39.5 39.5 39.5 39.5-17.6848 39.5-39.5z" fill="#fff" fill-opacity=".06"/><path clip-rule="evenodd" d="m35.1865 24c-1.0277 0-2.0133.4083-2.74 1.135s-1.135 1.7123-1.135 2.74v.875h-5.624c-1.4843 0-2.6875 1.2032-2.6875 2.6875v6.8465c-.0003.0183-.0003.0365 0 .0547v12.0988c0 1.4843 1.2032 2.6875 2.6875 2.6875h26.125c1.4843 0 2.6875-1.2032 2.6875-2.6875v-12.0899c.0006-.025.0006-.0499 0-.0749v-6.8352c0-1.4843-1.2032-2.6875-2.6875-2.6875h-5.626v-.875c0-1.0277-.4082-2.0133-1.1349-2.74s-1.7124-1.135-2.7401-1.135zm-9.1865 26.125v-9.3365c3.9789 1.87 8.3318 2.8431 12.749 2.8365 4.418.0066 8.7716-.9668 12.751-2.8374v9.3374zm12.7514-9.5c4.4528.007 8.833-1.0927 12.7486-3.1943v-5.6807h-6.8135-11.875-6.8115v5.6818c3.9151 2.1009 8.2946 3.2002 12.7467 3.1932zm4.4351-11.875v-.875c0-.2321-.0922-.4546-.2563-.6187-.164-.1641-.3866-.2563-.6187-.2563h-7.125c-.232 0-.4546.0922-.6187.2563s-.2563.3866-.2563.6187v.875zm-6.2187 7.125c-.8284 0-1.5.6716-1.5 1.5s.6716 1.5 1.5 1.5h3.5625c.8284 0 1.5-.6716 1.5-1.5s-.6716-1.5-1.5-1.5z" fill="#0e99fb" fill-rule="evenodd"/></g></g></svg>