<svg clip-rule="evenodd" fill-rule="evenodd" height="64" image-rendering="optimizeQuality" shape-rendering="geometricPrecision" text-rendering="geometricPrecision" viewBox="0 0 8.228 8.228" width="64" xmlns="http://www.w3.org/2000/svg"><circle cx="4.114" cy="4.114" fill="#fbeb22" r="4.114"/><path d="m1.54 5.83.75.766 1.76-1.786 1.818 1.822.762-.755-1.8-1.8.346-.335v-.712l.218-.184v.56l.28.228.835-.836.268.206c.159-.585-.758-1.914-1.516-1.177l-.883.875.18.218-.45.438-.433-.427.228-.206-.968-.935c-.729-.6-1.476.313-1.502 1.203l.265-.22.813.875.291-.242v-.538l.18.136v.703l.354.354z" fill="#2c2b2a"/></svg>