<svg clip-rule="evenodd" fill-rule="evenodd" height="512" image-rendering="optimizeQuality" shape-rendering="geometricPrecision" text-rendering="geometricPrecision" width="512" xmlns="http://www.w3.org/2000/svg"><path d="m232.5-.5h25c-102.961 11.3871-176.1276 64.0537-219.5 158-24.9469 62.243-25.9469 124.91-3 188 4.1287 9.251 7.962 18.585 11.5 28-4.8237 3.479-8.4904 7.813-11 13-14.5249-23.074-24.6916-48.074-30.5-75-2.08274-11.102-3.91607-22.102-5.5-33 0-15.333 0-30.667 0-46 10.8875-89.643 55.2208-157.1427 133-202.5 31.471-16.6947 64.804-26.8614 100-30.5z" fill="#f0cd01" opacity=".973"/><path d="m257.5-.5h21c29.053 3.09856 57.053 10.5986 84 22.5 8.548 3.7677 16.548 8.2677 24 13.5-1.052-.1495-2.052.0172-3 .5-13.535 13.3682-26.869 26.8682-40 40.5-30.638-14.5947-62.972-21.2614-97-20-81.59 6.8547-139.756 47.188-174.5 121-21.9118 55.998-20.4118 111.332 4.5 166-10.3604 9.694-20.3604 19.694-30 30-3.538-9.415-7.3713-18.749-11.5-28-22.9469-63.09-21.9469-125.757 3-188 43.3724-93.9463 116.539-146.6129 219.5-158z" fill="#fedd4f"/><path d="m386.5 35.5c15.432 8.3838 29.432 18.7172 42 31-13 13.6667-26.333 27-40 40-13.935-11.6023-28.935-21.6023-45-30 13.131-13.6318 26.465-27.1318 40-40.5.948-.4828 1.948-.6495 3-.5z" fill="#fee992"/><path d="m246.5 56.5c54.723 5.1947 100.39 28.1947 137 69-.039 1.083-.373 2.083-1 3-6.059 5.057-11.393 10.724-16 17-16.929-20.138-38.596-31.971-65-35.5-39.665-.5-79.332-.667-119-.5-9.747-.42-19.414.08-29 1.5-6.32 2.986-10.487 7.819-12.5 14.5-.5 43.665-.667 87.332-.5 131-6.342-.166-12.675 0-19 .5-14.457 5.747-18.957 15.914-13.5 30.5 3.1 5.3 7.6 8.8 13.5 10.5 6.325.5 12.658.666 19 .5v24c-6.675-.166-13.342 0-20 .5-13.723 6.277-17.89 16.443-12.5 30.5 3.1 5.3 7.6 8.8 13.5 10.5 6.325.5 12.658.666 19 .5v6c-8.325 7.825-16.492 15.825-24.5 24-.464.594-.631 1.261-.5 2-3-2.667-6-5.333-9-8-11.6023-13.935-21.6023-28.935-30-45-24.9118-54.668-26.4118-110.002-4.5-166 34.744-73.812 92.91-114.1453 174.5-121z" fill="#febc00"/><path d="m246.5 56.5c34.028-1.2614 66.362 5.4053 97 20 16.065 8.3977 31.065 18.3977 45 30 10.102 9.762 19.435 20.095 28 31 14.676 21.025 25.343 44.025 32 69 16.577 77.093-3.423 142.926-60 197.5-40.019 34.733-86.685 51.566-140 50.5 86.157-11.165 144.324-57.499 174.5-139 19.643-70.471 6.476-133.805-39.5-190-36.61-40.8053-82.277-63.8053-137-69z" fill="#f68f00"/><path d="m428.5 66.5c10.739 9.403 20.405 19.7363 29 31-14.282 12.614-27.948 25.947-41 40-8.565-10.905-17.898-21.238-28-31 13.667-13 27-26.3333 40-40z" fill="#fedd50"/><path d="m457.5 97.5c15.312 18.939 27.312 39.939 36 63-14.281 15.949-29.281 31.282-45 46-6.657-24.975-17.324-47.975-32-69 13.052-14.053 26.718-27.386 41-40z" fill="#fee992"/><path d="m182.5 109.5c-7.622 2.791-12.789 8.124-15.5 16-.5 43.665-.667 87.332-.5 131-6.342-.166-12.675 0-19 .5-15.973 6.918-19.807 18.085-11.5 33.5 3.269 3.383 7.103 5.883 11.5 7.5 6.325.5 12.658.666 19 .5v24c-6.342-.166-12.675 0-19 .5-15.149 6.133-19.316 16.633-12.5 31.5 3.266 4.255 7.432 7.422 12.5 9.5 6.325.5 12.658.666 19 .5-.166 8.007 0 16.007.5 24 1.206 5.416 3.706 10.082 7.5 14-15.463 7.791-26.63 3.791-33.5-12-.5-6.658-.666-13.325-.5-20 0-2 0-4 0-6-6.342.166-12.675 0-19-.5-5.9-1.7-10.4-5.2-13.5-10.5-5.39-14.057-1.223-24.223 12.5-30.5 6.658-.5 13.325-.666 20-.5 0-8 0-16 0-24-6.342.166-12.675 0-19-.5-5.9-1.7-10.4-5.2-13.5-10.5-5.457-14.586-.957-24.753 13.5-30.5 6.325-.5 12.658-.666 19-.5-.167-43.668 0-87.335.5-131 2.013-6.681 6.18-11.514 12.5-14.5 9.586-1.42 19.253-1.92 29-1.5z" fill="#f68e00"/><path d="m182.5 109.5c39.668-.167 79.335 0 119 .5 26.404 3.529 48.071 15.362 65 35.5 24.116 34.263 26.283 69.93 6.5 107-16.695 26.113-40.529 41.279-71.5 45.5-30.998.5-61.998.667-93 .5v24c26.002-.167 52.002 0 78 .5 16.224 6.942 20.057 18.109 11.5 33.5-3.453 3.645-7.62 6.145-12.5 7.5-25.665.5-51.331.667-77 .5.166 8.673 0 17.34-.5 26-4.192 12.182-12.692 17.349-25.5 15.5-2.836-.921-5.502-2.088-8-3.5-3.794-3.918-6.294-8.584-7.5-14-.5-7.993-.666-15.993-.5-24-6.342.166-12.675 0-19-.5-5.068-2.078-9.234-5.245-12.5-9.5-6.816-14.867-2.649-25.367 12.5-31.5 6.325-.5 12.658-.666 19-.5 0-8 0-16 0-24-6.342.166-12.675 0-19-.5-4.397-1.617-8.231-4.117-11.5-7.5-8.307-15.415-4.473-26.582 11.5-33.5 6.325-.5 12.658-.666 19-.5-.167-43.668 0-87.335.5-131 2.711-7.876 7.878-13.209 15.5-16z" fill="#fee993"/><path d="m383.5 125.5c45.976 56.195 59.143 119.529 39.5 190-30.176 81.501-88.343 127.835-174.5 139-14.224-.528-28.224-2.528-42-6-24.778-6.392-47.445-17.058-68-32-8.258-5.92-15.925-12.587-23-20-.131-.739.036-1.406.5-2 8.008-8.175 16.175-16.175 24.5-24-.166 6.675 0 13.342.5 20 6.87 15.791 18.037 19.791 33.5 12 2.498 1.412 5.164 2.579 8 3.5 12.808 1.849 21.308-3.318 25.5-15.5.5-8.66.666-17.327.5-26 25.669.167 51.335 0 77-.5 4.88-1.355 9.047-3.855 12.5-7.5 8.557-15.391 4.724-26.558-11.5-33.5-25.998-.5-51.998-.667-78-.5 0-8 0-16 0-24 31.002.167 62.002 0 93-.5 30.971-4.221 54.805-19.387 71.5-45.5 19.783-37.07 17.616-72.737-6.5-107 4.607-6.276 9.941-11.943 16-17 .627-.917.961-1.917 1-3z" fill="#faa300"/><path d="m272.5 151.5c22.983 4.162 37.65 17.495 44 40 .079 1.43-.254 2.764-1 4-20.56 20.112-40.894 40.445-61 61-15.333 0-30.667 0-46 0 0-35 0-70 0-105z" fill="#febd00"/><path d="m272.5 151.5c10.716-.344 21.382.156 32 1.5 19.727 5.393 32.56 17.893 38.5 37.5 4.428 23.058-2.405 41.892-20.5 56.5-5.274 3.47-10.94 6.136-17 8-11.29 1.326-22.623 1.826-34 1.5 23.06-4.22 38.227-17.553 45.5-40 2.144-8.525 1.977-16.859-.5-25-6.35-22.505-21.017-35.838-44-40z" fill="#f68f01"/><path d="m493.5 160.5c9.455 23.154 15.455 47.154 18 72v46c-10.888 89.644-55.221 157.144-133 202.5-31.471 16.695-64.804 26.861-100 30.5-7 0-14 0-21 0-31.139-2.833-61.139-10.499-90-23 13-13.333 26-26.667 39-40 13.776 3.472 27.776 5.472 42 6 53.315 1.066 99.981-15.767 140-50.5 56.577-54.574 76.577-120.407 60-197.5 15.719-14.718 30.719-30.051 45-46z" fill="#fedd4f"/><path d="m316.5 191.5c2.477 8.141 2.644 16.475.5 25-7.273 22.447-22.44 35.78-45.5 40-5.667 0-11.333 0-17 0 20.106-20.555 40.44-40.888 61-61 .746-1.236 1.079-2.57 1-4z" fill="#faa300"/><path d="m76.5 343.5c8.3977 16.065 18.3977 31.065 30 45-10 10.333-20 20.667-30 31-3.3333 3-6.6667 6-10 9-12.2828-12.568-22.6162-26.568-31-42 2.5096-5.187 6.1763-9.521 11-13 9.6396-10.306 19.6396-20.306 30-30z" fill="#fee992"/><path d="m106.5 388.5c3 2.667 6 5.333 9 8 7.075 7.413 14.742 14.08 23 20-.739-.131-1.406.036-2 .5-10.202 10.369-20.535 20.535-31 30.5-9.7405-9.41-19.4071-18.743-29-28 10-10.333 20-20.667 30-31z" fill="#fedd50"/><path d="m138.5 416.5c20.555 14.942 43.222 25.608 68 32-13 13.333-26 26.667-39 40-2.073 2.08-4.407 3.746-7 5-23.567-8.773-44.9-21.107-64-37 3.3333-2.667 6.333-5.667 9-9 10.465-9.965 20.798-20.131 31-30.5.594-.464 1.261-.631 2-.5z" fill="#fee992"/><path d="m76.5 419.5c9.5929 9.257 19.2595 18.59 29 28-2.667 3.333-5.6667 6.333-9 9-10.9298-8.261-20.9298-17.594-30-28 3.3333-3 6.6667-6 10-9z" fill="#f0cd03" opacity=".971"/><path d="m167.5 488.5c28.861 12.501 58.861 20.167 90 23-8.333 0-16.667 0-25 0-24.848-2.545-48.848-8.545-72-18 2.593-1.254 4.927-2.92 7-5z" fill="#f0ce06" opacity=".914"/></svg>