<svg fill="none" height="38" viewBox="0 0 38 38" width="38" xmlns="http://www.w3.org/2000/svg" xmlns:xlink="http://www.w3.org/1999/xlink"><linearGradient id="a" gradientUnits="userSpaceOnUse" x1="7.1811" x2="3.53408" y1="29.7899" y2="19.2647"><stop offset=".1444" stop-color="#f2e913"/><stop offset=".3037" stop-color="#e7e518"/><stop offset=".5823" stop-color="#cadb26"/><stop offset=".891" stop-color="#a3cd39"/></linearGradient><linearGradient id="b" gradientUnits="userSpaceOnUse" x1="8.56951" x2="17.8367" y1="7.97722" y2="4.45131"><stop offset=".0592" stop-color="#0fa8e0"/><stop offset=".5385" stop-color="#0099f9"/><stop offset=".9234" stop-color="#0291eb"/></linearGradient><linearGradient id="c" gradientUnits="userSpaceOnUse" x1="17.4799" x2="28.5251" y1="31.7237" y2="29.2313"><stop offset=".1226" stop-color="#a3cd39"/><stop offset=".2846" stop-color="#86c339"/><stop offset=".8693" stop-color="#21a038"/></linearGradient><linearGradient id="d" gradientUnits="userSpaceOnUse" x1="17.7512" x2="26.9365" y1="6.09932" y2="8.92887"><stop offset=".0566" stop-color="#0291eb"/><stop offset=".79" stop-color="#0c8acb"/></linearGradient><linearGradient id="e" gradientUnits="userSpaceOnUse" x1="7.90932" x2="17.7726" y1="30.254" y2="33.9334"><stop offset=".1324" stop-color="#f2e913"/><stop offset=".2977" stop-color="#ebe716"/><stop offset=".5306" stop-color="#d9e01f"/><stop offset=".8023" stop-color="#bbd62d"/><stop offset=".9829" stop-color="#a3cd39"/></linearGradient><linearGradient id="f" gradientUnits="userSpaceOnUse" x1="5.71902" x2="9.66275" y1="19.7381" y2="9.49541"><stop offset=".0698" stop-color="#a3cd39"/><stop offset=".2599" stop-color="#81c55f"/><stop offset=".9216" stop-color="#0fa8e0"/></linearGradient><path d="m30.7631 9.85425c.733.94525 1.3438 1.98205 1.863 3.07975l-14.1103 10.3981-5.9252-3.7201v-4.452l5.8946 3.6897z" fill="#21a038"/><path d="m6.5734 19.3075c0-.2135 0-.3964.03054-.6099l-3.5734-.183c0 .244-.03054.5184-.03054.7624 0 4.269 1.74089 8.1416 4.55074 10.9469l2.53496-2.5309c-2.16846-2.1345-3.5123-5.0923-3.5123-8.3855z" fill="url(#a)"/><path d="m18.4849 7.41508c.2138 0 .397.00001.6108.0305l.1833-3.56767c-.2444 0-.5192-.0305-.7636-.0305-4.2758 0-8.1546 1.7381-10.9645 4.54345l2.535 2.53094c2.1379-2.16503 5.131-3.50672 8.399-3.50672z" fill="url(#b)"/><path d="m18.4838 31.1993c-.2137 0-.397 0-.6108-.0305l-.1832 3.5677c.2443 0 .5192.0305.7635.0305 4.2759 0 8.1547-1.7381 10.9645-4.5435l-2.5349-2.5309c-2.138 2.1955-5.1005 3.5067-8.3991 3.5067z" fill="url(#c)"/><path d="m25.2046 9.48834 3.0236-2.22599c-2.6571-2.1345-6.0473-3.4457-9.7428-3.4457v3.56767c2.5044.0305 4.8256.79282 6.7192 2.10402z" fill="url(#d)"/><path d="m34.0001 19.3073c0-.9453-.0916-1.86-.2443-2.7748l-3.3291 2.4699v.3049c0 3.5067-1.5271 6.6475-3.9399 8.8125l2.4128 2.6529c3.1153-2.8054 5.1005-6.9219 5.1005-11.4654z" fill="#21a038"/><path d="m18.4845 31.1992c-3.5123 0-6.6582-1.5246-8.82662-3.9336l-2.65715 2.409c2.8404 3.1407 6.93297 5.0923 11.48377 5.0923z" fill="url(#e)"/><path d="m10.5133 10.4947-2.41281-2.6529c-3.14581 2.8358-5.10049 6.9219-5.10049 11.4653h3.5734c0-3.4762 1.52709-6.6474 3.9399-8.8124z" fill="url(#f)"/></svg>