<svg height="512" viewBox="0 0 64 64" width="512" xmlns="http://www.w3.org/2000/svg"><g fill="#c2beda"><path d="m26 46v-8a3 3 0 0 0 -6 0v8a5 5 0 0 0 1.81 8.84 5.37 5.37 0 0 0 1.19.16 5 5 0 0 0 3-9zm-1.14 6.33a3 3 0 1 1 -3.36-4.93 1 1 0 0 0 .5-.87v-8.53a1 1 0 0 1 2 0v8.55a1 1 0 0 0 .5.87 3 3 0 0 1 .36 4.93z"/><path d="m61.22 38-3.31-.73a12.63 12.63 0 0 1 -8-5.8 1 1 0 0 0 -1.72 0 12.55 12.55 0 0 1 -5.19 4.76v-4.23a5 5 0 0 0 -3-4.58v-9.42a17 17 0 0 0 -34 0v9.42a5 5 0 0 0 -3 4.58v3h-1a1 1 0 0 0 -1 1v18a1 1 0 0 0 1 1h1v3a5 5 0 0 0 5 5h30a5 5 0 0 0 5-5v-.13a29.08 29.08 0 0 0 4.6 4.33l.8.6a1 1 0 0 0 1.2 0l.8-.6a29.15 29.15 0 0 0 11.6-23.2 1 1 0 0 0 -.78-1zm-53.22-20a15 15 0 0 1 30 0v9h-4v-9a11 11 0 0 0 -22 0v9h-4zm24 9h-18v-9a9 9 0 0 1 18 0zm-19 10v4h-10v-4zm-10 16v-4h10v4zm10-6h-10v-4h10zm28 11a3 3 0 0 1 -3 3h-30a3 3 0 0 1 -3-3v-3h9a1 1 0 0 0 1-1v-18a1 1 0 0 0 -1-1h-9v-3a3 3 0 0 1 3-3h30a3 3 0 0 1 3 3v5c-.3.09-.6.18-.91.25l-3.31.75a1 1 0 0 0 -.78 1 29.14 29.14 0 0 0 5 16.24zm8.2 2.6-.2.15-.2-.15a27.15 27.15 0 0 1 -10.8-20.8l2.51-.56a14.63 14.63 0 0 0 8.49-5.45 14.63 14.63 0 0 0 8.48 5.45l2.52.56a27.15 27.15 0 0 1 -10.8 20.8z"/><path d="m54.89 40.45-1.78-.9-.68 1.35a7.09 7.09 0 1 0 1.57 1.26zm-.89 6.55a5.05 5.05 0 1 1 -2.47-4.29l-2.7 5.4-2-2.71-1.6 1.2 3 4a1 1 0 0 0 .8.4h.09a1 1 0 0 0 .8-.55l3.17-6.34a4.92 4.92 0 0 1 .91 2.89z"/></g></svg>