<svg fill="none" height="79" viewBox="0 0 79 79" width="79" xmlns="http://www.w3.org/2000/svg" xmlns:xlink="http://www.w3.org/1999/xlink"><filter id="a" color-interpolation-filters="sRGB" height="85" width="85" x="-3" y="-3"><feFlood flood-opacity="0" result="BackgroundImageFix"/><feBlend in="SourceGraphic" in2="BackgroundImageFix" mode="normal" result="shape"/><feGaussianBlur result="effect1_foregroundBlur_203_59" stdDeviation="15"/></filter><clipPath id="b"><path d="m0 0h79v79h-79z"/></clipPath><mask id="c" height="79" maskUnits="userSpaceOnUse" width="79" x="0" y="0"><path d="m79 0h-79v79h79z" fill="#fff"/></mask><g clip-path="url(#b)"><g mask="url(#c)"><path d="m39.5 79c21.8152 0 39.5-17.6848 39.5-39.5s-17.6848-39.5-39.5-39.5-39.5 17.6848-39.5 39.5 17.6848 39.5 39.5 39.5z" fill="#fff" fill-opacity=".01"/><g filter="url(#a)"><circle cx="39.5" cy="39.5" fill="#e346fc" r="12.5"/></g><path d="m79 39.5c0-21.8152-17.6848-39.5-39.5-39.5s-39.5 17.6848-39.5 39.5 17.6848 39.5 39.5 39.5 39.5-17.6848 39.5-39.5z" fill="#fff" fill-opacity=".06"/><path clip-rule="evenodd" d="m35.94 22.7c-.8284 0-1.5.6716-1.5 1.5s.6716 1.5 1.5 1.5h7.125c.8284 0 1.5-.6716 1.5-1.5s-.6716-1.5-1.5-1.5zm3.5625 7.7092c-6.3979 0-11.5625 5.1392-11.5625 11.4518s5.1646 11.4517 11.5625 11.4517 11.5625-5.1391 11.5625-11.4517-5.1646-11.4518-11.5625-11.4518zm-14.5625 11.4518c0-7.9935 6.5319-14.4518 14.5625-14.4518s14.5625 6.4583 14.5625 14.4518c0 7.9934-6.5319 14.4517-14.5625 14.4517s-14.5625-6.4583-14.5625-14.4517zm21.5054-6.8843c.5833.5882.5794 1.5381-.0089 2.1214l-5.8778 5.8287c-.5882.5834-1.538.5795-2.1213-.0087-.5833-.5883-.5793-1.538.0089-2.1213l5.8778-5.829c.5882-.5833 1.538-.5793 2.1213.0089z" fill="#e346fc" fill-rule="evenodd"/></g></g></svg>