<svg fill="none" height="180" viewBox="0 0 180 180" width="180" xmlns="http://www.w3.org/2000/svg"><rect fill="#ffdd2d" height="180" rx="40" width="180"/><g clip-rule="evenodd" fill-rule="evenodd"><path d="m165.938 79.364-6.518.206c-.554 0-4.557-.1142-8.443-2.919.291.0265.58.0693.877.0693 3.997 0 7.871-2.3948 9.42-5.8259l2.804-6.1931c-3.519.0469-6.733-.3958-6.733-.3958-.026-.002-2.562-.3284-5.493-3.3087-2.101-2.1357-4.704-3.2679-7.52-3.2679-1.234 0-2.335.2224-3.286.5222.15-.5018.287-1.0118.369-1.536.898-5.7974-2.847-10.2158-2.849-10.2117l-4.907-6.0462-3.04 7.1029c-.01.0204-.78 1.687-2.152 2.4968-.412-2.0868-1.432-4.4347-3.609-6.6745-4.104-4.2267-9.097-4.8591-11.71-4.8591-1.209 0-2.074.1306-2.285.1653l-5.92 1.1566c.342-1.3137 1.072-3.6086 2.4-5.6729l3.268-5.0631-8.222.9302-2.6172-5.5342-5.0709 2.6009-4.6876-4.6061-4.6753 4.6061-5.0811-2.6009-2.6134 5.5342-8.2192-.9322 3.2733 5.0671c1.3303 2.0623 2.0559 4.3511 2.3941 5.6648l-5.649-1.1077-.1947-.0326c-.2808-.0449-1.1396-.1755-2.3571-.1755-2.6113 0-7.6064.6324-11.6996 4.857-2.1788 2.2398-3.2016 4.5898-3.6176 6.6766-1.3631-.8037-2.1276-2.4418-2.1276-2.4418l-3.0458-7.1437-4.9807 6.083c-.6108.7833-3.6095 4.9386-2.7958 10.1668.084.5222.2214 1.0281.3689 1.5299-.9449-.3039-2.0476-.5222-3.2795-.5222-2.8183 0-5.4193 1.1322-7.5264 3.2679-2.9228 2.9681-4.9116 3.1767-5.4193 3.3026s-2.6666.4773-6.7927.4019l2.7917 6.1931c1.5496 3.4311 5.4255 5.8259 9.4162 5.8259.3013 0 .5883-.0428.8834-.0693-3.8779 2.8048-7.881 2.919-8.3647 2.9211l-6.6389-.2081 2.0107 6.2788c1.0126 3.2353 4.3966 8.5941 10.8715 9.1713-.7051 2.9375-2.2669 6.2319-5.6981 7.6519l-4.9459 2.027 2.6974 4.676c1.5209 2.521 5.0996 5.471 10.189 5.471 1.0986-.004 2.1603-.114 3.1852-.331.2623 1.153.5882 2.308.9756 3.454 1.5147 4.49.2091 7.619.1947 7.654l-2.4432 5.091 5.4522 1.43c.0676.021 1.7155.471 3.7775.471.9347 0 1.8324-.096 2.6667-.295.6333-.147 1.2441-.343 1.8283-.58.7071 1.259 1.5639 2.409 2.5621 3.439 3.4947 3.568 8.4467 5.376 14.7167 5.376h.0205l4.4764-.058-9.2481 3.829 7.0222 3.378c2.5539 1.237 5.5751 2.699 8.6578 3.819l-.8793 2.389 2.4227 1.097c.2153.098 4.8701 2.169 12.6056 2.611 0 0 1.8693.086 2.8982.086 1.0269 0 2.8716-.092 2.8716-.092 7.6885-.453 12.3065-2.507 12.5215-2.605l2.427-1.101-.886-2.391c3.167-1.153 6.305-2.674 8.752-3.864l6.889-3.331-9.217-3.825 4.495.058c6.28 0 11.232-1.81 14.721-5.382.994-1.022 1.849-2.168 2.56-3.433.586.237 1.201.433 1.836.584.835.195 1.728.291 2.663.291 2.027 0 3.691-.444 3.736-.459l5.475-1.442-2.386-4.998c-.055-.128-1.361-3.257.156-7.751.383-1.147.707-2.301.972-3.45 1.029.217 2.103.327 3.211.331 6.484 0 9.591-4.537 10.191-5.524l2.673-4.627-4.946-2.019c-3.439-1.424-4.997-4.7164-5.694-7.6518 6.391-.5548 9.82-5.9177 10.868-9.1734z" fill="#fefefe"/><path d="m100.816 37.7954c-2.9826-1.6523-6.8504-2.5927-10.8021-2.5927-3.9313 0-7.7991.9404-10.7896 2.5927-.2726-.9078-.6518-2.0113-1.1683-3.1659l1.1233.1326 1.1806.1244.5083-1.073 1.4881-3.1639 2.7588 1.4218 1.07.5406.8506-.8363 2.9782-2.9395 2.9843 2.9395.8547.8363 1.0699-.5406 2.7446-1.4218 1.5085 3.1639.4981 1.073 1.183-.1244 1.127-.1326c-.517 1.1546-.9 2.2581-1.168 3.1659zm-10.8022 3.9313c-5.239.0061-9.1662 1.7135-10.0209 3.7228l10.0209 3.939 10.0232-3.939c-.8468-2.0093-4.776-3.7167-10.0232-3.7228zm.1062 104.1863h-.0103-.0861-.0984-.0082c-3.1708.02-7.5469-.629-9.6498-1.239l-2.5334 6.822c1.6684.591 7.3296 1.728 12.2898 1.728 4.95 0 10.6134-1.137 12.2794-1.728l-2.5291-6.822c-2.1111.61-6.481 1.259-9.6539 1.239zm10.628-3.391c2.448-.741 6.659-2.336 8.545-3.398l-1.259 4.099 4.267 1.412c-2.58 1.289-5.707 2.492-9.497 3.522zm-30.0041-3.398 1.2625 4.099-4.2711 1.412c2.5782 1.289 5.718 2.492 9.4931 3.522l2.0597-5.635c-2.443-.741-6.6587-2.336-8.5442-3.398zm79.5591-67.3248c.515.1774 1.035.255 1.552.255 2.236 0 4.392-1.4382 5.137-3.0823 0 0-4.096-.2468-8.503-4.6958-1.4-1.4422-2.886-1.8727-4.158-1.8727-1.978 0-3.462 1.0363-3.462 1.0363 2.872 1.522 4.51 3.5404 5.886 5.2358 1.172 1.445 2.154 2.6553 3.548 3.1237zm-120.5838 0c-.5001.1774-1.0228.255-1.5393.255-2.2342 0-4.3966-1.4382-5.1324-3.0803 0 0 4.0932-.2488 8.4939-4.6978 1.4081-1.4443 2.89-1.8727 4.171-1.8727 1.9657 0 3.4538 1.0383 3.4538 1.0383-2.8643 1.5188-4.5036 3.5332-5.882 5.2269-1.1784 1.4479-2.166 2.6614-3.565 3.1306zm118.9808 32.4728c-4.118-2.019-6.715-7.3801-7.344-9.3098-.684 10.6278-5.897 18.0058-11.993 25.1088-3.164 3.682-4.267 7.262-4.267 7.262s.611-4.057 3.345-7.358c5.688-6.799 11.093-15.264 11.495-25.0537.274-6.8315-1.488-12.3699-4.243-16.9372 1.541 4.755 1.322 10.5769-3.909 16.0132 0 0 10.417-12.4209-4.144-25.156-4.137-3.4409-8.553-5.9473-11.941-7.8701v-.0001c-1.384-.7856-2.597-1.4738-3.549-2.0885 11.86 3.8513 17.652-.3876 17.652-.3876-3.786 3.2659-8.691 3.2108-11.73 2.7396.826.3998 1.683.818 2.605 1.3116 10 5.4057 18.988 14.3017 20.521 26.6206v-.0938c2.327 12.097 7.502 15.199 7.502 15.199zm3.044-14.0934c.094.0061.172.0061.266.0061 5.575 0 7.463-5.9422 7.463-5.9422h-.108c-1.023 0-9.312-.2407-15.17-7.6496-.164-.2072-.327-.4134-.488-.6183v-.0001c-3.642-4.6166-6.795-8.6144-12.771-10.2277l-.615-.1061-.132-.6242c-.174-.9465.482-1.8379 1.964-2.7967 8.615-5.6137 2.763-12.7758 2.763-12.7758s-2.46 5.728-7.963 5.728c-.066 0-.133-.002-.201-.004-.068-.0021-.138-.0041-.207-.0041l-.122-.0063c-.582-.03-1.147-.0591-1.714-.1773l-1.013-.1979s1.568-4.2491-2.22-8.1473c-2.853-2.9436-6.323-3.4434-8.328-3.4434-1.008 0-1.65.1286-1.65.1286 1.903 2.4743 3.278 6.5827 1.083 9.1183-.736.8423-1.881 1.3746-3.009 1.8987-1.787.8302-3.53 1.64-3.53 3.6294 0 1.3769 1.294 2.9803 3.61 4.4204 6.971 4.3674 13.89 10.1668 16.77 17.9347 3.593 9.6895-.457 16.1213-6.237 19.8112 0 0 1.814 1.661 4.442 1.873.535.051 1.057.077 1.545.077 5.551 0 8.422-2.5923 8.422-2.5923s-.473 3.5803-3.361 6.9033c-2.667 3.068-6.164 4.877-11.501 4.95 0 0-.168 2.467 2.193 4.6 1.515 1.347 5.006 1.783 5.006 1.783s-6.539 1.32-7.26 10.93c-.392 5.208-1.73 7.019-1.73 7.019h.116c15.174 0 14.787-12.951 14.787-12.951s1.053 3.833 5.288 4.835c.51.13 1.056.183 1.576.183 1.361 0 2.546-.318 2.546-.318s-2.218-4.653-.016-11.162c1.822-5.402 1.529-9.402 1.529-9.402s2.043 3.074 7.11 3.103h.053c4.22 0 6.059-3.185 6.059-3.185-10.117-4.18-9.117-17.6673-9.117-17.6673s1.314.9751 3.872 1.0669zm-113.0692 4.7817c.6887 10.6297 5.901 18.0077 11.9947 25.1087 3.1627 3.684 4.2797 7.262 4.2797 7.262s-.619-4.057-3.3655-7.353c-5.6756-6.802-11.0806-15.269-11.4782-25.0565-.2849-6.8336 1.4798-12.3719 4.2387-16.9372-1.5393 4.757-1.3282 10.5768 3.9087 16.0152 0 0-10.4185-12.4229 4.1506-25.158 4.1338-3.4394 8.5432-5.9441 11.928-7.8668 1.3849-.7867 2.5984-1.4759 3.5512-2.0919-11.8553 3.8513-17.6477-.3897-17.6477-.3897 3.7837 3.268 8.6865 3.2129 11.7303 2.7417l-.0699.0338c-.8029.3896-1.6449.7981-2.5353 1.2799-10.0044 5.4036-18.9861 14.3016-20.5254 26.6185v-.0959c-2.3223 12.0969-7.4957 15.2009-7.4957 15.2009 4.1137-2.019 6.7065-7.382 7.3358-9.3117zm19.4413 20.9827c-1.5147 1.348-5.0094 1.784-5.0094 1.784s6.5446 1.318 7.2641 10.93c.3914 5.208 1.7176 7.017 1.7176 7.017h-.1066c-15.1779 0-14.7884-12.951-14.7884-12.951s-1.0597 3.835-5.2882 4.837c-.5063.13-1.0474.183-1.5762.183-1.361 0-2.5396-.318-2.5396-.318s2.2055-4.651.0062-11.162c-1.8181-5.402-1.5229-9.404-1.5229-9.404s-2.0415 3.076-7.1124 3.107h-.0512c-4.2183 0-6.0609-3.187-6.0609-3.187 10.111-4.179 9.121-17.6671 9.121-17.6671s-1.3138.9751-3.878 1.0668c-.0942.0062-.1783.0062-.2664.0062-5.5772 0-7.467-5.9422-7.467-5.9422h.1127c1.029 0 9.3097-.2407 15.1656-7.6496.1651-.2086.3289-.416.4917-.6222l.0003-.0004c3.6421-4.613 6.797-8.6088 12.7612-10.2235l.6272-.1081.1333-.6222c.1742-.9465-.4797-1.84-1.9595-2.7967-8.6148-5.6138-2.7651-12.7738-2.7651-12.7738s2.4453 5.726 7.9651 5.726c.0656 0 .1296-.0015.1947-.003h.0001c.0671-.0016.1352-.0031.2069-.0031l.1602-.0088c.566-.0309 1.1237-.0613 1.6763-.1769l1.0167-.1978s-1.5762-4.2491 2.2198-8.1474c2.8511-2.9435 6.3232-3.4453 8.3237-3.4453 1.0146 0 1.648.1305 1.648.1305-1.898 2.4744-3.2734 6.5827-1.0782 9.1163.7348.8434 1.8795 1.3762 3.0064 1.9008 1.7841.8305 3.5239 1.6403 3.5239 3.6293 0 1.3749-1.2913 2.9803-3.6074 4.4205-6.971 4.3674-13.8886 10.1688-16.7664 17.9347-3.591 9.6915.4591 16.1233 6.2454 19.811 0 0-1.816 1.661-4.4499 1.873-.5349.051-1.0515.076-1.5495.076-5.5444 0-8.416-2.5911-8.416-2.5911s.4776 3.5801 3.3471 6.9051c2.683 3.066 6.1777 4.875 11.5151 4.949 0 0 .1681 2.466-2.1911 4.598zm28.4736-45.9433h3.5804 3.5702v2.4415c-.8383-1.0239-2.4778-.8138-2.4778-.8138v3.5184s.0635 1.7337.6722 2.4823h-1.7646-1.7748c.6189-.7486.6743-2.4823.6743-2.4823v-3.5184s-1.6335-.2101-2.4799.8138zm-7.7936.3679c.248.2651.4919.5528.7297.8445l.0326.0393v.0001c.0434.0522.0854.1029.1314.1666.2172.2876.4366.5936.6497.9078.0273.0353.0538.0747.0813.1155l.0264.0392.0148.0215.0096.0137.0114.0161c.2542.3814.494.7772.7317 1.1852 2.1891 3.7595 5.6899 6.0095 8.7993 6.0136 3.1114-.0041 6.6102-2.2541 8.8054-6.0136.2419-.4182.4879-.8242.742-1.2036.039-.053.0779-.1081.1127-.1652.2153-.3243.4429-.6385.6789-.9445.032-.0417.063-.0809.093-.1186l.05-.0629c.244-.3019.496-.5916.752-.8649.018-.0173.035-.0342.051-.0507v-.0001c.024-.0244.047-.0477.072-.0696 1.115-1.1342 2.443-2.0011 4.184-2.4805l-.775-.4488h-.041l-3.081-1.7788-3.1645-1.8053-8.4549 4.5816-.0246-.0204-.0164.0204-8.457-4.5816-3.1626 1.8053-3.0868 1.7788h-.0349l-.7809.4488c1.7422.4794 3.0663 1.3361 4.1854 2.4723.0193.0184.0365.0377.0537.0571.025.0281.0501.0563.0816.0817zm8.523-13.5957v-2.2966l-4.1584-1.7419s.0369 1.3339 1.908 2.7821c1.0131.7953 1.6411.9995 1.7792 1.0445.0167.0054.0263.0085.0285.01zm1.9642-5.8127v14.3037l-6.7353-3.531-2.4124-13.857zm3.4317 3.5161 4.1583-1.7419s-.0348 1.3339-1.9121 2.7821c-1.0143.7991-1.6431 1.0015-1.7786 1.0451-.0156.005-.0247.0079-.027.0094l-.4406.2019zm4.7706 7.2566 2.4043-13.857-9.1415 3.0843v14.3037zm-18.6144 37.0685c-.5513 0-1.6334-.0652-2.5229-.3875-.9817-.361-2.445-2.1539-2.1089-4.1283.4243-.259 1.408-.8097 2.3282-.8097.7091 0 1.1928.3304 1.533 1.0423.2951.618.828 1.0279 1.201 1.2625-.0123.5772-.0676 1.4726-.2234 2.2661-.0348.1774-.0799.3406-.1271.5017-.0182.0699-.0394.1322-.0575.1854l-.0103.0304c-.0043.0131-.0084.0254-.0121.0371zm12.7883-3.0284-.0001.0001-.1919.1866c-.0369.0361-.0613.06-.0719.0707l-.203.1999-10.5066-.1652c-.0061 1.0362-.1763 1.9175-.3402 2.5621-.0267.1081-.0554.2203-.0841.3325l12.499 2.2353c1.2995-.903 4.8782-3.5041 6.2679-4.5241-1.0105-1.4667-1.1069-3.2108-.8773-4.4388-.6661-.4202-1.1704-.8975-1.5721-1.4034-1.4448 1.5664-4.0705 4.1189-4.9181 4.9427l-.0011.0012zm-.4723-14.0404c2.0743-.206 4.3945-1.0913 6.8173-3.4801h15.8005c-.688 1.8115-1.258 3.7718-1.258 5.7219l.006 12.5882c-2.644-.4427-2.958-3.274-2.968-3.3964l-.047-.5793-.568-.049c-1.152-.1081-1.91-.5916-2.554-1.2137-1.295-1.2913-1.297-3.3801-1.295-3.3965 0 .0019-.001.0043-.002.0073-.002.0045-.005.0103-.008.0173-.008.0166-.021.04-.038.07-.235.4305-1.205 2.2035.257 4.1199.685.9016 1.683 1.4564 2.972 1.6767.303 1.5687 1.476 3.7881 4.251 4.1247v6.1644h-7.799c-3.595-1.995-2.07-5.4994-2.002-5.6483l.305-.663-.689-.2611c-3.8942-1.4361-2.8222-5.3016-2.7709-5.471l.1578-.5609-.5288-.2489c-3.216-1.485-2.7814-5.4791-2.7384-5.6464-.9879.7976-1.3446 2.4254-.6641 4.0206-.3479.3984-.81.8739-1.3199 1.3986l-.0007.0006-.0006.0006-.0828.0853c-3.3308-.8466-3.4353-3.8922-3.4353-4.0288l-.0082-.4692-.4366-.1693c-1.2995-.4794-2.1931-1.1974-2.6318-2.1623-.4939-1.0669-.3197-2.1888-.1844-2.7273.3812.0856.7584.1428 1.1232.1754.3751.0388.7563.0612 1.1458.0612h.0225.0287c.3874 0 .7645-.0224 1.1437-.0612zm-14.1738 2.2887-.2131 8.0139.9181.1387 2.2381-7.6896-1.1354-2.366zm4.4124 29.1867c-.0164.261.1741.481.4342.487.252.023.4691-.171.4937-.426.0103-.245-.1761-.473-.4383-.483-.2561-.023-.4671.175-.4896.422zm20.4892 7.611c-.073-.02-.151-.027-.219-.027-.451 0-.648.396-.648.396.302.806.378 1.385.446 1.909.077.584.145 1.102.507 1.794.431.825 1.147 1.522 1.586 1.948.08.079.152.148.21.208 0 0-.103.736-.209 1.289l-.976 5.045c-.621.085-1.273.13-1.949.161l1.023-4.853c.149-.701-.699-1.168-1.8291-1.79-1.1886-.654-2.6901-1.48-3.6745-2.933-.9388 1.051-2.7036 1.365-4.4786 1.365-1.6192 0-3.2364-.259-4.2223-.453-.248-.036-.4858-.067-.7215-.067-.5678 0-1.0864.175-1.4451.773l-.2808.475-5.2984-1.244-1.32 2.177c-.1844.35-.1967.646.1025.975l.3567.389c-.246.767-1.3487 1.93-1.3487 1.93l-.7871-.979c-.6231-.694-.5206-1.965.125-3.139l2.103-3.529 4.4888.642-.6948-1.581c-.6553-1.461-.1562-3.199.2567-4.636l.0001-.001c.1786-.622.341-1.187.3868-1.65-.0513.463-.4797.569-.9777.569-.242 0-.5-.025-.739-.048-.2064-.021-.3986-.039-.5544-.039-.1332 0-.246.014-.3054.057l-1.2175.736-.9572-.842c-.1168-.161-.1537-.545.1271-.829l2.2198-2.478-2.6216-3.05 3.6731 1.836 1.1232-1.352c.3074.298.1722 1.085.1722 1.085 1.1437.029 4.3617 1.795 4.5318 5.928.0061.126.0061.267.0061.406 0 0 .0328.049.0882.135.2275.31.8547 1.105 1.6479 1.181l5.0791.499h.0185c.2145 0 .5104-.096.8745-.215.5819-.189 1.338-.435 2.2143-.435.7728 0 1.6336.196 2.5543.773 0 0 .463-.363 1.211-.404.057-.004.123-.004.174-.004 1.914 0 2.887 1.446 3.875 2.915.187.279.376.559.571.83.916 1.299 2.148 3.223 2.148 3.223-.455.533-.875.832-1.582.832-.193 0-.414-.014-.656-.065-1.404-.256-2.117-2.018-2.735-3.544-.456-1.127-.861-2.126-1.453-2.294zm-27.2898 4.562s1.7584-.72 1.9142-1.23l-.2357-.586c-.166-.379-.1414-.791.1783-1.016l1.8958-1.303 3.1664.606s-.5718-.714-.5165-1.669l-3.025-.636-2.8487 1.726c-1.2236.911-1.3117 2.398-.9079 3.281zm24.2896 8.19c-.6865 0-1.3157.008-1.8814.033l1.4879-4.612c.1563-.428-.3275-.941-.808-1.451-.2316-.246-.4624-.491-.6204-.725.7337.457 2.6294 1.46 3.5431 1.862-.092.149-1.7212 4.893-1.7212 4.893z" fill="#fff"/><path d="m102.539 104.107h-35.0517v-20.1339c0-1.9501-.5739-3.9105-1.2524-5.7219h15.7969c1.5024 1.4851 2.972 2.4112 4.372 2.9191-.1804.716-.4223 2.1949.2521 3.6718.5513 1.1893 1.5475 2.1052 2.9925 2.7171.1537 1.4688 1.0925 3.68 3.673 4.6571-1.1335 1.1362-2.2321 2.2072-2.6769 2.6376l-10.4861-.1652c-.2378-.1184-.6436-.3856-.824-.7609-.011-.0286-.0256-.05-.0406-.072-.0128-.0189-.0259-.0382-.0373-.0627l1.7115.2754c.0369.0041.0738.0041.1107.0041.33 0 .619-.2264.6723-.563.0553-.3794-.1968-.7262-.5657-.7813l-2.1071-.3304 2.3366-8.029-2.2136-4.6326-3.5439 3.7289-.2152 8.3472-2.3817-.3753c-.369-.0714-.7195.1938-.7851.565-.0553.3672.1947.716.5678.7813l1.0002.151c-.3566.2019-.5923.3631-.621.3855l-.2029.1407-.0554.2489c-.58 2.3418.7297 4.5653 2.1481 5.5587l-.0533.2958c-.0574.359.0266.71.2439 1.006.207.3.5186.479.8773.542.0717.015.1496.021.2213.021.6108 0 1.1478-.423 1.2954-1.043.5288.066 1.0126.076 1.3426.076h.2767l13.7574 2.476.2357-.155c1.0925-.761 5.2738-3.79 6.643-4.7977.3749.3244.7969.6141 1.3079.8568-.447 1.4809-.474 3.7599 1.279 5.5609zm-35.0518 1.358h45.0638l.009 16.87c0 5.592-3.298 9.496-8.498 10.769l.871-4.514.011-.064c.045-.252.094-.534.13-.773.246.102.507.188.785.239.326.061.625.092.9.092 1.328 0 2.103-.696 2.618-1.29l.668-.775-.546-.848c-.049-.084-1.26-1.985-2.187-3.287-.182-.255-.356-.512-.532-.785-1.058-1.575-2.382-3.545-5.032-3.545l-.24.004c-.435.028-.81.112-1.115.228-.8324-.385-1.6953-.589-2.5869-.589-1.0966 0-2.021.3-2.6359.51-.0544.015-.107.032-.1574.047-.1131.035-.2153.067-.3017.081l-4.9562-.485c-.0614-.01-.2664-.129-.5124-.42v-.025l1.072-.428c-.3013-3.556-3.7304-5.743-5.6448-6.483-.084-.357-.2562-.712-.5555-1.002l-1.0658-1.005-.9367 1.115-.4612.572-6.9443-2.84 4.5196 5.645-1.7812 2.686c-.6539.692.0656 1.381.0656 1.381l1.8426 1.265 1.9083-.71c.0467 0 .0886.007.131.014.0189.003.0379.006.0576.008-.0529.161-.1134.587-.1701.987-.0445.313-.0867.61-.121.749l-3.3143-.648-3.4804 1.956c-1.7894 1.309-2.0333 3.472-1.3692 4.953l.3854.84.5472 1.187 1.2216-.501c.0164-.002.0328-.011.041-.019-.4365 1.391-.2582 2.715.5207 3.582l.7419.924.9839 1.236 1.0802-1.152c.3156-.314 1.3486-1.465 1.6663-2.446l.2317-.753-.5248-.579-.0901-.102.5964-.975 4.3248 1.014.9716.224.5165-.85.2829-.463c.0533-.1.0655-.115.2664-.115.1517 0 .3054.015.4714.053 1.6336.306 3.1381.459 4.4724.459 1.2975 0 2.0723-.049 2.9926-.353 0 0 2.3223 2.626 2.4022 2.722l-1.4204 4.371-.0656.261c-2.6913.218-4.003.806-5.5874 2.381-2.2998-2.271-3.9334-2.511-10.1173-2.511-7.4034 0-12.419-4.321-12.419-11.22z" fill="#ffdd2d"/><path d="m80.3591 34.8867-1.1806-.1245-1.1233-.1346c.5166 1.1586.8957 2.2581 1.1684 3.1679 2.9904-1.6502 6.8582-2.5906 10.7895-2.5906 3.9517 0 7.8215.9404 10.8019 2.5906.27-.9098.652-2.0093 1.168-3.1679l-1.127.1346-1.1828.1245-.4981-1.071-1.5065-3.1659-2.7466 1.4218-1.0699.5426-.8547-.8404-2.9843-2.9375-2.9782 2.9375-.8506.8404-1.07-.5426-2.7588-1.4218-1.4881 3.1659zm21.5039 5.5671c-2.335-1.8563-6.5655-3.6004-11.8496-3.6004-5.2759 0-9.49 1.7441-11.841 3.6004 0 0-.6907-4.1573-3.0602-7.823l4.2552.4814 2.2239-4.7081 4.2859 2.195 4.1362-4.0798 4.1506 4.0798 4.2756-2.195 2.2284 4.7081 4.259-.4814c-2.372 3.6657-3.064 7.823-3.064 7.823zm-19.9466 72.3302c-.2561-.024-.4691.176-.4896.424-.0184.259.1741.48.4343.486.2519.02.4691-.171.4937-.426.0102-.245-.1762-.474-.4384-.484zm20.8896 35.373-2.058-5.636c2.447-.74 6.659-2.335 8.544-3.398l-1.256 4.102 4.265 1.409c-2.58 1.289-5.708 2.491-9.495 3.523zm-12.7818 5.066c-4.9602 0-10.6214-1.135-12.2899-1.726l2.5334-6.824c2.1009.612 6.477 1.259 9.6499 1.239h.0082.0984.0861.0102c3.1709.02 7.5408-.627 9.654-1.239l2.5295 6.824c-1.669.591-7.3298 1.726-12.2798 1.726zm-22.2885-8.589 4.271-1.41-1.2645-4.101c1.8835 1.062 6.1012 2.657 8.5442 3.398l-2.0597 5.635c-3.7731-1.032-6.9149-2.233-9.491-3.522zm44.7573-1.252-2.597-.989.717-2.672.789-2.909s-4.599 2.484-11.082 4.349c-1.8387.524-3.2305.763-3.2305.763v1.982s-3.468.6-6.9689.6h-.043-.0533-.0676-.039c-3.507 0-6.9689-.6-6.9689-.6v-1.982s-1.3938-.239-3.2303-.763c-6.4831-1.865-11.0765-4.349-11.0765-4.349l.7769 2.909.7297 2.672-2.6031.989-2.888 1.075c.3168.153.6453.312.9842.476 3.1993 1.548 7.3152 3.54 11.1109 4.573l-.99 2.693s5.3251 2.415 14.1941 2.437v.004h.0266.041.0328.0205v-.004c8.8812-.022 14.2004-2.437 14.2004-2.437l-.994-2.693c3.827-1.042 7.985-3.058 11.188-4.612.31-.15.612-.296.903-.437zm44.496-36.602s-1.838 3.186-6.06 3.186h-.052c-5.069-.03-7.11-3.106-7.11-3.106s.291 4.002-1.533 9.401c-2.197 6.514.02 11.163.02 11.163s-1.186.318-2.547.318c-.521 0-1.064-.051-1.579-.182-4.232-1.003-5.286-4.838-5.286-4.838s.388 12.953-14.786 12.953h-.119s1.338-1.811 1.732-7.017c.721-9.61 7.26-10.932 7.26-10.932s-3.491-.437-5.001-1.785c-2.368-2.132-2.2-4.598-2.2-4.598 5.34-.073 8.839-1.883 11.503-4.949 2.888-3.323 3.36-6.9026 3.36-6.9026s-2.87 2.5886-8.421 2.5886c-.487 0-1.008-.022-1.545-.075-2.626-.211-4.442-1.873-4.442-1.873 5.778-3.6861 9.833-10.122 6.238-19.8115-2.88-7.7638-9.8-13.5652-16.769-17.9347-2.318-1.4401-3.609-3.0435-3.609-4.4204 0-1.9889 1.741-2.798 3.526-3.6278 1.128-.5243 2.274-1.0568 3.01-1.9003 2.195-2.5356.818-6.6419-1.082-9.1163 0 0 .639-.1306 1.65-.1306 2.006 0 5.477.4998 8.328 3.4454 3.787 3.8983 2.217 8.1473 2.217 8.1473l1.015.1959c.578.1225 1.155.1504 1.749.1793l.087.0043c.068 0 .137.002.205.004.069.0021.138.0041.205.0041 5.502 0 7.961-5.726 7.961-5.726s5.85 7.1601-2.763 12.7738c-1.482.9608-2.135 1.8523-1.963 2.7967l.133.6242.613.1082c5.971 1.6114 9.122 5.6036 12.758 10.2101l.002.0024.02.0249.012.0146.004.0052.011.0139.011.0147.008.0094c.143.1821.288.365.433.5488 5.86 7.4109 14.145 7.6496 15.168 7.6496h.113s-1.892 5.9422-7.465 5.9422c-.095 0-.175 0-.265-.0061-2.56-.0918-3.874-1.0648-3.874-1.0648s-.998 13.4855 9.119 17.6675zm-4.979-14.7768c6.834 0 9.121-6.9193 9.213-7.2151l.765-2.4397-2.562.0796h-.009c-.903 0-8.446-.1979-13.79-6.9602l-.504-.6262-.026-.0333c-3.483-4.4083-6.794-8.5982-12.703-10.5109.173-.153.417-.3427.753-.561 3.144-2.0541 4.972-4.555 5.431-7.4558.673-4.3633-2.127-7.8454-2.25-7.9861l-1.902-2.3398-1.189 2.7763-.002.0034c-.101.2229-2.101 4.619-6.28 4.619h-.316c-.074-.0042-.147-.0082-.22-.0121-.208-.0112-.413-.0223-.612-.0389.147-1.9807-.215-5.0508-3.015-7.9331-3.364-3.4658-7.488-3.988-9.644-3.988-1.016 0-1.731.1111-1.944.1443-.029.0044-.048.0075-.059.0087l-2.873.5671 1.775 2.3254c1.387 1.7931 2.65 5.1018 1.154 6.8275-.451.52-1.353.9472-2.244 1.3692l-.158.0751c-1.933.8853-4.579 2.1235-4.579 5.267 0 2.0317 1.586 4.1614 4.462 5.9707 8.508 5.3242 13.759 10.8829 16.026 17.0168 3.509 9.4366-1.07 14.8198-5.511 17.6553l-1.997 1.2749 1.744 1.5957.002.001c.245.214 2.374 2.078 5.522 2.346.599.037 1.169.072 1.704.072 2.019 0 3.742-.316 5.142-.743-.385.671-.861 1.359-1.453 2.046-2.542 2.928-5.667 4.26-10.16 4.333l-1.671.027-.127 1.666c-.016.337-.143 3.427 2.798 6.057.449.408.992.742 1.564 1.013-1.996 1.787-4.022 4.9-4.413 10.228-.332 4.451-1.396 6.096-1.41 6.114l-1.847 2.805 3.337.045c5.512 0 9.73-1.512 12.655-4.513 1.73-1.774 2.718-3.779 3.302-5.552.957.814 2.195 1.528 3.812 1.907.613.143 1.281.218 2.007.218 1.514 0 2.792-.311 2.991-.359l.014-.004 2.129-.563-.941-1.976-.004-.01c-.114-.266-1.812-4.204.07-9.784.824-2.45 1.244-4.643 1.449-6.35 1.343.694 3.138 1.269 5.46 1.277 5.194 0 7.527-3.806 7.693-4.076l.006-.01 1.039-1.799-1.924-.79c-6.285-2.596-7.674-9.5687-7.953-13.3405.568.1082 1.217.2081 1.949.2285zm-3.519-27.7261c-1.404-1.4443-2.888-1.8747-4.161-1.8747-1.978 0-3.46 1.0404-3.46 1.0404 2.872 1.5211 4.51 3.5387 5.886 5.2335 1.172 1.444 2.154 2.6536 3.547 3.1219.514.1774 1.033.255 1.551.255 2.234 0 4.391-1.4382 5.137-3.0782 0 0-4.095-.2489-8.5-4.6979zm-3.154 5.5405c-1.302-1.6054-2.788-3.4168-5.336-4.7672l-2.617-1.4014 2.431-1.7033.031-.02c.317-.2017 2.104-1.3386 4.484-1.3386 2.027 0 3.911.8302 5.467 2.4071 3.783 3.8452 7.184 4.1552 7.307 4.1593l2.642.1551-1.093 2.4111c-1.084 2.405-3.947 4.141-6.798 4.141-.734 0-1.45-.1102-2.122-.3407-1.878-.6185-3.085-2.0965-4.349-3.6441zm-4.139 19.2549v.0918c-1.534-12.3169-10.519-21.2128-20.522-26.6185-.922-.4937-1.779-.9098-2.605-1.3097 3.042.4692 7.947.5243 11.73-2.7416 0 0-5.79 4.2389-17.651.3876.951.6148 2.164 1.303 3.548 2.0886 3.388 1.9228 7.804 4.4292 11.941 7.8702 14.561 12.735 4.144 25.1559 4.144 25.1559 5.231-5.4363 5.448-11.2561 3.909-16.0131 2.757 4.5673 4.52 10.1056 4.243 16.9372-.402 9.7891-5.805 18.2531-11.495 25.0541-2.734 3.302-3.343 7.358-3.343 7.358s1.105-3.58 4.268-7.262c6.093-7.103 11.308-14.477 11.988-25.1093.632 1.9297 3.229 7.2903 7.346 9.3103 0 0-5.175-3.103-7.501-15.1995zm-94.0072 33.6495s-.3874 12.953 14.7884 12.953h.1087s-1.3282-1.811-1.7177-7.017c-.7214-9.612-7.264-10.932-7.264-10.932s3.4926-.436 5.0073-1.785c2.3613-2.132 2.1932-4.598 2.1932-4.598-5.3394-.073-8.8341-1.883-11.5171-4.949-2.8696-3.322-3.3451-6.9025-3.3451-6.9025s2.8695 2.5885 8.4139 2.5885c.4981 0 1.0146-.022 1.5516-.075 2.6318-.21 4.4499-1.873 4.4499-1.873-5.7863-3.6861-9.8385-10.1199-6.2475-19.8114 2.8778-7.7638 9.7955-13.5653 16.7685-17.9347 2.3161-1.4402 3.6054-3.0435 3.6054-4.4205 0-1.9886-1.7385-2.7978-3.5221-3.628-1.1272-.5246-2.2724-1.0577-3.0082-1.9021-2.1932-2.5336-.8199-6.6419 1.0761-9.1142 0 0-.6293-.1306-1.6439-.1306-2.0046 0-5.4726.4998-8.3258 3.4454-3.798 3.8982-2.2198 8.1473-2.2198 8.1473l-1.0146.1958c-.5643.1196-1.1339.1491-1.7089.1789l-.1296.0068c-.0715 0-.1388.0015-.2054.0031h-.0002c-.065.0015-.1293.003-.1962.003-5.5177 0-7.965-5.7239-7.965-5.7239s-5.8478 7.1579 2.765 12.7717c1.4819.9588 2.1337 1.8502 1.9595 2.7967l-.1312.6242-.6272.1081c-5.968 1.6153-9.1231 5.6112-12.7667 10.2258-.1618.2049-.3245.4111-.4886.6183-5.8538 7.4109-14.1345 7.6496-15.1635 7.6496h-.1148s1.8919 5.9422 7.4691 5.9422c.0881 0 .1721 0 .2644-.0061 2.5641-.0918 3.878-1.0649 3.878-1.0649s.99 13.4855-9.1191 17.6675c0 0 1.8407 3.184 6.0609 3.184h.0492c5.073-.028 7.1124-3.104 7.1124-3.104s-.2951 4.002 1.5229 9.401c2.1993 6.514-.0061 11.163-.0061 11.163s1.1765.318 2.5416.318c.5268 0 1.0679-.051 1.5741-.184 4.2306-1.001 5.2882-4.836 5.2882-4.836zm16.3981 11.906c.0031.005.0048.008.005.009l1.8468 2.807-3.3369.045c-5.5116 0-9.7257-1.514-12.6588-4.512-1.7238-1.775-2.7158-3.78-3.2959-5.553-.951.814-2.2013 1.528-3.8185 1.907-.6067.143-1.277.218-2.0005.218-1.5456 0-2.8553-.325-3.0032-.362l-.0016-.001-2.1338-.563.9449-1.976.0065-.015c.1329-.313 1.7998-4.236-.0741-9.779-.824-2.452-1.2441-4.643-1.4491-6.35-1.3426.694-3.136 1.269-5.444 1.275-5.2407 0-7.5779-3.858-7.7122-4.079l-.0027-.005-1.0372-1.801 1.9185-.788c6.2843-2.596 7.6781-9.5687 7.963-13.3404-.578.1081-1.2277.2081-1.9492.2285l-.33.0102c-6.8378 0-9.119-6.9194-9.2092-7.2151l-.783-2.4398 2.5744.0796c.9039 0 8.459-.1979 13.7984-6.9601l.5042-.6263.0359-.0454c3.4795-4.4038 6.7853-8.5878 12.6967-10.4987-.1721-.153-.4078-.3427-.7501-.561-3.1443-2.0542-4.9746-4.5551-5.4296-7.4558-.6677-4.2809 2.0187-7.7135 2.2231-7.9746l.009-.0116 1.9226-2.3397 1.1847 2.7762c.0758.1755 2.0681 4.6224 6.2863 4.6224h.3095c.0709-.004.141-.0078.2104-.0116h.0001.0001.0002c.2098-.0114.4141-.0225.6173-.0394-.1435-1.9827.2234-5.0487 3.0253-7.9351 3.3635-3.4638 7.4793-3.986 9.6376-3.986 1.0237 0 1.7339.112 1.9415.1447.0268.0042.0453.0071.0549.0083l2.888.5671-1.7832 2.3255c-1.3918 1.791-2.6544 5.1017-1.156 6.8275.446.5144 1.3335.9362 2.2152 1.3553l.187.0889c1.9349.8853 4.5728 2.1236 4.5728 5.267 0 2.0318-1.5741 4.1614-4.4498 5.9708-8.5206 5.3241-13.7636 10.8828-16.0306 17.0168-3.5029 9.4365 1.0577 14.8177 5.5157 17.6552l1.9943 1.275-1.7483 1.5956c-.2357.208-2.3715 2.078-5.528 2.347-.5944.037-1.1601.072-1.7033.072-2.0251 0-3.7386-.316-5.1365-.743.3895.671.865 1.357 1.4532 2.046 2.5396 2.926 5.6735 4.26 10.1521 4.333l1.6828.027.1127 1.666c.0205.337.1476 3.427-2.7917 6.057-.4509.408-.9858.742-1.5659 1.013 2.0005 1.787 4.0256 4.9 4.4232 10.228.3275 4.285 1.3196 5.968 1.399 6.103zm-32.0472-70.3532c1.4081-1.4422 2.8901-1.8747 4.1691-1.8747 1.9677 0 3.4578 1.0404 3.4578 1.0404-2.8639 1.5202-4.503 3.5337-5.8809 5.2265-1.1793 1.4487-2.1673 2.6625-3.5681 3.1309-.5002.1775-1.0208.255-1.5394.255-2.2321 0-4.3945-1.4381-5.1323-3.0782 0 0 4.0952-.2488 8.4938-4.6999zm-3.3623 9.5857c.7337 0 1.447-.1082 2.1234-.3387 1.8852-.6213 3.0928-2.1026 4.3564-3.6526l.0422-.0518.0368-.045c1.3005-1.5922 2.7644-3.3844 5.2924-4.7222l2.6236-1.4014-2.4371-1.7034-.0328-.0207c-.32-.204-2.0992-1.3378-4.4744-1.3378-2.0313 0-3.917.8282-5.4727 2.4071-3.7837 3.8472-7.1759 4.1573-7.2989 4.1593l-2.64.155 1.0843 2.4112c1.0884 2.405 3.9518 4.141 6.7968 4.141zm16.1643 4.1236c-2.7589 4.5673-4.5216 10.1036-4.2367 16.9372.3956 9.7897 5.7985 18.2547 11.4761 25.0537 2.7466 3.299 3.3636 7.358 3.3636 7.358s-1.1151-3.58-4.2757-7.264c-6.0937-7.101-11.306-14.479-11.9947-25.1069-.6313 1.9298-3.2241 7.2909-7.3358 9.3099 0 0 5.1714-3.102 7.4936-15.2011v.0959c1.5393-12.3189 10.5231-21.2149 20.5276-26.6206.8225-.4422 1.6022-.8238 2.345-1.1873l.2581-.1264c-3.0397.4733-7.9446.5284-11.7303-2.7375 0 0 5.7923 4.2389 17.6497.3876-.9505.6139-2.1606 1.3011-3.5417 2.0854l-.0001.0001c-3.3867 1.9232-7.8016 4.4304-11.9394 7.8732-14.5671 12.7351-4.1465 25.158-4.1465 25.158-5.2431-5.4384-5.4521-11.2602-3.9128-16.0152zm42.2472-7.9837v2.4415c.8465-1.0239 2.4799-.8139 2.4799-.8139v3.5185s-.0554 1.7337-.6743 2.4823h1.7748 1.7646c-.6087-.7486-.6722-2.4823-.6722-2.4823v-3.5185s1.6396-.21 2.4778.8139v-2.4415h-3.5702zm.2592-13.4377c-.1352-.0439-.7643-.248-1.7806-1.0491-1.8732-1.4461-1.9101-2.7781-1.9101-2.7781l4.1604 1.7399v2.2987l-.4427-.2019c-.0023-.0015-.0114-.0044-.0269-.0095zm8.1114-1.0491c1.8793-1.4461 1.9162-2.7781 1.9162-2.7781l-4.1624 1.7399v2.2987l.4406-.2019c.0023-.0015.0114-.0044.0269-.0095.1352-.0439.7641-.2479 1.7787-1.0491zm-14.9688-10.0643 10.0209 3.939 10.0234-3.939c-.847-2.0093-4.7762-3.7146-10.0234-3.7208-5.239.0062-9.1661 1.7115-10.0209 3.7208zm10.7568 19.8134 6.7372-3.529 2.4023-13.8611-9.1395 3.0884zm13.9895 2.044-3.081-1.7788-3.1649-1.8053-8.4549 4.5816-.0246-.0184-.0164.0184-8.4549-4.5816-3.1647 1.8053-3.0868 1.7788h-.0328l-.7809.4508c1.7401.4773 3.0622 1.3341 4.1854 2.4723.0179.017.0342.0356.0506.0544.025.0286.0505.0577.0826.0823.248.2652.494.5548.7297.8445.0103.0126.0206.0249.0308.0372.0445.0536.0882.1062.1332.1709.2172.2856.4366.5936.6497.9057.0267.0346.0527.0738.0795.1142.0206.031.0417.0628.064.0939.2542.3794.494.7772.7317 1.1851 2.1891 3.7596 5.69 6.0075 8.7993 6.0116 3.1135-.0041 6.6123-2.252 8.8054-6.0116.2419-.4181.4879-.8261.742-1.2035.0369-.053.0779-.1102.1127-.1652.2153-.3244.4423-.6406.6783-.9445.026-.0337.052-.0664.077-.0979.023-.0295.046-.0581.067-.0857.244-.2999.496-.5916.752-.8649.02-.0186.039-.0376.058-.0561.021-.0221.043-.0434.065-.0622 1.117-1.1362 2.443-2.0032 4.183-2.4805l-.775-.4508zm7.807 16.6659c0-1.9501.569-3.9105 1.258-5.7219h-15.8008c-2.4186 2.3887-4.7409 3.2761-6.8172 3.4801-.3751.0387-.7564.0632-1.1417.0632h-.0308-.0225c-.3853 0-.7707-.0245-1.1437-.0632-.3628-.0306-.7441-.0878-1.1253-.1755-.1353.5386-.3095 1.6585.1845 2.7274.4427.9648 1.3323 1.6849 2.6338 2.1622l.4386.1694.0062.4691c0 .1408.1025 3.1843 3.4332 4.0288l.0203-.0207c.5351-.5487 1.0214-1.0473 1.3837-1.4623-.6805-1.5972-.3238-3.2251.6662-4.0227-.0431.1694-.4776 4.1614 2.7363 5.6444l.5309.253-.1579.563c-.0512.1673-1.1232 4.0308 2.7692 5.4689l.689.2571-.304.667c-.069.151-1.594 3.6551 2.001 5.6441h7.799v-6.1581c-2.771-.3387-3.948-2.556-4.251-4.1288-1.287-.2183-2.286-.7751-2.972-1.6768-1.461-1.9183-.492-3.6898-.257-4.1199.028-.0511.046-.0832.048-.0945-.002.0184 0 2.1093 1.297 3.3985.64.6201 1.404 1.1035 2.552 1.2117l.568.053.051.5752c.01.1245.32 2.9538 2.964 3.3965zm-7.613 44.6164-.871 4.514c5.2-1.273 8.498-5.177 8.498-10.768l-.008-16.87h-45.0665v16.87c0 6.901 5.0176 11.219 12.4211 11.219 6.1859 0 7.8154.241 10.1172 2.511 1.5844-1.574 2.8941-2.162 5.5874-2.38l.0636-.263 1.4224-4.366c-.0799-.102-2.4022-2.725-2.4022-2.725-.9223.304-1.6971.355-2.9925.355-1.3344 0-2.8409-.155-4.4724-.461-.164-.037-.3177-.051-.4714-.051-.2009 0-.2112.014-.2665.112l-.2808.463-.5165.851-.9757-.225-4.3227-1.013-.5924.975.0881.104.5227.577-.2337.751c-.3156.983-1.3486 2.133-1.6643 2.447l-1.0802 1.157-.9838-1.24-.74-.924c-.7768-.867-.9572-2.191-.5185-3.584-.0103.01-.0287.016-.0451.02l-1.2196.502-.5472-1.185-.3874-.841c-.6641-1.483-.4202-3.645 1.3692-4.955l3.4803-1.954 3.3143.649c.0358-.142.0789-.447.1241-.767.0559-.394.1149-.811.167-.971-.0212-.003-.0419-.006-.0626-.01-.0415-.007-.0829-.015-.128-.015l-1.9062.71-1.8427-1.26s-.7174-.694-.0676-1.383l1.7811-2.687-4.5154-5.644 6.9423 2.839.4632-.571.9367-1.116 1.0638 1.006c.3013.29.4735.644.5575 1.001 1.9103.739 5.3414 2.928 5.6448 6.485l-1.074.429v.022c.248.292.4488.41.5124.422l4.9582.486c.0822-.016.1777-.046.2842-.078.0555-.017.1139-.035.1749-.053.6128-.206 1.5372-.51 2.6359-.51.8916 0 1.7524.202 2.5845.59.306-.114.681-.2 1.117-.227l.238-.006c2.651 0 3.971 1.966 5.028 3.54l.004.006c.176.275.35.528.533.785.928 1.301 2.136 3.201 2.187 3.286l.545.849-.668.775c-.515.594-1.291 1.289-2.62 1.289-.272 0-.569-.03-.897-.092-.281-.053-.539-.136-.785-.238-.039.259-.095.569-.142.836zm-28.3942-4.441-.2336-.584c-.1681-.379-.1455-.791.1762-1.015l1.8958-1.302 3.1664.604s-.5718-.714-.5165-1.668l-3.0229-.637-2.8508 1.726c-1.2236.912-1.3117 2.398-.9059 3.282l.3771.826s1.7605-.72 1.9142-1.232zm26.0742 9.233.974-5.047c.108-.551.211-1.289.211-1.289-.055-.055-.12-.118-.193-.189-.437-.425-1.166-1.132-1.605-1.963-.362-.693-.43-1.212-.507-1.798-.068-.525-.144-1.103-.444-1.909 0 0 .195-.395.646-.395.069 0 .147.008.221.028.591.167.995 1.165 1.451 2.291.617 1.526 1.331 3.289 2.737 3.547.241.047.461.064.653.064.71 0 1.13-.298 1.583-.833 0 0-1.23-1.921-2.146-3.219-.194-.27-.381-.548-.568-.826-.99-1.473-1.964-2.923-3.878-2.923-.053 0-.119 0-.174.008-.75.035-1.212.4-1.212.4-.9198-.575-1.7807-.771-2.5534-.771-.877 0-1.6343.246-2.2165.436-.3636.118-.6589.215-.8724.215h-.0205l-5.075-.502c-.7953-.074-1.4245-.869-1.65-1.183-.0553-.084-.0861-.135-.0861-.135 0-.135 0-.277-.0082-.402-.1721-4.133-3.3881-5.901-4.5339-5.93 0 0 .1353-.783-.1742-1.085l-1.1212 1.352-3.673-1.835 2.6236 3.049-2.2198 2.481c-.2808.283-.246.663-.1291.824l.9592.844 1.2175-.732c.0595-.047.1722-.059.3034-.059.1556 0 .3475.018.5538.038.2395.023.4982.048.7416.048.496 0 .9244-.105.9756-.568-.0458.463-.2079 1.028-.3862 1.65-.4122 1.437-.9107 3.174-.2553 4.635l.6969 1.583-4.4909-.646-2.1009 3.533c-.6497 1.175-.7502 2.446-.1291 3.139l.7871.979s1.1027-1.162 1.3486-1.929l-.3566-.39c-.3013-.331-.2849-.624-.1004-.977l1.3159-2.173 5.3004 1.241.2829-.474c.3587-.595.8752-.773 1.443-.773.2357 0 .4755.027.7235.068.9838.193 2.601.45 4.2203.45 1.775 0 3.5418-.316 4.4806-1.362.9828 1.45 2.483 2.276 3.6713 2.93 1.1315.623 1.9795 1.09 1.8305 1.792l-1.023 4.849c.676-.027 1.33-.072 1.951-.157zm-5.5792.221c.5636-.022 1.1969-.03 1.8794-.03 0 0 1.6318-4.746 1.7238-4.897-.9143-.4-2.81-1.402-3.5438-1.861.1581.236.3904.483.6232.73.4797.509.9619 1.02.8033 1.449zm-20.0213-49.5806-.2111 8.0118.9161.1407 2.238-7.6916-1.1354-2.364zm2.2869 11.7578c-.371-.2345-.9038-.6445-1.201-1.2625-.3361-.7119-.8218-1.0423-1.5289-1.0423-.9223 0-1.906.5507-2.3302.8098-.3362 1.9764 1.1272 3.7672 2.1088 4.1283.8895.3222 1.9696.3895 2.5229.3895.0074-.0241.0163-.0505.0259-.0791.0173-.0513.0369-.1096.0541-.1738.0471-.1611.0922-.3263.1291-.5018.1537-.7954.209-1.6908.2193-2.2681zm13.4607 5.4138c1.2995-.903 4.8803-3.5042 6.2679-4.5221-1.0105-1.4687-1.1068-3.2128-.8793-4.4368-.662-.4222-1.1663-.9016-1.57-1.4075-1.5343 1.6652-4.4002 4.4407-5.0544 5.0742-.0694.0673-.1139.1104-.1293.1255l-.2029.204-10.5046-.1673c-.0082 1.0383-.1763 1.9175-.3402 2.5642-.0159.0644-.0333.1302-.0507.1967-.0119.0451-.0238.0904-.0354.1358zm-6.358-20.0253c-1.3958-.5058-2.8675-1.432-4.372-2.917h-15.7968c.6784 1.8114 1.2523 3.7718 1.2523 5.7219v20.1314h35.0534c-1.752-1.799-1.724-4.077-1.283-5.5543-.508-.2448-.928-.5365-1.3035-.8588-1.3712 1.0056-5.5484 4.0331-6.645 4.7961l-.2337.153-13.7554-2.471h-.2808c-.33 0-.8117-.014-1.3405-.077-.1475.618-.6846 1.038-1.2974 1.038-.0697 0-.1476-.004-.2193-.018-.3587-.061-.6703-.243-.8793-.543-.2153-.294-.2993-.6445-.2399-1.0035l.0492-.2978c-1.4163-.9934-2.726-3.2149-2.146-5.5587l.0554-.2489.2029-.1407c.0266-.0225.2644-.1836.619-.3835l-.9982-.153c-.3751-.0653-.6272-.4141-.5678-.7793.0636-.3712.4161-.6405.7851-.5691l2.3817.3774.2172-8.3452 3.5439-3.731 2.2116 4.6326-2.3345 8.027 2.1029.3305c.371.0591.6231.4039.5678.7833-.0553.3366-.3423.563-.6744.563-.0368 0-.0717 0-.1086-.0041l-1.7094-.2733c.0105.0239.0234.0428.0361.0617.0145.0214.0288.0427.0397.0709.1804.3773.5862.6425.824.7608l10.4841.1653.0427-.0416c.4697-.4566 1.5395-1.4967 2.6362-2.598-2.5826-.9731-3.5193-3.1843-3.6771-4.6551-1.4409-.6119-2.4371-1.5279-2.9905-2.7171-.6723-1.4749-.4345-2.9538-.2521-3.6739zm2.8817-30.2067-9.1477-3.0884 2.4104 13.8611 6.7373 3.529zm.7523-11.4437c6.5139 0 12.4169 3.1394 12.4169 6.6296l-.127.8588-2.6031 14.8626 2.6031 1.5096 6.772 3.9288h-.024s1.522.7772 2.217 1.2566c2.589 1.7767 3.13 4.3755 1.634 5.4485-.373-2.1174-2.052-4.3286-5.198-4.3286-2.269 0-3.995 1.1586-5.401 2.9109-.35.4406-.691.9118-1.013 1.4177-.393.6405-.783 1.2015-1.172 1.74h17.42c-1.285 2.5621-2.498 5.2732-2.498 8.2208v38.3624c0 9.287-7.166 13.716-14.932 13.716-.4524 0-.8752-.002-1.2718-.003-4.868-.018-5.7896-.021-8.8354 3.014-3.0589-3.035-3.9816-3.032-8.8465-3.014-.3963.001-.8188.003-1.2707.003-7.7601 0-14.936-4.429-14.936-13.716v-38.3624c0-2.9476-1.2154-5.6587-2.4965-8.2208h17.4182c-.3915-.5385-.785-1.0995-1.1765-1.74-.3157-.5059-.658-.9771-1.0187-1.4177-1.3918-1.7462-3.1217-2.9109-5.3886-2.9109-3.1504 0-4.8311 2.2112-5.2001 4.3286-1.4942-1.073-.9469-3.6718 1.6275-5.4485.7051-.4794 2.2259-1.2566 2.2259-1.2566h-.0246l6.7599-3.9288 2.6154-1.5096-2.6031-14.8626-.1292-.8588c0-3.4902 5.9031-6.6296 12.417-6.6296h.0164.0164z" fill="#231f20"/></g></svg>