<svg fill="none" height="79" viewBox="0 0 79 79" width="79" xmlns="http://www.w3.org/2000/svg" xmlns:xlink="http://www.w3.org/1999/xlink"><filter id="a" color-interpolation-filters="sRGB" height="85" width="85" x="-3" y="-3"><feFlood flood-opacity="0" result="BackgroundImageFix"/><feBlend in="SourceGraphic" in2="BackgroundImageFix" mode="normal" result="shape"/><feGaussianBlur result="effect1_foregroundBlur_203_99" stdDeviation="15"/></filter><clipPath id="b"><path d="m0 0h79v79h-79z"/></clipPath><mask id="c" height="79" maskUnits="userSpaceOnUse" width="79" x="0" y="0"><path d="m79 0h-79v79h79z" fill="#fff"/></mask><g clip-path="url(#b)"><g mask="url(#c)"><path d="m39.5 79c21.8152 0 39.5-17.6848 39.5-39.5s-17.6848-39.5-39.5-39.5-39.5 17.6848-39.5 39.5 17.6848 39.5 39.5 39.5z" fill="#fff" fill-opacity=".01"/><g filter="url(#a)"><circle cx="39.5" cy="39.5" fill="#3abc80" r="12.5"/></g><path clip-rule="evenodd" d="m27.94 35.7659v-8.3958h23.125v8.3958c0 11.211-9.3192 15.0771-11.5625 15.8435-2.2433-.7664-11.5625-4.6325-11.5625-15.8435zm-.3125-11.3958c-.7128 0-1.3964.2831-1.9004.7872-.504.504-.7871 1.1875-.7871 1.9003v8.7083c0 13.5285 11.5097 17.9913 13.7193 18.7251.5468.1858 1.1396.1858 1.6864 0 2.2096-.7338 13.7193-5.1966 13.7193-18.7251v-8.7083c0-.7128-.2832-1.3963-.7872-1.9003-.504-.5041-1.1875-.7872-1.9003-.7872zm19.4419 10.8975c.5993-.572.6214-1.5215.0494-2.1207-.572-.5993-1.5215-.6213-2.1208-.0493l-7.6726 7.3238-3.3184-3.1676c-.5993-.572-1.5488-.5499-2.1208.0493-.572.5993-.5499 1.5488.0493 2.1208l4.3541 4.1562c.5797.5533 1.4918.5533 2.0715 0z" fill="#3abc80" fill-rule="evenodd"/><path d="m79 39.5c0-21.8152-17.6848-39.5-39.5-39.5s-39.5 17.6848-39.5 39.5 17.6848 39.5 39.5 39.5 39.5-17.6848 39.5-39.5z" fill="#fff" fill-opacity=".06"/></g></g></svg>