<?xml version="1.0" encoding="UTF-8"?> <svg xmlns="http://www.w3.org/2000/svg" width="79" height="79" viewBox="0 0 79 79" fill="none"><g clip-path="url(#clip0_203_80)"><mask id="mask0_203_80" style="mask-type:luminance" maskUnits="userSpaceOnUse" x="0" y="0" width="79" height="79"><path d="M79 0H0V79H79V0Z" fill="white"></path></mask><g mask="url(#mask0_203_80)"><path d="M39.5 79C61.3152 79 79 61.3152 79 39.5C79 17.6848 61.3152 0 39.5 0C17.6848 0 0 17.6848 0 39.5C0 61.3152 17.6848 79 39.5 79Z" fill="white" fill-opacity="0.01"></path><g filter="url(#filter0_f_203_80)"><circle cx="39.5" cy="39.5" r="12.5" fill="#FB7E50"></circle></g><path d="M79 39.5C79 17.6848 61.3152 0 39.5 0C17.6848 0 0 17.6848 0 39.5C0 61.3152 17.6848 79 39.5 79C61.3152 79 79 61.3152 79 39.5Z" fill="white" fill-opacity="0.06"></path><path fill-rule="evenodd" clip-rule="evenodd" d="M42.8223 25.4375C41.9938 25.4375 41.3223 26.1091 41.3223 26.9375V32.5625H34.5098C33.6813 32.5625 33.0098 33.2341 33.0098 34.0625V39.6875H26.1973C25.3688 39.6875 24.6973 40.3591 24.6973 41.1875V50.375H23.8223C22.9938 50.375 22.3223 51.0466 22.3223 51.875C22.3223 52.7034 22.9938 53.375 23.8223 53.375H26.1973H34.5098H42.8223H51.1348H53.5098C54.3382 53.375 55.0098 52.7034 55.0098 51.875C55.0098 51.0466 54.3382 50.375 53.5098 50.375H52.6348V26.9375C52.6348 26.1091 51.9632 25.4375 51.1348 25.4375H42.8223ZM49.6348 50.375V28.4375H44.3223V34.0625V50.375H49.6348ZM41.3223 50.375V35.5625H36.0098V41.1875V50.375H41.3223ZM27.6973 42.6875H33.0098V50.375H27.6973V42.6875Z" fill="#FB7E50"></path></g></g><defs><filter id="filter0_f_203_80" x="-3" y="-3" width="85" height="85" color-interpolation-filters="sRGB"><feFlood flood-opacity="0" result="BackgroundImageFix"></feFlood><feBlend mode="normal" in="SourceGraphic" in2="BackgroundImageFix" result="shape"></feBlend><feGaussianBlur stdDeviation="15" result="effect1_foregroundBlur_203_80"></feGaussianBlur></filter><clipPath id="clip0_203_80"><rect width="79" height="79" fill="white"></rect></clipPath></defs></svg> 