<?xml version="1.0" encoding="UTF-8"?>
<!DOCTYPE svg PUBLIC "-//W3C//DTD SVG 1.1//EN" "http://www.w3.org/Graphics/SVG/1.1/DTD/svg11.dtd">
<svg xmlns="http://www.w3.org/2000/svg" version="1.1" width="512px" height="512px" style="shape-rendering:geometricPrecision; text-rendering:geometricPrecision; image-rendering:optimizeQuality; fill-rule:evenodd; clip-rule:evenodd" xmlns:xlink="http://www.w3.org/1999/xlink">
<g><path style="opacity:0.973" fill="#f0cd01" d="M 232.5,-0.5 C 240.833,-0.5 249.167,-0.5 257.5,-0.5C 154.539,10.8871 81.3724,63.5537 38,157.5C 13.0531,219.743 12.0531,282.41 35,345.5C 39.1287,354.751 42.962,364.085 46.5,373.5C 41.6763,376.979 38.0096,381.313 35.5,386.5C 20.9751,363.426 10.8084,338.426 5,311.5C 2.91726,300.398 1.08393,289.398 -0.5,278.5C -0.5,263.167 -0.5,247.833 -0.5,232.5C 10.3875,142.857 54.7208,75.3573 132.5,30C 163.971,13.3053 197.304,3.1386 232.5,-0.5 Z"/></g>
<g><path style="opacity:1" fill="#fedd4f" d="M 257.5,-0.5 C 264.5,-0.5 271.5,-0.5 278.5,-0.5C 307.553,2.59856 335.553,10.0986 362.5,22C 371.048,25.7677 379.048,30.2677 386.5,35.5C 385.448,35.3505 384.448,35.5172 383.5,36C 369.965,49.3682 356.631,62.8682 343.5,76.5C 312.862,61.9053 280.528,55.2386 246.5,56.5C 164.91,63.3547 106.744,103.688 72,177.5C 50.0882,233.498 51.5882,288.832 76.5,343.5C 66.1396,353.194 56.1396,363.194 46.5,373.5C 42.962,364.085 39.1287,354.751 35,345.5C 12.0531,282.41 13.0531,219.743 38,157.5C 81.3724,63.5537 154.539,10.8871 257.5,-0.5 Z"/></g>
<g><path style="opacity:1" fill="#fee992" d="M 386.5,35.5 C 401.932,43.8838 415.932,54.2172 428.5,66.5C 415.5,80.1667 402.167,93.5 388.5,106.5C 374.565,94.8977 359.565,84.8977 343.5,76.5C 356.631,62.8682 369.965,49.3682 383.5,36C 384.448,35.5172 385.448,35.3505 386.5,35.5 Z"/></g>
<g><path style="opacity:1" fill="#febc00" d="M 246.5,56.5 C 301.223,61.6947 346.89,84.6947 383.5,125.5C 383.461,126.583 383.127,127.583 382.5,128.5C 376.441,133.557 371.107,139.224 366.5,145.5C 349.571,125.362 327.904,113.529 301.5,110C 261.835,109.5 222.168,109.333 182.5,109.5C 172.753,109.08 163.086,109.58 153.5,111C 147.18,113.986 143.013,118.819 141,125.5C 140.5,169.165 140.333,212.832 140.5,256.5C 134.158,256.334 127.825,256.5 121.5,257C 107.043,262.747 102.543,272.914 108,287.5C 111.1,292.8 115.6,296.3 121.5,298C 127.825,298.5 134.158,298.666 140.5,298.5C 140.5,306.5 140.5,314.5 140.5,322.5C 133.825,322.334 127.158,322.5 120.5,323C 106.777,329.277 102.61,339.443 108,353.5C 111.1,358.8 115.6,362.3 121.5,364C 127.825,364.5 134.158,364.666 140.5,364.5C 140.5,366.5 140.5,368.5 140.5,370.5C 132.175,378.325 124.008,386.325 116,394.5C 115.536,395.094 115.369,395.761 115.5,396.5C 112.5,393.833 109.5,391.167 106.5,388.5C 94.8977,374.565 84.8977,359.565 76.5,343.5C 51.5882,288.832 50.0882,233.498 72,177.5C 106.744,103.688 164.91,63.3547 246.5,56.5 Z"/></g>
<g><path style="opacity:1" fill="#f68f00" d="M 246.5,56.5 C 280.528,55.2386 312.862,61.9053 343.5,76.5C 359.565,84.8977 374.565,94.8977 388.5,106.5C 398.602,116.262 407.935,126.595 416.5,137.5C 431.176,158.525 441.843,181.525 448.5,206.5C 465.077,283.593 445.077,349.426 388.5,404C 348.481,438.733 301.815,455.566 248.5,454.5C 334.657,443.335 392.824,397.001 423,315.5C 442.643,245.029 429.476,181.695 383.5,125.5C 346.89,84.6947 301.223,61.6947 246.5,56.5 Z"/></g>
<g><path style="opacity:1" fill="#fedd50" d="M 428.5,66.5 C 439.239,75.903 448.905,86.2363 457.5,97.5C 443.218,110.114 429.552,123.447 416.5,137.5C 407.935,126.595 398.602,116.262 388.5,106.5C 402.167,93.5 415.5,80.1667 428.5,66.5 Z"/></g>
<g><path style="opacity:1" fill="#fee992" d="M 457.5,97.5 C 472.812,116.439 484.812,137.439 493.5,160.5C 479.219,176.449 464.219,191.782 448.5,206.5C 441.843,181.525 431.176,158.525 416.5,137.5C 429.552,123.447 443.218,110.114 457.5,97.5 Z"/></g>
<g><path style="opacity:1" fill="#f68e00" d="M 182.5,109.5 C 174.878,112.291 169.711,117.624 167,125.5C 166.5,169.165 166.333,212.832 166.5,256.5C 160.158,256.334 153.825,256.5 147.5,257C 131.527,263.918 127.693,275.085 136,290.5C 139.269,293.883 143.103,296.383 147.5,298C 153.825,298.5 160.158,298.666 166.5,298.5C 166.5,306.5 166.5,314.5 166.5,322.5C 160.158,322.334 153.825,322.5 147.5,323C 132.351,329.133 128.184,339.633 135,354.5C 138.266,358.755 142.432,361.922 147.5,364C 153.825,364.5 160.158,364.666 166.5,364.5C 166.334,372.507 166.5,380.507 167,388.5C 168.206,393.916 170.706,398.582 174.5,402.5C 159.037,410.291 147.87,406.291 141,390.5C 140.5,383.842 140.334,377.175 140.5,370.5C 140.5,368.5 140.5,366.5 140.5,364.5C 134.158,364.666 127.825,364.5 121.5,364C 115.6,362.3 111.1,358.8 108,353.5C 102.61,339.443 106.777,329.277 120.5,323C 127.158,322.5 133.825,322.334 140.5,322.5C 140.5,314.5 140.5,306.5 140.5,298.5C 134.158,298.666 127.825,298.5 121.5,298C 115.6,296.3 111.1,292.8 108,287.5C 102.543,272.914 107.043,262.747 121.5,257C 127.825,256.5 134.158,256.334 140.5,256.5C 140.333,212.832 140.5,169.165 141,125.5C 143.013,118.819 147.18,113.986 153.5,111C 163.086,109.58 172.753,109.08 182.5,109.5 Z"/></g>
<g><path style="opacity:1" fill="#fee993" d="M 182.5,109.5 C 222.168,109.333 261.835,109.5 301.5,110C 327.904,113.529 349.571,125.362 366.5,145.5C 390.616,179.763 392.783,215.43 373,252.5C 356.305,278.613 332.471,293.779 301.5,298C 270.502,298.5 239.502,298.667 208.5,298.5C 208.5,306.5 208.5,314.5 208.5,322.5C 234.502,322.333 260.502,322.5 286.5,323C 302.724,329.942 306.557,341.109 298,356.5C 294.547,360.145 290.38,362.645 285.5,364C 259.835,364.5 234.169,364.667 208.5,364.5C 208.666,373.173 208.5,381.84 208,390.5C 203.808,402.682 195.308,407.849 182.5,406C 179.664,405.079 176.998,403.912 174.5,402.5C 170.706,398.582 168.206,393.916 167,388.5C 166.5,380.507 166.334,372.507 166.5,364.5C 160.158,364.666 153.825,364.5 147.5,364C 142.432,361.922 138.266,358.755 135,354.5C 128.184,339.633 132.351,329.133 147.5,323C 153.825,322.5 160.158,322.334 166.5,322.5C 166.5,314.5 166.5,306.5 166.5,298.5C 160.158,298.666 153.825,298.5 147.5,298C 143.103,296.383 139.269,293.883 136,290.5C 127.693,275.085 131.527,263.918 147.5,257C 153.825,256.5 160.158,256.334 166.5,256.5C 166.333,212.832 166.5,169.165 167,125.5C 169.711,117.624 174.878,112.291 182.5,109.5 Z"/></g>
<g><path style="opacity:1" fill="#faa300" d="M 383.5,125.5 C 429.476,181.695 442.643,245.029 423,315.5C 392.824,397.001 334.657,443.335 248.5,454.5C 234.276,453.972 220.276,451.972 206.5,448.5C 181.722,442.108 159.055,431.442 138.5,416.5C 130.242,410.58 122.575,403.913 115.5,396.5C 115.369,395.761 115.536,395.094 116,394.5C 124.008,386.325 132.175,378.325 140.5,370.5C 140.334,377.175 140.5,383.842 141,390.5C 147.87,406.291 159.037,410.291 174.5,402.5C 176.998,403.912 179.664,405.079 182.5,406C 195.308,407.849 203.808,402.682 208,390.5C 208.5,381.84 208.666,373.173 208.5,364.5C 234.169,364.667 259.835,364.5 285.5,364C 290.38,362.645 294.547,360.145 298,356.5C 306.557,341.109 302.724,329.942 286.5,323C 260.502,322.5 234.502,322.333 208.5,322.5C 208.5,314.5 208.5,306.5 208.5,298.5C 239.502,298.667 270.502,298.5 301.5,298C 332.471,293.779 356.305,278.613 373,252.5C 392.783,215.43 390.616,179.763 366.5,145.5C 371.107,139.224 376.441,133.557 382.5,128.5C 383.127,127.583 383.461,126.583 383.5,125.5 Z"/></g>
<g><path style="opacity:1" fill="#febd00" d="M 272.5,151.5 C 295.483,155.662 310.15,168.995 316.5,191.5C 316.579,192.93 316.246,194.264 315.5,195.5C 294.94,215.612 274.606,235.945 254.5,256.5C 239.167,256.5 223.833,256.5 208.5,256.5C 208.5,221.5 208.5,186.5 208.5,151.5C 229.833,151.5 251.167,151.5 272.5,151.5 Z"/></g>
<g><path style="opacity:1" fill="#f68f01" d="M 272.5,151.5 C 283.216,151.156 293.882,151.656 304.5,153C 324.227,158.393 337.06,170.893 343,190.5C 347.428,213.558 340.595,232.392 322.5,247C 317.226,250.47 311.56,253.136 305.5,255C 294.21,256.326 282.877,256.826 271.5,256.5C 294.56,252.28 309.727,238.947 317,216.5C 319.144,207.975 318.977,199.641 316.5,191.5C 310.15,168.995 295.483,155.662 272.5,151.5 Z"/></g>
<g><path style="opacity:1" fill="#fedd4f" d="M 493.5,160.5 C 502.955,183.654 508.955,207.654 511.5,232.5C 511.5,247.833 511.5,263.167 511.5,278.5C 500.612,368.144 456.279,435.644 378.5,481C 347.029,497.695 313.696,507.861 278.5,511.5C 271.5,511.5 264.5,511.5 257.5,511.5C 226.361,508.667 196.361,501.001 167.5,488.5C 180.5,475.167 193.5,461.833 206.5,448.5C 220.276,451.972 234.276,453.972 248.5,454.5C 301.815,455.566 348.481,438.733 388.5,404C 445.077,349.426 465.077,283.593 448.5,206.5C 464.219,191.782 479.219,176.449 493.5,160.5 Z"/></g>
<g><path style="opacity:1" fill="#faa300" d="M 316.5,191.5 C 318.977,199.641 319.144,207.975 317,216.5C 309.727,238.947 294.56,252.28 271.5,256.5C 265.833,256.5 260.167,256.5 254.5,256.5C 274.606,235.945 294.94,215.612 315.5,195.5C 316.246,194.264 316.579,192.93 316.5,191.5 Z"/></g>
<g><path style="opacity:1" fill="#fee992" d="M 76.5,343.5 C 84.8977,359.565 94.8977,374.565 106.5,388.5C 96.5,398.833 86.5,409.167 76.5,419.5C 73.1667,422.5 69.8333,425.5 66.5,428.5C 54.2172,415.932 43.8838,401.932 35.5,386.5C 38.0096,381.313 41.6763,376.979 46.5,373.5C 56.1396,363.194 66.1396,353.194 76.5,343.5 Z"/></g>
<g><path style="opacity:1" fill="#fedd50" d="M 106.5,388.5 C 109.5,391.167 112.5,393.833 115.5,396.5C 122.575,403.913 130.242,410.58 138.5,416.5C 137.761,416.369 137.094,416.536 136.5,417C 126.298,427.369 115.965,437.535 105.5,447.5C 95.7595,438.09 86.0929,428.757 76.5,419.5C 86.5,409.167 96.5,398.833 106.5,388.5 Z"/></g>
<g><path style="opacity:1" fill="#fee992" d="M 138.5,416.5 C 159.055,431.442 181.722,442.108 206.5,448.5C 193.5,461.833 180.5,475.167 167.5,488.5C 165.427,490.58 163.093,492.246 160.5,493.5C 136.933,484.727 115.6,472.393 96.5,456.5C 99.8333,453.833 102.833,450.833 105.5,447.5C 115.965,437.535 126.298,427.369 136.5,417C 137.094,416.536 137.761,416.369 138.5,416.5 Z"/></g>
<g><path style="opacity:0.971" fill="#f0cd03" d="M 76.5,419.5 C 86.0929,428.757 95.7595,438.09 105.5,447.5C 102.833,450.833 99.8333,453.833 96.5,456.5C 85.5702,448.239 75.5702,438.906 66.5,428.5C 69.8333,425.5 73.1667,422.5 76.5,419.5 Z"/></g>
<g><path style="opacity:0.914" fill="#f0ce06" d="M 167.5,488.5 C 196.361,501.001 226.361,508.667 257.5,511.5C 249.167,511.5 240.833,511.5 232.5,511.5C 207.652,508.955 183.652,502.955 160.5,493.5C 163.093,492.246 165.427,490.58 167.5,488.5 Z"/></g>
</svg>
